M48
; DRILL file {KiCad 9.0.2} date 2025-06-09T18:34:15+0200
; FORMAT={-:-/ absolute / metric / decimal}
; #@! TF.CreationDate,2025-06-09T18:34:15+02:00
; #@! TF.GenerationSoftware,Kicad,Pcbnew,9.0.2
; #@! TF.FileFunction,Plated,1,4,PTH
FMAT,2
METRIC
; #@! TA.AperFunction,Plated,PTH,ComponentDrill
T1C0.300
; #@! TA.AperFunction,Plated,PTH,ViaDrill
T2C0.400
; #@! TA.AperFunction,Plated,PTH,ComponentDrill
T3C0.762
; #@! TA.AperFunction,Plated,PTH,ComponentDrill
T4C0.800
; #@! TA.AperFunction,Plated,PTH,ComponentDrill
T5C0.900
; #@! TA.AperFunction,Plated,PTH,ComponentDrill
T6C0.990
; #@! TA.AperFunction,Plated,PTH,ComponentDrill
T7C1.000
; #@! TA.AperFunction,Plated,PTH,ComponentDrill
T8C1.300
%
G90
G05
T1
X200.877Y-76.553
X200.877Y-77.753
X202.077Y-76.553
X202.077Y-77.753
X203.377Y-76.553
X203.377Y-77.753
X204.477Y-76.553
X204.477Y-77.753
T2
X140.708Y-85.853
X140.861Y-88.545
X141.216Y-80.773
X141.686Y-82.805
X141.724Y-105.665
X142.232Y-68.073
X142.74Y-98.68
X142.994Y-93.727
X143.756Y-88.393
X144.264Y-104.649
X144.823Y-90.12
X146.804Y-77.471
X147.82Y-83.313
X147.82Y-101.245
X149.845Y-99.91
X149.954Y-87.529
X149.979Y-86.361
X150.005Y-70.156
X150.157Y-80.722
X150.741Y-68.2
X150.868Y-91.06
X150.868Y-101.982
X151.072Y-75.236
X151.122Y-71.121
X151.122Y-73.407
X151.492Y-69.089
X151.757Y-83.821
X151.892Y-99.942
X152.011Y-77.725
X152.646Y-82.678
X152.646Y-86.107
X152.773Y-64.771
X152.773Y-65.914
X152.9Y-101.982
X153.916Y-73.051
X153.924Y-99.942
X154.018Y-64.771
X154.043Y-65.914
X154.932Y-96.267
X154.932Y-101.982
X155.288Y-64.771
X155.313Y-65.914
X155.694Y-79.757
X155.948Y-90.425
X155.956Y-99.942
X156.075Y-87.123
X156.964Y-79.757
X156.964Y-101.982
X157.676Y-76.811
X157.988Y-99.942
X158.107Y-87.123
X158.869Y-65.152
X158.996Y-77.09
X159.057Y-101.987
X159.504Y-82.297
X159.885Y-65.152
X159.885Y-66.295
X159.885Y-84.202
X160.02Y-99.942
X160.393Y-73.153
X160.901Y-65.152
X160.901Y-66.295
X161.028Y-92.711
X161.065Y-101.987
X161.663Y-80.265
X161.917Y-65.152
X162.01Y-84.977
X162.052Y-99.942
X163.06Y-101.982
X163.441Y-89.79
X163.822Y-84.71
X164.084Y-99.942
X164.457Y-82.043
X164.584Y-89.79
X165.27Y-71.604
X165.346Y-88.012
X166.362Y-100.839
X167.175Y-74.017
X167.378Y-98.426
X167.505Y-92.965
X168.14Y-86.361
X168.191Y-77.877
X168.394Y-100.864
X169.156Y-70.613
X169.258Y-75.033
X169.41Y-92.711
X169.537Y-90.323
X170.098Y-88.71
X170.223Y-76.557
X170.426Y-100.864
X170.807Y-111.888
X171.392Y-75.795
X171.595Y-85.358
X171.95Y-82.043
X172.585Y-92.965
X172.966Y-91.695
X172.966Y-106.554
X173.601Y-94.743
X173.728Y-85.154
X174.109Y-92.965
X174.49Y-81.408
X174.998Y-75.439
X175.506Y-106.554
X175.633Y-92.965
X175.633Y-111.38
X176.141Y-79.63
X176.141Y-80.9
X176.599Y-82.526
X176.802Y-90.425
X176.903Y-98.553
X176.947Y-95.334
X176.949Y-85.053
X177.301Y-96.269
X177.411Y-89.536
X177.894Y-72.823
X177.919Y-86.107
X178.046Y-90.425
X178.046Y-106.554
X178.3Y-96.267
X178.681Y-110.618
X178.935Y-89.536
X179.189Y-83.948
X179.57Y-79.376
X179.951Y-89.917
X180.332Y-75.312
X180.637Y-86.005
X180.84Y-95.632
X180.84Y-96.775
X181.044Y-90.019
X181.094Y-83.77
X181.145Y-80.773
X181.348Y-91.06
X181.399Y-85.04
X181.399Y-107.646
X181.602Y-105.411
X181.639Y-100.888
X182.237Y-73.28
X182.492Y-91.314
X183.126Y-109.602
X183.228Y-84.837
X183.332Y-95.991
X183.38Y-86.488
X183.584Y-65.228
X183.584Y-66.168
X184.015Y-75.185
X184.241Y-96.406
X184.269Y-102.325
X184.396Y-97.918
X184.396Y-99.061
X184.409Y-84.172
X184.549Y-65.228
X184.6Y-66.168
X184.752Y-88.85
X184.77Y-77.471
X184.902Y-112.171
X185.117Y-90.848
X185.412Y-73.661
X185.514Y-65.228
X185.666Y-82.551
X185.666Y-103.682
X185.971Y-94.032
X186.555Y-80.773
X186.682Y-92.965
X186.809Y-68.708
X186.809Y-69.724
X186.809Y-70.74
X186.936Y-75.312
X187.063Y-109.475
X187.317Y-100.204
X187.317Y-105.03
X187.384Y-103.02
X187.444Y-106.554
X187.476Y-99.188
X187.698Y-79.503
X187.825Y-68.708
X187.825Y-69.724
X187.952Y-93.219
X188.184Y-88.657
X188.416Y-92.247
X188.841Y-84.075
X189.349Y-91.06
X189.349Y-103.125
X189.402Y-109.921
X189.984Y-72.391
X190.365Y-67.057
X190.365Y-102.236
X190.365Y-104.141
X190.492Y-108.459
X190.492Y-109.602
X190.645Y-84.735
X191.0Y-103.252
X191.305Y-83.262
X191.762Y-67.057
X191.915Y-76.811
X192.27Y-84.177
X192.766Y-96.422
X192.778Y-99.95
X192.778Y-103.252
X192.778Y-106.122
X192.905Y-85.853
X192.905Y-86.818
X192.905Y-87.758
X192.905Y-88.698
X193.032Y-93.727
X193.032Y-95.378
X193.152Y-109.421
X193.413Y-80.265
X193.667Y-73.661
X193.794Y-99.95
X193.794Y-103.252
X193.794Y-106.122
X194.556Y-97.171
X194.709Y-105.817
X194.81Y-99.569
X194.81Y-103.633
X195.572Y-64.517
X197.35Y-100.636
X197.35Y-101.652
X197.35Y-105.716
X197.35Y-106.732
X198.366Y-100.636
X198.366Y-101.652
X198.366Y-105.716
X198.366Y-106.732
X198.874Y-84.202
X199.128Y-76.201
X199.128Y-79.884
X199.382Y-100.636
X199.382Y-101.652
X199.382Y-105.716
X199.433Y-106.732
X200.525Y-84.202
X202.049Y-85.472
X202.049Y-86.615
X202.049Y-87.758
X202.049Y-88.901
X202.684Y-64.517
X203.192Y-85.472
X203.192Y-86.615
X203.192Y-87.758
X203.192Y-88.901
X204.589Y-87.25
X205.351Y-64.517
X206.24Y-87.25
X207.256Y-89.917
X207.764Y-65.533
X208.272Y-87.25
X208.78Y-67.565
X208.78Y-70.105
X208.78Y-77.217
X209.288Y-80.773
X209.288Y-83.186
X209.796Y-87.25
X210.304Y-89.917
X212.082Y-83.186
X215.765Y-85.599
X218.432Y-85.599
T3
X206.499Y-106.965
X209.039Y-106.965
X211.579Y-106.965
X214.119Y-106.965
X216.659Y-106.965
T4
X141.152Y-66.921
X141.152Y-68.921
X141.152Y-70.921
X141.152Y-74.421
X141.152Y-76.421
X141.152Y-78.421
X141.152Y-91.421
X141.152Y-93.421
X141.152Y-95.421
X141.152Y-97.421
X141.152Y-99.421
X141.152Y-101.421
X141.152Y-103.421
X145.152Y-110.421
X147.152Y-110.421
X149.152Y-110.421
X153.652Y-110.421
X155.652Y-110.421
X160.152Y-110.421
X162.152Y-110.421
X206.499Y-104.425
X206.499Y-112.045
X209.039Y-104.425
X209.039Y-112.045
X211.579Y-104.425
X211.579Y-112.045
X214.119Y-104.425
X214.119Y-112.045
X216.659Y-104.425
X216.659Y-112.045
T5
X190.243Y-111.888
X192.783Y-111.888
T6
X145.084Y-81.535
X145.084Y-86.035
T7
X143.812Y-70.121
X143.812Y-72.661
X143.812Y-75.201
X143.812Y-92.421
X143.812Y-94.961
X143.812Y-97.501
X143.812Y-100.041
X143.812Y-102.581
X145.522Y-60.651
X145.522Y-63.191
X146.352Y-70.121
X146.352Y-72.661
X146.352Y-75.201
X146.352Y-92.421
X146.352Y-94.961
X146.352Y-97.501
X146.352Y-100.041
X146.352Y-102.581
X148.062Y-60.651
X148.062Y-63.191
X148.852Y-105.221
X148.852Y-107.761
X150.602Y-60.651
X150.602Y-63.191
X151.392Y-105.221
X151.392Y-107.761
X153.142Y-60.651
X153.142Y-63.191
X153.932Y-105.221
X153.932Y-107.761
X155.682Y-60.651
X155.682Y-63.191
X156.472Y-105.221
X156.472Y-107.761
X158.222Y-60.651
X158.222Y-63.191
X159.012Y-105.221
X159.012Y-107.761
X160.762Y-60.651
X160.762Y-63.191
X161.552Y-105.221
X161.552Y-107.761
X163.302Y-60.651
X163.302Y-63.191
X164.092Y-105.221
X164.092Y-107.761
X165.842Y-60.651
X165.842Y-63.191
X166.632Y-105.221
X166.632Y-107.761
X168.382Y-60.651
X168.382Y-63.191
X169.172Y-105.221
X169.172Y-107.761
X170.922Y-60.651
X170.922Y-63.191
X171.712Y-105.221
X171.712Y-107.761
X173.462Y-60.651
X173.462Y-63.191
X174.252Y-105.221
X174.252Y-107.761
X176.002Y-60.651
X176.002Y-63.191
X176.792Y-105.221
X176.792Y-107.761
X178.542Y-60.651
X178.542Y-63.191
X179.332Y-105.221
X179.332Y-107.761
X181.082Y-60.651
X181.082Y-63.191
X183.622Y-60.651
X183.622Y-63.191
X186.162Y-60.651
X186.162Y-63.191
X188.702Y-60.651
X188.702Y-63.191
X191.242Y-60.651
X191.242Y-63.191
X193.782Y-60.651
X193.782Y-63.191
X204.978Y-93.062
X207.518Y-93.062
X210.058Y-93.062
X212.598Y-93.062
X216.4Y-75.439
X216.4Y-80.519
X218.94Y-72.899
X218.94Y-77.979
T8
X147.574Y-80.285
X147.574Y-87.295
X216.694Y-97.069
X219.194Y-94.569
X219.194Y-99.569
T7
X212.09Y-66.983G85X212.09Y-64.983
G05
X216.09Y-61.282G85X214.09Y-61.282
G05
X218.09Y-66.983G85X218.09Y-64.983
G05
M30
