G04 #@! TF.GenerationSoftware,KiCad,Pcbnew,9.0.2*
G04 #@! TF.CreationDate,2025-06-09T18:33:27+02:00*
G04 #@! TF.ProjectId,RPI-Electronics_V2.1,5250492d-456c-4656-9374-726f6e696373,rev?*
G04 #@! TF.SameCoordinates,Original*
G04 #@! TF.FileFunction,Soldermask,Bot*
G04 #@! TF.FilePolarity,Negative*
%FSLAX46Y46*%
G04 Gerber Fmt 4.6, Leading zero omitted, Abs format (unit mm)*
G04 Created by KiCad (PCBNEW 9.0.2) date 2025-06-09 18:33:27*
%MOMM*%
%LPD*%
G01*
G04 APERTURE LIST*
G04 Aperture macros list*
%AMRoundRect*
0 Rectangle with rounded corners*
0 $1 Rounding radius*
0 $2 $3 $4 $5 $6 $7 $8 $9 X,Y pos of 4 corners*
0 Add a 4 corners polygon primitive as box body*
4,1,4,$2,$3,$4,$5,$6,$7,$8,$9,$2,$3,0*
0 Add four circle primitives for the rounded corners*
1,1,$1+$1,$2,$3*
1,1,$1+$1,$4,$5*
1,1,$1+$1,$6,$7*
1,1,$1+$1,$8,$9*
0 Add four rect primitives between the rounded corners*
20,1,$1+$1,$2,$3,$4,$5,0*
20,1,$1+$1,$4,$5,$6,$7,0*
20,1,$1+$1,$6,$7,$8,$9,0*
20,1,$1+$1,$8,$9,$2,$3,0*%
G04 Aperture macros list end*
%ADD10R,3.500000X3.500000*%
%ADD11RoundRect,0.750000X0.750000X1.000000X-0.750000X1.000000X-0.750000X-1.000000X0.750000X-1.000000X0*%
%ADD12RoundRect,0.875000X0.875000X0.875000X-0.875000X0.875000X-0.875000X-0.875000X0.875000X-0.875000X0*%
%ADD13R,1.350000X1.350000*%
%ADD14O,1.350000X1.350000*%
%ADD15C,1.800000*%
%ADD16C,2.340000*%
%ADD17R,1.600000X2.400000*%
%ADD18C,1.524000*%
%ADD19O,1.600000X2.400000*%
%ADD20R,1.800000X1.800000*%
%ADD21C,2.700000*%
%ADD22R,1.700000X1.700000*%
%ADD23C,1.700000*%
%ADD24RoundRect,0.237500X0.300000X0.237500X-0.300000X0.237500X-0.300000X-0.237500X0.300000X-0.237500X0*%
%ADD25R,3.510000X2.540000*%
%ADD26RoundRect,0.237500X-0.300000X-0.237500X0.300000X-0.237500X0.300000X0.237500X-0.300000X0.237500X0*%
%ADD27RoundRect,0.250000X0.600000X0.600000X-0.600000X0.600000X-0.600000X-0.600000X0.600000X-0.600000X0*%
%ADD28O,1.700000X1.700000*%
%ADD29C,2.100000*%
%ADD30C,1.750000*%
%ADD31RoundRect,0.237500X-0.237500X0.300000X-0.237500X-0.300000X0.237500X-0.300000X0.237500X0.300000X0*%
%ADD32RoundRect,0.150000X0.825000X0.150000X-0.825000X0.150000X-0.825000X-0.150000X0.825000X-0.150000X0*%
%ADD33RoundRect,0.250000X-0.625000X0.400000X-0.625000X-0.400000X0.625000X-0.400000X0.625000X0.400000X0*%
%ADD34RoundRect,0.250000X0.625000X-0.400000X0.625000X0.400000X-0.625000X0.400000X-0.625000X-0.400000X0*%
%ADD35RoundRect,0.250000X-0.400000X-0.625000X0.400000X-0.625000X0.400000X0.625000X-0.400000X0.625000X0*%
%ADD36RoundRect,0.250000X-0.412500X-0.650000X0.412500X-0.650000X0.412500X0.650000X-0.412500X0.650000X0*%
%ADD37RoundRect,0.250000X-0.600000X0.600000X-0.600000X-0.600000X0.600000X-0.600000X0.600000X0.600000X0*%
%ADD38RoundRect,0.250000X1.500000X1.000000X-1.500000X1.000000X-1.500000X-1.000000X1.500000X-1.000000X0*%
%ADD39C,0.800000*%
%ADD40RoundRect,0.250000X0.400000X0.625000X-0.400000X0.625000X-0.400000X-0.625000X0.400000X-0.625000X0*%
G04 APERTURE END LIST*
D10*
X212090000Y-65982500D03*
D11*
X218090000Y-65982500D03*
D12*
X215090000Y-61282500D03*
D13*
X149152400Y-110421000D03*
D14*
X147152400Y-110421000D03*
X145152400Y-110421000D03*
D13*
X141152400Y-78421000D03*
D14*
X141152400Y-76421000D03*
X141152400Y-74421000D03*
D13*
X141152400Y-70921000D03*
D14*
X141152400Y-68921000D03*
X141152400Y-66921000D03*
D15*
X216400400Y-75439000D03*
X218940400Y-72899000D03*
X216400400Y-80519000D03*
X218940400Y-77979000D03*
D16*
X219194400Y-99569000D03*
X216694400Y-97069000D03*
X219194400Y-94569000D03*
D17*
X206499400Y-112045000D03*
D18*
X206499400Y-106965000D03*
D19*
X209039400Y-112045000D03*
D18*
X209039400Y-106965000D03*
D19*
X211579400Y-112045000D03*
D18*
X211579400Y-106965000D03*
D19*
X214119400Y-112045000D03*
D18*
X214119400Y-106965000D03*
D19*
X216659400Y-112045000D03*
D18*
X216659400Y-106965000D03*
D19*
X216659400Y-104425000D03*
X214119400Y-104425000D03*
X211579400Y-104425000D03*
X209039400Y-104425000D03*
X206499400Y-104425000D03*
D20*
X192783400Y-111888000D03*
D15*
X190243400Y-111888000D03*
D13*
X162152400Y-110421000D03*
D14*
X160152400Y-110421000D03*
D21*
X198652400Y-61921000D03*
D22*
X204978400Y-93062400D03*
D23*
X207518400Y-93062400D03*
X210058400Y-93062400D03*
X212598400Y-93062400D03*
D21*
X140652400Y-61921000D03*
D13*
X141152400Y-103421000D03*
D14*
X141152400Y-101421000D03*
X141152400Y-99421000D03*
X141152400Y-97421000D03*
X141152400Y-95421000D03*
X141152400Y-93421000D03*
X141152400Y-91421000D03*
D21*
X198652400Y-110921000D03*
X140652400Y-110921000D03*
D13*
X155652400Y-110421000D03*
D14*
X153652400Y-110421000D03*
D24*
X184015400Y-82424000D03*
X182290400Y-82424000D03*
X184038600Y-80773000D03*
X182313600Y-80773000D03*
D25*
X168402000Y-67180000D03*
X168402000Y-96540000D03*
D26*
X181374900Y-92507800D03*
X183099900Y-92507800D03*
D27*
X146352400Y-70121000D03*
D23*
X143812400Y-70121000D03*
X146352400Y-72661000D03*
X143812400Y-72661000D03*
X146352400Y-75201000D03*
X143812400Y-75201000D03*
D22*
X145522400Y-63191000D03*
D28*
X145522400Y-60651000D03*
X148062400Y-63191000D03*
X148062400Y-60651000D03*
X150602400Y-63191000D03*
X150602400Y-60651000D03*
X153142400Y-63191000D03*
X153142400Y-60651000D03*
X155682400Y-63191000D03*
X155682400Y-60651000D03*
X158222400Y-63191000D03*
X158222400Y-60651000D03*
X160762400Y-63191000D03*
X160762400Y-60651000D03*
X163302400Y-63191000D03*
X163302400Y-60651000D03*
X165842400Y-63191000D03*
X165842400Y-60651000D03*
X168382400Y-63191000D03*
X168382400Y-60651000D03*
X170922400Y-63191000D03*
X170922400Y-60651000D03*
X173462400Y-63191000D03*
X173462400Y-60651000D03*
X176002400Y-63191000D03*
X176002400Y-60651000D03*
X178542400Y-63191000D03*
X178542400Y-60651000D03*
X181082400Y-63191000D03*
X181082400Y-60651000D03*
X183622400Y-63191000D03*
X183622400Y-60651000D03*
X186162400Y-63191000D03*
X186162400Y-60651000D03*
X188702400Y-63191000D03*
X188702400Y-60651000D03*
X191242400Y-63191000D03*
X191242400Y-60651000D03*
X193782400Y-63191000D03*
X193782400Y-60651000D03*
D29*
X147573900Y-80285000D03*
X147573900Y-87295000D03*
D30*
X145083900Y-81535000D03*
X145083900Y-86035000D03*
D31*
X154805400Y-85371000D03*
X154805400Y-87096000D03*
D32*
X157597900Y-93727000D03*
X157597900Y-94997000D03*
X157597900Y-96267000D03*
X157597900Y-97537000D03*
X152647900Y-97537000D03*
X152647900Y-96267000D03*
X152647900Y-94997000D03*
X152647900Y-93727000D03*
D33*
X155948400Y-88875000D03*
X155948400Y-91975000D03*
D27*
X146352400Y-92421000D03*
D23*
X143812400Y-92421000D03*
X146352400Y-94961000D03*
X143812400Y-94961000D03*
X146352400Y-97501000D03*
X143812400Y-97501000D03*
X146352400Y-100041000D03*
X143812400Y-100041000D03*
X146352400Y-102581000D03*
X143812400Y-102581000D03*
D34*
X153662400Y-91975000D03*
X153662400Y-88875000D03*
D24*
X182845900Y-79249000D03*
X181120900Y-79249000D03*
D35*
X182999400Y-105157000D03*
X186099400Y-105157000D03*
D36*
X171119000Y-102617000D03*
X174244000Y-102617000D03*
X176864900Y-102617000D03*
X179989900Y-102617000D03*
D37*
X148852400Y-105221000D03*
D23*
X148852400Y-107761000D03*
X151392400Y-105221000D03*
X151392400Y-107761000D03*
X153932400Y-105221000D03*
X153932400Y-107761000D03*
X156472400Y-105221000D03*
X156472400Y-107761000D03*
X159012400Y-105221000D03*
X159012400Y-107761000D03*
X161552400Y-105221000D03*
X161552400Y-107761000D03*
X164092400Y-105221000D03*
X164092400Y-107761000D03*
X166632400Y-105221000D03*
X166632400Y-107761000D03*
X169172400Y-105221000D03*
X169172400Y-107761000D03*
X171712400Y-105221000D03*
X171712400Y-107761000D03*
X174252400Y-105221000D03*
X174252400Y-107761000D03*
X176792400Y-105221000D03*
X176792400Y-107761000D03*
X179332400Y-105221000D03*
X179332400Y-107761000D03*
D35*
X182999400Y-98807000D03*
X186099400Y-98807000D03*
D38*
X183963400Y-69216000D03*
X177463400Y-69216000D03*
D26*
X150831400Y-98807000D03*
X152556400Y-98807000D03*
D35*
X182999400Y-101347000D03*
X186099400Y-101347000D03*
D38*
X160341400Y-69216000D03*
X153841400Y-69216000D03*
D39*
X178935400Y-92584000D03*
X182491400Y-90044000D03*
D31*
X159567900Y-94769500D03*
X159567900Y-96494500D03*
D35*
X182999400Y-107824000D03*
X186099400Y-107824000D03*
D40*
X146957400Y-67057000D03*
X143857400Y-67057000D03*
M02*
