G04 #@! TF.GenerationSoftware,KiCad,Pcbnew,9.0.2*
G04 #@! TF.CreationDate,2025-06-09T18:33:26+02:00*
G04 #@! TF.ProjectId,RPI-Electronics_V2.1,5250492d-456c-4656-9374-726f6e696373,rev?*
G04 #@! TF.SameCoordinates,Original*
G04 #@! TF.FileFunction,Paste,Bot*
G04 #@! TF.FilePolarity,Positive*
%FSLAX46Y46*%
G04 Gerber Fmt 4.6, Leading zero omitted, Abs format (unit mm)*
G04 Created by KiCad (PCBNEW 9.0.2) date 2025-06-09 18:33:26*
%MOMM*%
%LPD*%
G01*
G04 APERTURE LIST*
G04 Aperture macros list*
%AMRoundRect*
0 Rectangle with rounded corners*
0 $1 Rounding radius*
0 $2 $3 $4 $5 $6 $7 $8 $9 X,Y pos of 4 corners*
0 Add a 4 corners polygon primitive as box body*
4,1,4,$2,$3,$4,$5,$6,$7,$8,$9,$2,$3,0*
0 Add four circle primitives for the rounded corners*
1,1,$1+$1,$2,$3*
1,1,$1+$1,$4,$5*
1,1,$1+$1,$6,$7*
1,1,$1+$1,$8,$9*
0 Add four rect primitives between the rounded corners*
20,1,$1+$1,$2,$3,$4,$5,0*
20,1,$1+$1,$4,$5,$6,$7,0*
20,1,$1+$1,$6,$7,$8,$9,0*
20,1,$1+$1,$8,$9,$2,$3,0*%
G04 Aperture macros list end*
%ADD10RoundRect,0.237500X0.300000X0.237500X-0.300000X0.237500X-0.300000X-0.237500X0.300000X-0.237500X0*%
%ADD11R,3.510000X2.540000*%
%ADD12RoundRect,0.237500X-0.300000X-0.237500X0.300000X-0.237500X0.300000X0.237500X-0.300000X0.237500X0*%
%ADD13RoundRect,0.237500X-0.237500X0.300000X-0.237500X-0.300000X0.237500X-0.300000X0.237500X0.300000X0*%
%ADD14RoundRect,0.150000X0.825000X0.150000X-0.825000X0.150000X-0.825000X-0.150000X0.825000X-0.150000X0*%
%ADD15RoundRect,0.250000X-0.625000X0.400000X-0.625000X-0.400000X0.625000X-0.400000X0.625000X0.400000X0*%
%ADD16RoundRect,0.250000X0.625000X-0.400000X0.625000X0.400000X-0.625000X0.400000X-0.625000X-0.400000X0*%
%ADD17RoundRect,0.250000X-0.400000X-0.625000X0.400000X-0.625000X0.400000X0.625000X-0.400000X0.625000X0*%
%ADD18RoundRect,0.250000X-0.412500X-0.650000X0.412500X-0.650000X0.412500X0.650000X-0.412500X0.650000X0*%
%ADD19RoundRect,0.250000X1.500000X1.000000X-1.500000X1.000000X-1.500000X-1.000000X1.500000X-1.000000X0*%
%ADD20RoundRect,0.250000X0.400000X0.625000X-0.400000X0.625000X-0.400000X-0.625000X0.400000X-0.625000X0*%
G04 APERTURE END LIST*
D10*
X184015400Y-82424000D03*
X182290400Y-82424000D03*
X184038600Y-80773000D03*
X182313600Y-80773000D03*
D11*
X168402000Y-67180000D03*
X168402000Y-96540000D03*
D12*
X181374900Y-92507800D03*
X183099900Y-92507800D03*
D13*
X154805400Y-85371000D03*
X154805400Y-87096000D03*
D14*
X157597900Y-93727000D03*
X157597900Y-94997000D03*
X157597900Y-96267000D03*
X157597900Y-97537000D03*
X152647900Y-97537000D03*
X152647900Y-96267000D03*
X152647900Y-94997000D03*
X152647900Y-93727000D03*
D15*
X155948400Y-88875000D03*
X155948400Y-91975000D03*
D16*
X153662400Y-91975000D03*
X153662400Y-88875000D03*
D10*
X182845900Y-79249000D03*
X181120900Y-79249000D03*
D17*
X182999400Y-105157000D03*
X186099400Y-105157000D03*
D18*
X171119000Y-102617000D03*
X174244000Y-102617000D03*
X176864900Y-102617000D03*
X179989900Y-102617000D03*
D17*
X182999400Y-98807000D03*
X186099400Y-98807000D03*
D19*
X183963400Y-69216000D03*
X177463400Y-69216000D03*
D12*
X150831400Y-98807000D03*
X152556400Y-98807000D03*
D17*
X182999400Y-101347000D03*
X186099400Y-101347000D03*
D19*
X160341400Y-69216000D03*
X153841400Y-69216000D03*
D13*
X159567900Y-94769500D03*
X159567900Y-96494500D03*
D17*
X182999400Y-107824000D03*
X186099400Y-107824000D03*
D20*
X146957400Y-67057000D03*
X143857400Y-67057000D03*
M02*
