G04 #@! TF.GenerationSoftware,KiCad,Pcbnew,9.0.2*
G04 #@! TF.CreationDate,2025-06-10T18:41:31+02:00*
G04 #@! TF.ProjectId,RPI-Electronics_IO-Card.pro,5250492d-456c-4656-9374-726f6e696373,rev?*
G04 #@! TF.SameCoordinates,Original*
G04 #@! TF.FileFunction,Legend,Bot*
G04 #@! TF.FilePolarity,Positive*
%FSLAX46Y46*%
G04 Gerber Fmt 4.6, Leading zero omitted, Abs format (unit mm)*
G04 Created by KiCad (PCBNEW 9.0.2) date 2025-06-10 18:41:31*
%MOMM*%
%LPD*%
G01*
G04 APERTURE LIST*
G04 Aperture macros list*
%AMFreePoly0*
4,1,5,0.750000,-0.750000,-0.750000,-0.750000,-0.750000,0.750000,0.750000,0.750000,0.750000,-0.750000,0.750000,-0.750000,$1*%
G04 Aperture macros list end*
%ADD10C,0.350000*%
%ADD11C,4.100000*%
%ADD12C,3.200000*%
%ADD13FreePoly0,90.000000*%
G04 APERTURE END LIST*
D10*
X164894763Y-67638942D02*
X164990002Y-67543704D01*
X164990002Y-67543704D02*
X165180478Y-67257990D01*
X165180478Y-67257990D02*
X165275716Y-67067514D01*
X165275716Y-67067514D02*
X165370954Y-66781800D01*
X165370954Y-66781800D02*
X165466192Y-66305609D01*
X165466192Y-66305609D02*
X165466192Y-65924657D01*
X165466192Y-65924657D02*
X165370954Y-65448466D01*
X165370954Y-65448466D02*
X165275716Y-65162752D01*
X165275716Y-65162752D02*
X165180478Y-64972276D01*
X165180478Y-64972276D02*
X164990002Y-64686561D01*
X164990002Y-64686561D02*
X164894763Y-64591323D01*
X162990002Y-66686561D02*
X163085240Y-66781800D01*
X163085240Y-66781800D02*
X163370954Y-66877038D01*
X163370954Y-66877038D02*
X163561430Y-66877038D01*
X163561430Y-66877038D02*
X163847145Y-66781800D01*
X163847145Y-66781800D02*
X164037621Y-66591323D01*
X164037621Y-66591323D02*
X164132859Y-66400847D01*
X164132859Y-66400847D02*
X164228097Y-66019895D01*
X164228097Y-66019895D02*
X164228097Y-65734180D01*
X164228097Y-65734180D02*
X164132859Y-65353228D01*
X164132859Y-65353228D02*
X164037621Y-65162752D01*
X164037621Y-65162752D02*
X163847145Y-64972276D01*
X163847145Y-64972276D02*
X163561430Y-64877038D01*
X163561430Y-64877038D02*
X163370954Y-64877038D01*
X163370954Y-64877038D02*
X163085240Y-64972276D01*
X163085240Y-64972276D02*
X162990002Y-65067514D01*
X162323335Y-67638942D02*
X162228097Y-67543704D01*
X162228097Y-67543704D02*
X162037621Y-67257990D01*
X162037621Y-67257990D02*
X161942383Y-67067514D01*
X161942383Y-67067514D02*
X161847145Y-66781800D01*
X161847145Y-66781800D02*
X161751907Y-66305609D01*
X161751907Y-66305609D02*
X161751907Y-65924657D01*
X161751907Y-65924657D02*
X161847145Y-65448466D01*
X161847145Y-65448466D02*
X161942383Y-65162752D01*
X161942383Y-65162752D02*
X162037621Y-64972276D01*
X162037621Y-64972276D02*
X162228097Y-64686561D01*
X162228097Y-64686561D02*
X162323335Y-64591323D01*
X159370954Y-65067514D02*
X159275716Y-64972276D01*
X159275716Y-64972276D02*
X159085240Y-64877038D01*
X159085240Y-64877038D02*
X158609049Y-64877038D01*
X158609049Y-64877038D02*
X158418573Y-64972276D01*
X158418573Y-64972276D02*
X158323335Y-65067514D01*
X158323335Y-65067514D02*
X158228097Y-65257990D01*
X158228097Y-65257990D02*
X158228097Y-65448466D01*
X158228097Y-65448466D02*
X158323335Y-65734180D01*
X158323335Y-65734180D02*
X159466192Y-66877038D01*
X159466192Y-66877038D02*
X158228097Y-66877038D01*
X156990002Y-64877038D02*
X156799525Y-64877038D01*
X156799525Y-64877038D02*
X156609049Y-64972276D01*
X156609049Y-64972276D02*
X156513811Y-65067514D01*
X156513811Y-65067514D02*
X156418573Y-65257990D01*
X156418573Y-65257990D02*
X156323335Y-65638942D01*
X156323335Y-65638942D02*
X156323335Y-66115133D01*
X156323335Y-66115133D02*
X156418573Y-66496085D01*
X156418573Y-66496085D02*
X156513811Y-66686561D01*
X156513811Y-66686561D02*
X156609049Y-66781800D01*
X156609049Y-66781800D02*
X156799525Y-66877038D01*
X156799525Y-66877038D02*
X156990002Y-66877038D01*
X156990002Y-66877038D02*
X157180478Y-66781800D01*
X157180478Y-66781800D02*
X157275716Y-66686561D01*
X157275716Y-66686561D02*
X157370954Y-66496085D01*
X157370954Y-66496085D02*
X157466192Y-66115133D01*
X157466192Y-66115133D02*
X157466192Y-65638942D01*
X157466192Y-65638942D02*
X157370954Y-65257990D01*
X157370954Y-65257990D02*
X157275716Y-65067514D01*
X157275716Y-65067514D02*
X157180478Y-64972276D01*
X157180478Y-64972276D02*
X156990002Y-64877038D01*
X155561430Y-65067514D02*
X155466192Y-64972276D01*
X155466192Y-64972276D02*
X155275716Y-64877038D01*
X155275716Y-64877038D02*
X154799525Y-64877038D01*
X154799525Y-64877038D02*
X154609049Y-64972276D01*
X154609049Y-64972276D02*
X154513811Y-65067514D01*
X154513811Y-65067514D02*
X154418573Y-65257990D01*
X154418573Y-65257990D02*
X154418573Y-65448466D01*
X154418573Y-65448466D02*
X154513811Y-65734180D01*
X154513811Y-65734180D02*
X155656668Y-66877038D01*
X155656668Y-66877038D02*
X154418573Y-66877038D01*
X153656668Y-65067514D02*
X153561430Y-64972276D01*
X153561430Y-64972276D02*
X153370954Y-64877038D01*
X153370954Y-64877038D02*
X152894763Y-64877038D01*
X152894763Y-64877038D02*
X152704287Y-64972276D01*
X152704287Y-64972276D02*
X152609049Y-65067514D01*
X152609049Y-65067514D02*
X152513811Y-65257990D01*
X152513811Y-65257990D02*
X152513811Y-65448466D01*
X152513811Y-65448466D02*
X152609049Y-65734180D01*
X152609049Y-65734180D02*
X153751906Y-66877038D01*
X153751906Y-66877038D02*
X152513811Y-66877038D01*
X149180477Y-66877038D02*
X150132858Y-66877038D01*
X150132858Y-66877038D02*
X150132858Y-64877038D01*
X148513810Y-66877038D02*
X148513810Y-65543704D01*
X148513810Y-64877038D02*
X148609048Y-64972276D01*
X148609048Y-64972276D02*
X148513810Y-65067514D01*
X148513810Y-65067514D02*
X148418572Y-64972276D01*
X148418572Y-64972276D02*
X148513810Y-64877038D01*
X148513810Y-64877038D02*
X148513810Y-65067514D01*
X147561429Y-65543704D02*
X147561429Y-67543704D01*
X147561429Y-65638942D02*
X147370953Y-65543704D01*
X147370953Y-65543704D02*
X146990000Y-65543704D01*
X146990000Y-65543704D02*
X146799524Y-65638942D01*
X146799524Y-65638942D02*
X146704286Y-65734180D01*
X146704286Y-65734180D02*
X146609048Y-65924657D01*
X146609048Y-65924657D02*
X146609048Y-66496085D01*
X146609048Y-66496085D02*
X146704286Y-66686561D01*
X146704286Y-66686561D02*
X146799524Y-66781800D01*
X146799524Y-66781800D02*
X146990000Y-66877038D01*
X146990000Y-66877038D02*
X147370953Y-66877038D01*
X147370953Y-66877038D02*
X147561429Y-66781800D01*
X145751905Y-65543704D02*
X145751905Y-67543704D01*
X145751905Y-65638942D02*
X145561429Y-65543704D01*
X145561429Y-65543704D02*
X145180476Y-65543704D01*
X145180476Y-65543704D02*
X144990000Y-65638942D01*
X144990000Y-65638942D02*
X144894762Y-65734180D01*
X144894762Y-65734180D02*
X144799524Y-65924657D01*
X144799524Y-65924657D02*
X144799524Y-66496085D01*
X144799524Y-66496085D02*
X144894762Y-66686561D01*
X144894762Y-66686561D02*
X144990000Y-66781800D01*
X144990000Y-66781800D02*
X145180476Y-66877038D01*
X145180476Y-66877038D02*
X145561429Y-66877038D01*
X145561429Y-66877038D02*
X145751905Y-66781800D01*
X143942381Y-66877038D02*
X143942381Y-65543704D01*
X143942381Y-65734180D02*
X143847143Y-65638942D01*
X143847143Y-65638942D02*
X143656667Y-65543704D01*
X143656667Y-65543704D02*
X143370952Y-65543704D01*
X143370952Y-65543704D02*
X143180476Y-65638942D01*
X143180476Y-65638942D02*
X143085238Y-65829419D01*
X143085238Y-65829419D02*
X143085238Y-66877038D01*
X143085238Y-65829419D02*
X142990000Y-65638942D01*
X142990000Y-65638942D02*
X142799524Y-65543704D01*
X142799524Y-65543704D02*
X142513810Y-65543704D01*
X142513810Y-65543704D02*
X142323333Y-65638942D01*
X142323333Y-65638942D02*
X142228095Y-65829419D01*
X142228095Y-65829419D02*
X142228095Y-66877038D01*
X140418571Y-66877038D02*
X140418571Y-65829419D01*
X140418571Y-65829419D02*
X140513809Y-65638942D01*
X140513809Y-65638942D02*
X140704285Y-65543704D01*
X140704285Y-65543704D02*
X141085238Y-65543704D01*
X141085238Y-65543704D02*
X141275714Y-65638942D01*
X140418571Y-66781800D02*
X140609047Y-66877038D01*
X140609047Y-66877038D02*
X141085238Y-66877038D01*
X141085238Y-66877038D02*
X141275714Y-66781800D01*
X141275714Y-66781800D02*
X141370952Y-66591323D01*
X141370952Y-66591323D02*
X141370952Y-66400847D01*
X141370952Y-66400847D02*
X141275714Y-66210371D01*
X141275714Y-66210371D02*
X141085238Y-66115133D01*
X141085238Y-66115133D02*
X140609047Y-66115133D01*
X140609047Y-66115133D02*
X140418571Y-66019895D01*
X139466190Y-65543704D02*
X139466190Y-66877038D01*
X139466190Y-65734180D02*
X139370952Y-65638942D01*
X139370952Y-65638942D02*
X139180476Y-65543704D01*
X139180476Y-65543704D02*
X138894761Y-65543704D01*
X138894761Y-65543704D02*
X138704285Y-65638942D01*
X138704285Y-65638942D02*
X138609047Y-65829419D01*
X138609047Y-65829419D02*
X138609047Y-66877038D01*
X137656666Y-65543704D02*
X137656666Y-66877038D01*
X137656666Y-65734180D02*
X137561428Y-65638942D01*
X137561428Y-65638942D02*
X137370952Y-65543704D01*
X137370952Y-65543704D02*
X137085237Y-65543704D01*
X137085237Y-65543704D02*
X136894761Y-65638942D01*
X136894761Y-65638942D02*
X136799523Y-65829419D01*
X136799523Y-65829419D02*
X136799523Y-66877038D01*
X134323332Y-65829419D02*
X133656665Y-65829419D01*
X133370951Y-66877038D02*
X134323332Y-66877038D01*
X134323332Y-66877038D02*
X134323332Y-64877038D01*
X134323332Y-64877038D02*
X133370951Y-64877038D01*
X132228094Y-66877038D02*
X132418570Y-66781800D01*
X132418570Y-66781800D02*
X132513808Y-66591323D01*
X132513808Y-66591323D02*
X132513808Y-64877038D01*
X130704284Y-66781800D02*
X130894760Y-66877038D01*
X130894760Y-66877038D02*
X131275713Y-66877038D01*
X131275713Y-66877038D02*
X131466189Y-66781800D01*
X131466189Y-66781800D02*
X131561427Y-66591323D01*
X131561427Y-66591323D02*
X131561427Y-65829419D01*
X131561427Y-65829419D02*
X131466189Y-65638942D01*
X131466189Y-65638942D02*
X131275713Y-65543704D01*
X131275713Y-65543704D02*
X130894760Y-65543704D01*
X130894760Y-65543704D02*
X130704284Y-65638942D01*
X130704284Y-65638942D02*
X130609046Y-65829419D01*
X130609046Y-65829419D02*
X130609046Y-66019895D01*
X130609046Y-66019895D02*
X131561427Y-66210371D01*
X129751903Y-66877038D02*
X129751903Y-64877038D01*
X129561427Y-66115133D02*
X128989998Y-66877038D01*
X128989998Y-65543704D02*
X129751903Y-66305609D01*
X128418569Y-65543704D02*
X127656665Y-65543704D01*
X128132855Y-64877038D02*
X128132855Y-66591323D01*
X128132855Y-66591323D02*
X128037617Y-66781800D01*
X128037617Y-66781800D02*
X127847141Y-66877038D01*
X127847141Y-66877038D02*
X127656665Y-66877038D01*
X126989998Y-66877038D02*
X126989998Y-65543704D01*
X126989998Y-65924657D02*
X126894760Y-65734180D01*
X126894760Y-65734180D02*
X126799522Y-65638942D01*
X126799522Y-65638942D02*
X126609046Y-65543704D01*
X126609046Y-65543704D02*
X126418569Y-65543704D01*
X125466189Y-66877038D02*
X125656665Y-66781800D01*
X125656665Y-66781800D02*
X125751903Y-66686561D01*
X125751903Y-66686561D02*
X125847141Y-66496085D01*
X125847141Y-66496085D02*
X125847141Y-65924657D01*
X125847141Y-65924657D02*
X125751903Y-65734180D01*
X125751903Y-65734180D02*
X125656665Y-65638942D01*
X125656665Y-65638942D02*
X125466189Y-65543704D01*
X125466189Y-65543704D02*
X125180474Y-65543704D01*
X125180474Y-65543704D02*
X124989998Y-65638942D01*
X124989998Y-65638942D02*
X124894760Y-65734180D01*
X124894760Y-65734180D02*
X124799522Y-65924657D01*
X124799522Y-65924657D02*
X124799522Y-66496085D01*
X124799522Y-66496085D02*
X124894760Y-66686561D01*
X124894760Y-66686561D02*
X124989998Y-66781800D01*
X124989998Y-66781800D02*
X125180474Y-66877038D01*
X125180474Y-66877038D02*
X125466189Y-66877038D01*
X123942379Y-65543704D02*
X123942379Y-66877038D01*
X123942379Y-65734180D02*
X123847141Y-65638942D01*
X123847141Y-65638942D02*
X123656665Y-65543704D01*
X123656665Y-65543704D02*
X123370950Y-65543704D01*
X123370950Y-65543704D02*
X123180474Y-65638942D01*
X123180474Y-65638942D02*
X123085236Y-65829419D01*
X123085236Y-65829419D02*
X123085236Y-66877038D01*
X122132855Y-66877038D02*
X122132855Y-65543704D01*
X122132855Y-64877038D02*
X122228093Y-64972276D01*
X122228093Y-64972276D02*
X122132855Y-65067514D01*
X122132855Y-65067514D02*
X122037617Y-64972276D01*
X122037617Y-64972276D02*
X122132855Y-64877038D01*
X122132855Y-64877038D02*
X122132855Y-65067514D01*
X121180474Y-66877038D02*
X121180474Y-64877038D01*
X120989998Y-66115133D02*
X120418569Y-66877038D01*
X120418569Y-65543704D02*
X121180474Y-66305609D01*
%LPC*%
D11*
X122990000Y-71070000D03*
X130490000Y-86070000D03*
D12*
X112990000Y-100570000D03*
X172990000Y-100570000D03*
D11*
X146490000Y-100570000D03*
X162490000Y-100570000D03*
D12*
X112990000Y-55570000D03*
D11*
X169990000Y-78570000D03*
X153990000Y-93570000D03*
X162490000Y-78570000D03*
X153990000Y-78570000D03*
X146490000Y-93570000D03*
X146490000Y-71070000D03*
X137990000Y-93570000D03*
X153990000Y-100570000D03*
X137990000Y-86070000D03*
X169990000Y-86070000D03*
X115490000Y-93570000D03*
X162490000Y-93570000D03*
X130490000Y-71070000D03*
X146490000Y-86070000D03*
X169990000Y-93570000D03*
X137990000Y-100570000D03*
X130490000Y-78570000D03*
X162490000Y-71070000D03*
X122990000Y-78570000D03*
X122990000Y-100570000D03*
X115490000Y-78570000D03*
D12*
X172990000Y-55570000D03*
D11*
X162490000Y-86070000D03*
X130490000Y-93570000D03*
D13*
X127762000Y-59334400D03*
X127762000Y-56794400D03*
X130302000Y-59334400D03*
X130302000Y-56794400D03*
X132842000Y-59334400D03*
X132842000Y-56794400D03*
X135382000Y-59334400D03*
X135382000Y-56794400D03*
X137922000Y-59334400D03*
X137922000Y-56794400D03*
X140462000Y-59334400D03*
X140462000Y-56794400D03*
X143002000Y-59334400D03*
X143002000Y-56794400D03*
X145542000Y-59334400D03*
X145542000Y-56794400D03*
X148082000Y-59334400D03*
X148082000Y-56794400D03*
X150622000Y-59334400D03*
X150622000Y-56794400D03*
X153162000Y-59334400D03*
X153162000Y-56794400D03*
X155702000Y-59334400D03*
X155702000Y-56794400D03*
X158242000Y-59334400D03*
X158242000Y-56794400D03*
D11*
X153990000Y-86070000D03*
X137990000Y-78570000D03*
X137990000Y-71070000D03*
X153990000Y-71070000D03*
X130490000Y-100570000D03*
X122990000Y-93570000D03*
X115490000Y-71070000D03*
X146490000Y-78570000D03*
X122990000Y-86070000D03*
X115490000Y-86070000D03*
X169990000Y-71070000D03*
%LPD*%
M02*
