G04 #@! TF.GenerationSoftware,KiCad,Pcbnew,9.0.2*
G04 #@! TF.CreationDate,2025-06-10T18:41:31+02:00*
G04 #@! TF.ProjectId,RPI-Electronics_IO-Card.pro,5250492d-456c-4656-9374-726f6e696373,rev?*
G04 #@! TF.SameCoordinates,Original*
G04 #@! TF.FileFunction,Soldermask,Top*
G04 #@! TF.FilePolarity,Negative*
%FSLAX46Y46*%
G04 Gerber Fmt 4.6, Leading zero omitted, Abs format (unit mm)*
G04 Created by KiCad (PCBNEW 9.0.2) date 2025-06-10 18:41:31*
%MOMM*%
%LPD*%
G01*
G04 APERTURE LIST*
G04 Aperture macros list*
%AMFreePoly0*
4,1,5,0.750000,-0.750000,-0.750000,-0.750000,-0.750000,0.750000,0.750000,0.750000,0.750000,-0.750000,0.750000,-0.750000,$1*%
G04 Aperture macros list end*
%ADD10C,4.100000*%
%ADD11C,3.200000*%
%ADD12FreePoly0,90.000000*%
G04 APERTURE END LIST*
D10*
X122990000Y-71070000D03*
X130490000Y-86070000D03*
D11*
X112990000Y-100570000D03*
X172990000Y-100570000D03*
D10*
X146490000Y-100570000D03*
X162490000Y-100570000D03*
D11*
X112990000Y-55570000D03*
D10*
X169990000Y-78570000D03*
X153990000Y-93570000D03*
X162490000Y-78570000D03*
X153990000Y-78570000D03*
X146490000Y-93570000D03*
X146490000Y-71070000D03*
X137990000Y-93570000D03*
X153990000Y-100570000D03*
X137990000Y-86070000D03*
X169990000Y-86070000D03*
X115490000Y-93570000D03*
X162490000Y-93570000D03*
X130490000Y-71070000D03*
X146490000Y-86070000D03*
X169990000Y-93570000D03*
X137990000Y-100570000D03*
X130490000Y-78570000D03*
X162490000Y-71070000D03*
X122990000Y-78570000D03*
X122990000Y-100570000D03*
X115490000Y-78570000D03*
D11*
X172990000Y-55570000D03*
D10*
X162490000Y-86070000D03*
X130490000Y-93570000D03*
D12*
X127762000Y-59334400D03*
X127762000Y-56794400D03*
X130302000Y-59334400D03*
X130302000Y-56794400D03*
X132842000Y-59334400D03*
X132842000Y-56794400D03*
X135382000Y-59334400D03*
X135382000Y-56794400D03*
X137922000Y-59334400D03*
X137922000Y-56794400D03*
X140462000Y-59334400D03*
X140462000Y-56794400D03*
X143002000Y-59334400D03*
X143002000Y-56794400D03*
X145542000Y-59334400D03*
X145542000Y-56794400D03*
X148082000Y-59334400D03*
X148082000Y-56794400D03*
X150622000Y-59334400D03*
X150622000Y-56794400D03*
X153162000Y-59334400D03*
X153162000Y-56794400D03*
X155702000Y-59334400D03*
X155702000Y-56794400D03*
X158242000Y-59334400D03*
X158242000Y-56794400D03*
D10*
X153990000Y-86070000D03*
X137990000Y-78570000D03*
X137990000Y-71070000D03*
X153990000Y-71070000D03*
X130490000Y-100570000D03*
X122990000Y-93570000D03*
X115490000Y-71070000D03*
X146490000Y-78570000D03*
X122990000Y-86070000D03*
X115490000Y-86070000D03*
X169990000Y-71070000D03*
M02*
