G04 #@! TF.GenerationSoftware,KiCad,Pcbnew,9.0.2*
G04 #@! TF.CreationDate,2025-06-10T18:41:30+02:00*
G04 #@! TF.ProjectId,RPI-Electronics_IO-Card.pro,5250492d-456c-4656-9374-726f6e696373,rev?*
G04 #@! TF.SameCoordinates,Original*
G04 #@! TF.FileFunction,Copper,L2,Bot*
G04 #@! TF.FilePolarity,Positive*
%FSLAX46Y46*%
G04 Gerber Fmt 4.6, Leading zero omitted, Abs format (unit mm)*
G04 Created by KiCad (PCBNEW 9.0.2) date 2025-06-10 18:41:30*
%MOMM*%
%LPD*%
G01*
G04 APERTURE LIST*
G04 Aperture macros list*
%AMFreePoly0*
4,1,5,0.750000,-0.750000,-0.750000,-0.750000,-0.750000,0.750000,0.750000,0.750000,0.750000,-0.750000,0.750000,-0.750000,$1*%
G04 Aperture macros list end*
G04 #@! TA.AperFunction,ComponentPad*
%ADD10C,4.100000*%
G04 #@! TD*
G04 #@! TA.AperFunction,ComponentPad*
%ADD11FreePoly0,90.000000*%
G04 #@! TD*
G04 #@! TA.AperFunction,ViaPad*
%ADD12C,0.800000*%
G04 #@! TD*
G04 #@! TA.AperFunction,Conductor*
%ADD13C,0.500000*%
G04 #@! TD*
G04 #@! TA.AperFunction,Conductor*
%ADD14C,1.500000*%
G04 #@! TD*
G04 APERTURE END LIST*
D10*
X122990000Y-71070000D03*
X130490000Y-86070000D03*
X146490000Y-100570000D03*
X162490000Y-100570000D03*
X169990000Y-78570000D03*
X153990000Y-93570000D03*
X162490000Y-78570000D03*
X153990000Y-78570000D03*
X146490000Y-93570000D03*
X146490000Y-71070000D03*
X137990000Y-93570000D03*
X153990000Y-100570000D03*
X137990000Y-86070000D03*
X169990000Y-86070000D03*
X115490000Y-93570000D03*
X162490000Y-93570000D03*
X130490000Y-71070000D03*
X146490000Y-86070000D03*
X169990000Y-93570000D03*
X137990000Y-100570000D03*
X130490000Y-78570000D03*
X162490000Y-71070000D03*
X122990000Y-78570000D03*
X122990000Y-100570000D03*
X115490000Y-78570000D03*
X162490000Y-86070000D03*
X130490000Y-93570000D03*
D11*
X127762000Y-59334400D03*
X127762000Y-56794400D03*
X130302000Y-59334400D03*
X130302000Y-56794400D03*
X132842000Y-59334400D03*
X132842000Y-56794400D03*
X135382000Y-59334400D03*
X135382000Y-56794400D03*
X137922000Y-59334400D03*
X137922000Y-56794400D03*
X140462000Y-59334400D03*
X140462000Y-56794400D03*
X143002000Y-59334400D03*
X143002000Y-56794400D03*
X145542000Y-59334400D03*
X145542000Y-56794400D03*
X148082000Y-59334400D03*
X148082000Y-56794400D03*
X150622000Y-59334400D03*
X150622000Y-56794400D03*
X153162000Y-59334400D03*
X153162000Y-56794400D03*
X155702000Y-59334400D03*
X155702000Y-56794400D03*
X158242000Y-59334400D03*
X158242000Y-56794400D03*
D10*
X153990000Y-86070000D03*
X137990000Y-78570000D03*
X137990000Y-71070000D03*
X153990000Y-71070000D03*
X130490000Y-100570000D03*
X122990000Y-93570000D03*
X115490000Y-71070000D03*
X146490000Y-78570000D03*
X122990000Y-86070000D03*
X115490000Y-86070000D03*
X169990000Y-71070000D03*
D12*
X163240000Y-54820000D03*
X155651200Y-63881000D03*
D13*
X140450000Y-59340000D02*
X140450000Y-62726000D01*
X140450000Y-62726000D02*
X146490000Y-68766000D01*
X146490000Y-68766000D02*
X146490000Y-71070000D01*
X142240000Y-69320000D02*
X142240000Y-74320000D01*
X142240000Y-74320000D02*
X146490000Y-78570000D01*
X139192000Y-58058000D02*
X139192000Y-66272000D01*
X140450000Y-56800000D02*
X139192000Y-58058000D01*
X139192000Y-66272000D02*
X142240000Y-69320000D01*
X142990000Y-62070000D02*
X149733000Y-68813000D01*
X149733000Y-68813000D02*
X149733000Y-82827000D01*
X142990000Y-59340000D02*
X142990000Y-62070000D01*
X149733000Y-82827000D02*
X146490000Y-86070000D01*
X151130000Y-67310000D02*
X151130000Y-88930000D01*
X142990000Y-56800000D02*
X144272000Y-58082000D01*
X151130000Y-88930000D02*
X146490000Y-93570000D01*
X144272000Y-58082000D02*
X144272000Y-60452000D01*
X144272000Y-60452000D02*
X151130000Y-67310000D01*
X150610000Y-59340000D02*
X150610000Y-60940000D01*
X159490000Y-64969311D02*
X157491188Y-62970499D01*
X150610000Y-60940000D02*
X152640499Y-62970499D01*
X157491188Y-62970499D02*
X152640499Y-62970499D01*
X162490000Y-86070000D02*
X159490000Y-83070000D01*
X159490000Y-83070000D02*
X159490000Y-64969311D01*
X151892000Y-58082000D02*
X151892000Y-60722000D01*
X150610000Y-56800000D02*
X151892000Y-58082000D01*
X162490000Y-65257500D02*
X162490000Y-71070000D01*
X153240000Y-62070000D02*
X159302500Y-62070000D01*
X151892000Y-60722000D02*
X153240000Y-62070000D01*
X159302500Y-62070000D02*
X162490000Y-65257500D01*
X173490000Y-65070000D02*
X163240000Y-54820000D01*
X169990000Y-86070000D02*
X173490000Y-82570000D01*
X173490000Y-82570000D02*
X173490000Y-65070000D01*
X169990000Y-71070000D02*
X169990000Y-63820000D01*
X153150000Y-55638000D02*
X153150000Y-56800000D01*
X160990000Y-54820000D02*
X153968000Y-54820000D01*
X153968000Y-54820000D02*
X153150000Y-55638000D01*
X169990000Y-63820000D02*
X160990000Y-54820000D01*
X157990000Y-66804000D02*
X157990000Y-89070000D01*
X155651200Y-64465200D02*
X157990000Y-66804000D01*
X155651200Y-63881000D02*
X155651200Y-64465200D01*
X157990000Y-89070000D02*
X162490000Y-93570000D01*
X165240000Y-75820000D02*
X162490000Y-78570000D01*
X156946600Y-60299600D02*
X157717000Y-61070000D01*
X156946600Y-58056600D02*
X156946600Y-60299600D01*
X165240000Y-66070000D02*
X165240000Y-75820000D01*
X155690000Y-56800000D02*
X156946600Y-58056600D01*
X157717000Y-61070000D02*
X160240000Y-61070000D01*
X160240000Y-61070000D02*
X165240000Y-66070000D01*
X167240000Y-62820000D02*
X167240000Y-75820000D01*
X161185000Y-56800000D02*
X158230000Y-56800000D01*
X161202500Y-56782500D02*
X161185000Y-56800000D01*
X161202500Y-56782500D02*
X167240000Y-62820000D01*
X167240000Y-75820000D02*
X169990000Y-78570000D01*
X161510000Y-59340000D02*
X158230000Y-59340000D01*
X166240000Y-89820000D02*
X169990000Y-93570000D01*
X166240000Y-64070000D02*
X166240000Y-89820000D01*
X166240000Y-64070000D02*
X161510000Y-59340000D01*
X115490000Y-67320000D02*
X123470000Y-59340000D01*
X115490000Y-67320000D02*
X115490000Y-71070000D01*
X123470000Y-59340000D02*
X127750000Y-59340000D01*
D14*
X122990000Y-100570000D02*
X162490000Y-100570000D01*
D13*
X112141000Y-66919000D02*
X122260000Y-56800000D01*
X112141000Y-75221000D02*
X115490000Y-78570000D01*
X112141000Y-66919000D02*
X112141000Y-75221000D01*
X122260000Y-56800000D02*
X127750000Y-56800000D01*
X118745000Y-82815000D02*
X115490000Y-86070000D01*
X123740000Y-61320000D02*
X118745000Y-66315000D01*
X118745000Y-66315000D02*
X118745000Y-82815000D01*
X130290000Y-60694000D02*
X130290000Y-59340000D01*
X129688000Y-61320000D02*
X130302000Y-60706000D01*
X130302000Y-60706000D02*
X130290000Y-60694000D01*
X123740000Y-61320000D02*
X129688000Y-61320000D01*
X124632000Y-62820000D02*
X129209022Y-62820000D01*
X120269000Y-88791000D02*
X120269000Y-67183000D01*
X120269000Y-67183000D02*
X124632000Y-62820000D01*
X129209022Y-62820000D02*
X131572000Y-60457022D01*
X131572000Y-58082000D02*
X130290000Y-56800000D01*
X115490000Y-93570000D02*
X120269000Y-88791000D01*
X131572000Y-60457022D02*
X131572000Y-58082000D01*
X132842000Y-63881000D02*
X132830000Y-63869000D01*
X132830000Y-63869000D02*
X132830000Y-59340000D01*
X130490000Y-66233000D02*
X132842000Y-63881000D01*
X130490000Y-71070000D02*
X130490000Y-66233000D01*
X133240000Y-66070000D02*
X133240000Y-75820000D01*
X132830000Y-56800000D02*
X134112000Y-58082000D01*
X134112000Y-65198000D02*
X133240000Y-66070000D01*
X134112000Y-58082000D02*
X134112000Y-65198000D01*
X133240000Y-75820000D02*
X130490000Y-78570000D01*
X134240000Y-66320000D02*
X134240000Y-79320000D01*
X135370000Y-59340000D02*
X135370000Y-65190000D01*
X134240000Y-79320000D02*
X130490000Y-83070000D01*
X135370000Y-65190000D02*
X134240000Y-66320000D01*
X130490000Y-83070000D02*
X130490000Y-86070000D01*
X136652000Y-65408000D02*
X135240000Y-66820000D01*
X135240000Y-88820000D02*
X130490000Y-93570000D01*
X135240000Y-66820000D02*
X135240000Y-88820000D01*
X136652000Y-58082000D02*
X136652000Y-65408000D01*
X135370000Y-56800000D02*
X136652000Y-58082000D01*
G04 #@! TA.AperFunction,Conductor*
G36*
X138022000Y-57749399D02*
G01*
X138022001Y-57749400D01*
X138575751Y-57749400D01*
X138633942Y-57768307D01*
X138669906Y-57817807D01*
X138671377Y-57874024D01*
X138641500Y-57985522D01*
X138641500Y-58280400D01*
X138622593Y-58338591D01*
X138573093Y-58374555D01*
X138542500Y-58379400D01*
X138022001Y-58379400D01*
X138022000Y-58379401D01*
X138022000Y-58843557D01*
X137987826Y-58834400D01*
X137856174Y-58834400D01*
X137822000Y-58843557D01*
X137822000Y-58379401D01*
X137821999Y-58379400D01*
X137301500Y-58379400D01*
X137243309Y-58360493D01*
X137207345Y-58310993D01*
X137202500Y-58280400D01*
X137202500Y-58009524D01*
X137202499Y-58009522D01*
X137176749Y-57913421D01*
X137166192Y-57874023D01*
X137169393Y-57812922D01*
X137207898Y-57765372D01*
X137261818Y-57749400D01*
X137821999Y-57749400D01*
X137822000Y-57749399D01*
X137822000Y-57285242D01*
X137856174Y-57294400D01*
X137987826Y-57294400D01*
X138022000Y-57285242D01*
X138022000Y-57749399D01*
G37*
G04 #@! TD.AperFunction*
G04 #@! TA.AperFunction,Conductor*
G36*
X173492595Y-52080636D02*
G01*
X173797309Y-52096605D01*
X173807605Y-52097687D01*
X174106434Y-52145017D01*
X174116547Y-52147166D01*
X174408805Y-52225477D01*
X174418638Y-52228671D01*
X174701111Y-52337102D01*
X174710546Y-52341303D01*
X174980140Y-52478668D01*
X174989100Y-52483842D01*
X175242836Y-52648620D01*
X175251208Y-52654703D01*
X175340725Y-52727192D01*
X175486328Y-52845099D01*
X175494029Y-52852032D01*
X175707967Y-53065970D01*
X175714900Y-53073671D01*
X175905292Y-53308785D01*
X175911383Y-53317169D01*
X176076153Y-53570892D01*
X176081335Y-53579866D01*
X176218692Y-53849445D01*
X176222900Y-53858897D01*
X176331323Y-54141350D01*
X176334523Y-54151197D01*
X176412830Y-54443440D01*
X176414984Y-54453576D01*
X176462311Y-54752389D01*
X176463394Y-54762694D01*
X176479364Y-55067403D01*
X176479500Y-55072585D01*
X176479500Y-101067414D01*
X176479364Y-101072596D01*
X176463394Y-101377305D01*
X176462311Y-101387610D01*
X176414984Y-101686423D01*
X176412830Y-101696559D01*
X176334523Y-101988802D01*
X176331321Y-101998654D01*
X176258530Y-102188286D01*
X176222907Y-102281087D01*
X176218692Y-102290554D01*
X176081335Y-102560133D01*
X176076153Y-102569107D01*
X175911383Y-102822830D01*
X175905292Y-102831214D01*
X175714900Y-103066328D01*
X175707967Y-103074029D01*
X175494029Y-103287967D01*
X175486328Y-103294900D01*
X175251214Y-103485292D01*
X175242830Y-103491383D01*
X174989107Y-103656153D01*
X174980133Y-103661335D01*
X174710554Y-103798692D01*
X174701095Y-103802903D01*
X174488789Y-103884400D01*
X174418657Y-103911321D01*
X174408802Y-103914523D01*
X174116559Y-103992830D01*
X174106423Y-103994984D01*
X173982694Y-104014581D01*
X173967207Y-104015800D01*
X112012793Y-104015800D01*
X111997306Y-104014581D01*
X111873576Y-103994984D01*
X111863440Y-103992830D01*
X111571197Y-103914523D01*
X111561350Y-103911323D01*
X111278897Y-103802900D01*
X111269445Y-103798692D01*
X110999866Y-103661335D01*
X110990892Y-103656153D01*
X110737169Y-103491383D01*
X110728785Y-103485292D01*
X110493671Y-103294900D01*
X110485970Y-103287967D01*
X110272032Y-103074029D01*
X110265099Y-103066328D01*
X110074703Y-102831208D01*
X110068616Y-102822830D01*
X109903842Y-102569100D01*
X109898668Y-102560140D01*
X109761303Y-102290546D01*
X109757102Y-102281111D01*
X109648671Y-101998638D01*
X109645476Y-101988802D01*
X109615966Y-101878670D01*
X109567166Y-101696547D01*
X109565017Y-101686434D01*
X109517687Y-101387605D01*
X109516605Y-101377304D01*
X109513977Y-101327164D01*
X109500636Y-101072595D01*
X109500500Y-101067414D01*
X109500500Y-100451987D01*
X111189500Y-100451987D01*
X111189500Y-100688012D01*
X111220306Y-100922006D01*
X111220306Y-100922011D01*
X111281393Y-101149992D01*
X111371713Y-101368044D01*
X111489729Y-101572453D01*
X111633402Y-101759692D01*
X111633404Y-101759694D01*
X111633408Y-101759699D01*
X111800301Y-101926592D01*
X111800305Y-101926595D01*
X111800307Y-101926597D01*
X111887896Y-101993806D01*
X111987550Y-102070273D01*
X112191951Y-102188284D01*
X112191952Y-102188284D01*
X112191955Y-102188286D01*
X112410007Y-102278606D01*
X112637986Y-102339693D01*
X112871989Y-102370500D01*
X112871990Y-102370500D01*
X113108010Y-102370500D01*
X113108011Y-102370500D01*
X113342014Y-102339693D01*
X113569993Y-102278606D01*
X113788049Y-102188284D01*
X113992450Y-102070273D01*
X114179699Y-101926592D01*
X114346592Y-101759699D01*
X114490273Y-101572450D01*
X114608284Y-101368049D01*
X114698606Y-101149993D01*
X114759693Y-100922014D01*
X114790500Y-100688011D01*
X114790500Y-100451989D01*
X114788871Y-100439617D01*
X114787029Y-100425620D01*
X114785754Y-100415939D01*
X120639500Y-100415939D01*
X120639500Y-100724060D01*
X120679717Y-101029536D01*
X120679717Y-101029541D01*
X120759464Y-101327163D01*
X120877375Y-101611825D01*
X121031440Y-101878673D01*
X121219003Y-102123110D01*
X121219005Y-102123112D01*
X121219009Y-102123117D01*
X121436883Y-102340991D01*
X121436887Y-102340994D01*
X121436889Y-102340996D01*
X121681326Y-102528559D01*
X121681330Y-102528562D01*
X121948170Y-102682622D01*
X121948171Y-102682622D01*
X121948174Y-102682624D01*
X122018819Y-102711886D01*
X122232836Y-102800535D01*
X122530456Y-102880282D01*
X122835940Y-102920500D01*
X122835941Y-102920500D01*
X123144059Y-102920500D01*
X123144060Y-102920500D01*
X123449544Y-102880282D01*
X123747164Y-102800535D01*
X124031830Y-102682622D01*
X124298670Y-102528562D01*
X124543117Y-102340991D01*
X124760991Y-102123117D01*
X124948562Y-101878670D01*
X125069037Y-101669999D01*
X125114507Y-101629059D01*
X125154774Y-101620500D01*
X128325226Y-101620500D01*
X128383417Y-101639407D01*
X128410962Y-101669999D01*
X128515026Y-101850244D01*
X128531440Y-101878673D01*
X128719003Y-102123110D01*
X128719005Y-102123112D01*
X128719009Y-102123117D01*
X128936883Y-102340991D01*
X128936887Y-102340994D01*
X128936889Y-102340996D01*
X129181326Y-102528559D01*
X129181330Y-102528562D01*
X129448170Y-102682622D01*
X129448171Y-102682622D01*
X129448174Y-102682624D01*
X129518819Y-102711886D01*
X129732836Y-102800535D01*
X130030456Y-102880282D01*
X130335940Y-102920500D01*
X130335941Y-102920500D01*
X130644059Y-102920500D01*
X130644060Y-102920500D01*
X130949544Y-102880282D01*
X131247164Y-102800535D01*
X131531830Y-102682622D01*
X131798670Y-102528562D01*
X132043117Y-102340991D01*
X132260991Y-102123117D01*
X132448562Y-101878670D01*
X132569037Y-101669999D01*
X132614507Y-101629059D01*
X132654774Y-101620500D01*
X135825226Y-101620500D01*
X135883417Y-101639407D01*
X135910962Y-101669999D01*
X136015026Y-101850244D01*
X136031440Y-101878673D01*
X136219003Y-102123110D01*
X136219005Y-102123112D01*
X136219009Y-102123117D01*
X136436883Y-102340991D01*
X136436887Y-102340994D01*
X136436889Y-102340996D01*
X136681326Y-102528559D01*
X136681330Y-102528562D01*
X136948170Y-102682622D01*
X136948171Y-102682622D01*
X136948174Y-102682624D01*
X137018819Y-102711886D01*
X137232836Y-102800535D01*
X137530456Y-102880282D01*
X137835940Y-102920500D01*
X137835941Y-102920500D01*
X138144059Y-102920500D01*
X138144060Y-102920500D01*
X138449544Y-102880282D01*
X138747164Y-102800535D01*
X139031830Y-102682622D01*
X139298670Y-102528562D01*
X139543117Y-102340991D01*
X139760991Y-102123117D01*
X139948562Y-101878670D01*
X140069037Y-101669999D01*
X140114507Y-101629059D01*
X140154774Y-101620500D01*
X144325226Y-101620500D01*
X144383417Y-101639407D01*
X144410962Y-101669999D01*
X144515026Y-101850244D01*
X144531440Y-101878673D01*
X144719003Y-102123110D01*
X144719005Y-102123112D01*
X144719009Y-102123117D01*
X144936883Y-102340991D01*
X144936887Y-102340994D01*
X144936889Y-102340996D01*
X145181326Y-102528559D01*
X145181330Y-102528562D01*
X145448170Y-102682622D01*
X145448171Y-102682622D01*
X145448174Y-102682624D01*
X145518819Y-102711886D01*
X145732836Y-102800535D01*
X146030456Y-102880282D01*
X146335940Y-102920500D01*
X146335941Y-102920500D01*
X146644059Y-102920500D01*
X146644060Y-102920500D01*
X146949544Y-102880282D01*
X147247164Y-102800535D01*
X147531830Y-102682622D01*
X147798670Y-102528562D01*
X148043117Y-102340991D01*
X148260991Y-102123117D01*
X148448562Y-101878670D01*
X148569037Y-101669999D01*
X148614507Y-101629059D01*
X148654774Y-101620500D01*
X151825226Y-101620500D01*
X151883417Y-101639407D01*
X151910962Y-101669999D01*
X152015026Y-101850244D01*
X152031440Y-101878673D01*
X152219003Y-102123110D01*
X152219005Y-102123112D01*
X152219009Y-102123117D01*
X152436883Y-102340991D01*
X152436887Y-102340994D01*
X152436889Y-102340996D01*
X152681326Y-102528559D01*
X152681330Y-102528562D01*
X152948170Y-102682622D01*
X152948171Y-102682622D01*
X152948174Y-102682624D01*
X153018819Y-102711886D01*
X153232836Y-102800535D01*
X153530456Y-102880282D01*
X153835940Y-102920500D01*
X153835941Y-102920500D01*
X154144059Y-102920500D01*
X154144060Y-102920500D01*
X154449544Y-102880282D01*
X154747164Y-102800535D01*
X155031830Y-102682622D01*
X155298670Y-102528562D01*
X155543117Y-102340991D01*
X155760991Y-102123117D01*
X155948562Y-101878670D01*
X156069037Y-101669999D01*
X156114507Y-101629059D01*
X156154774Y-101620500D01*
X160325226Y-101620500D01*
X160383417Y-101639407D01*
X160410962Y-101669999D01*
X160515026Y-101850244D01*
X160531440Y-101878673D01*
X160719003Y-102123110D01*
X160719005Y-102123112D01*
X160719009Y-102123117D01*
X160936883Y-102340991D01*
X160936887Y-102340994D01*
X160936889Y-102340996D01*
X161181326Y-102528559D01*
X161181330Y-102528562D01*
X161448170Y-102682622D01*
X161448171Y-102682622D01*
X161448174Y-102682624D01*
X161518819Y-102711886D01*
X161732836Y-102800535D01*
X162030456Y-102880282D01*
X162335940Y-102920500D01*
X162335941Y-102920500D01*
X162644059Y-102920500D01*
X162644060Y-102920500D01*
X162949544Y-102880282D01*
X163247164Y-102800535D01*
X163531830Y-102682622D01*
X163798670Y-102528562D01*
X164043117Y-102340991D01*
X164260991Y-102123117D01*
X164448562Y-101878670D01*
X164602622Y-101611830D01*
X164720535Y-101327164D01*
X164800282Y-101029544D01*
X164840500Y-100724060D01*
X164840500Y-100451987D01*
X171189500Y-100451987D01*
X171189500Y-100688012D01*
X171220306Y-100922006D01*
X171220306Y-100922011D01*
X171281393Y-101149992D01*
X171371713Y-101368044D01*
X171489729Y-101572453D01*
X171633402Y-101759692D01*
X171633404Y-101759694D01*
X171633408Y-101759699D01*
X171800301Y-101926592D01*
X171800305Y-101926595D01*
X171800307Y-101926597D01*
X171887896Y-101993806D01*
X171987550Y-102070273D01*
X172191951Y-102188284D01*
X172191952Y-102188284D01*
X172191955Y-102188286D01*
X172410007Y-102278606D01*
X172637986Y-102339693D01*
X172871989Y-102370500D01*
X172871990Y-102370500D01*
X173108010Y-102370500D01*
X173108011Y-102370500D01*
X173342014Y-102339693D01*
X173569993Y-102278606D01*
X173788049Y-102188284D01*
X173992450Y-102070273D01*
X174179699Y-101926592D01*
X174346592Y-101759699D01*
X174490273Y-101572450D01*
X174608284Y-101368049D01*
X174698606Y-101149993D01*
X174759693Y-100922014D01*
X174790500Y-100688011D01*
X174790500Y-100451989D01*
X174759693Y-100217986D01*
X174698606Y-99990007D01*
X174608284Y-99771951D01*
X174490273Y-99567550D01*
X174453403Y-99519500D01*
X174346597Y-99380307D01*
X174346595Y-99380305D01*
X174346592Y-99380301D01*
X174179699Y-99213408D01*
X174179694Y-99213404D01*
X174179692Y-99213402D01*
X173992453Y-99069729D01*
X173900921Y-99016883D01*
X173788049Y-98951716D01*
X173788044Y-98951713D01*
X173569992Y-98861393D01*
X173414277Y-98819670D01*
X173342014Y-98800307D01*
X173342011Y-98800306D01*
X173342009Y-98800306D01*
X173108012Y-98769500D01*
X173108011Y-98769500D01*
X172871989Y-98769500D01*
X172871987Y-98769500D01*
X172637993Y-98800306D01*
X172637988Y-98800306D01*
X172410007Y-98861393D01*
X172191955Y-98951713D01*
X171987546Y-99069729D01*
X171800307Y-99213402D01*
X171633402Y-99380307D01*
X171489729Y-99567546D01*
X171371713Y-99771955D01*
X171281393Y-99990007D01*
X171220306Y-100217988D01*
X171220306Y-100217993D01*
X171189500Y-100451987D01*
X164840500Y-100451987D01*
X164840500Y-100415940D01*
X164800282Y-100110456D01*
X164720535Y-99812836D01*
X164602624Y-99528174D01*
X164586700Y-99500593D01*
X164448562Y-99261330D01*
X164411786Y-99213402D01*
X164260996Y-99016889D01*
X164260994Y-99016887D01*
X164260991Y-99016883D01*
X164043117Y-98799009D01*
X164043112Y-98799005D01*
X164043110Y-98799003D01*
X163798673Y-98611440D01*
X163531825Y-98457375D01*
X163247163Y-98339464D01*
X163043881Y-98284995D01*
X162949544Y-98259718D01*
X162949541Y-98259717D01*
X162949539Y-98259717D01*
X162644060Y-98219500D01*
X162335940Y-98219500D01*
X162335939Y-98219500D01*
X162030463Y-98259717D01*
X162030458Y-98259717D01*
X161732836Y-98339464D01*
X161448174Y-98457375D01*
X161181326Y-98611440D01*
X160936889Y-98799003D01*
X160719003Y-99016889D01*
X160531440Y-99261326D01*
X160410963Y-99470000D01*
X160365493Y-99510941D01*
X160325226Y-99519500D01*
X156154774Y-99519500D01*
X156096583Y-99500593D01*
X156069037Y-99470000D01*
X156017253Y-99380307D01*
X155948562Y-99261330D01*
X155911786Y-99213402D01*
X155760996Y-99016889D01*
X155760994Y-99016887D01*
X155760991Y-99016883D01*
X155543117Y-98799009D01*
X155543112Y-98799005D01*
X155543110Y-98799003D01*
X155298673Y-98611440D01*
X155031825Y-98457375D01*
X154747163Y-98339464D01*
X154543881Y-98284995D01*
X154449544Y-98259718D01*
X154449541Y-98259717D01*
X154449539Y-98259717D01*
X154144060Y-98219500D01*
X153835940Y-98219500D01*
X153835939Y-98219500D01*
X153530463Y-98259717D01*
X153530458Y-98259717D01*
X153232836Y-98339464D01*
X152948174Y-98457375D01*
X152681326Y-98611440D01*
X152436889Y-98799003D01*
X152219003Y-99016889D01*
X152031440Y-99261326D01*
X151910963Y-99470000D01*
X151865493Y-99510941D01*
X151825226Y-99519500D01*
X148654774Y-99519500D01*
X148596583Y-99500593D01*
X148569037Y-99470000D01*
X148517253Y-99380307D01*
X148448562Y-99261330D01*
X148411786Y-99213402D01*
X148260996Y-99016889D01*
X148260994Y-99016887D01*
X148260991Y-99016883D01*
X148043117Y-98799009D01*
X148043112Y-98799005D01*
X148043110Y-98799003D01*
X147798673Y-98611440D01*
X147531825Y-98457375D01*
X147247163Y-98339464D01*
X147043881Y-98284995D01*
X146949544Y-98259718D01*
X146949541Y-98259717D01*
X146949539Y-98259717D01*
X146644060Y-98219500D01*
X146335940Y-98219500D01*
X146335939Y-98219500D01*
X146030463Y-98259717D01*
X146030458Y-98259717D01*
X145732836Y-98339464D01*
X145448174Y-98457375D01*
X145181326Y-98611440D01*
X144936889Y-98799003D01*
X144719003Y-99016889D01*
X144531440Y-99261326D01*
X144410963Y-99470000D01*
X144365493Y-99510941D01*
X144325226Y-99519500D01*
X140154774Y-99519500D01*
X140096583Y-99500593D01*
X140069037Y-99470000D01*
X140017253Y-99380307D01*
X139948562Y-99261330D01*
X139911786Y-99213402D01*
X139760996Y-99016889D01*
X139760994Y-99016887D01*
X139760991Y-99016883D01*
X139543117Y-98799009D01*
X139543112Y-98799005D01*
X139543110Y-98799003D01*
X139298673Y-98611440D01*
X139031825Y-98457375D01*
X138747163Y-98339464D01*
X138543881Y-98284995D01*
X138449544Y-98259718D01*
X138449541Y-98259717D01*
X138449539Y-98259717D01*
X138144060Y-98219500D01*
X137835940Y-98219500D01*
X137835939Y-98219500D01*
X137530463Y-98259717D01*
X137530458Y-98259717D01*
X137232836Y-98339464D01*
X136948174Y-98457375D01*
X136681326Y-98611440D01*
X136436889Y-98799003D01*
X136219003Y-99016889D01*
X136031440Y-99261326D01*
X135910963Y-99470000D01*
X135865493Y-99510941D01*
X135825226Y-99519500D01*
X132654774Y-99519500D01*
X132596583Y-99500593D01*
X132569037Y-99470000D01*
X132517253Y-99380307D01*
X132448562Y-99261330D01*
X132411786Y-99213402D01*
X132260996Y-99016889D01*
X132260994Y-99016887D01*
X132260991Y-99016883D01*
X132043117Y-98799009D01*
X132043112Y-98799005D01*
X132043110Y-98799003D01*
X131798673Y-98611440D01*
X131531825Y-98457375D01*
X131247163Y-98339464D01*
X131043881Y-98284995D01*
X130949544Y-98259718D01*
X130949541Y-98259717D01*
X130949539Y-98259717D01*
X130644060Y-98219500D01*
X130335940Y-98219500D01*
X130335939Y-98219500D01*
X130030463Y-98259717D01*
X130030458Y-98259717D01*
X129732836Y-98339464D01*
X129448174Y-98457375D01*
X129181326Y-98611440D01*
X128936889Y-98799003D01*
X128719003Y-99016889D01*
X128531440Y-99261326D01*
X128410963Y-99470000D01*
X128365493Y-99510941D01*
X128325226Y-99519500D01*
X125154774Y-99519500D01*
X125096583Y-99500593D01*
X125069037Y-99470000D01*
X125017253Y-99380307D01*
X124948562Y-99261330D01*
X124911786Y-99213402D01*
X124760996Y-99016889D01*
X124760994Y-99016887D01*
X124760991Y-99016883D01*
X124543117Y-98799009D01*
X124543112Y-98799005D01*
X124543110Y-98799003D01*
X124298673Y-98611440D01*
X124031825Y-98457375D01*
X123747163Y-98339464D01*
X123543881Y-98284995D01*
X123449544Y-98259718D01*
X123449541Y-98259717D01*
X123449539Y-98259717D01*
X123144060Y-98219500D01*
X122835940Y-98219500D01*
X122835939Y-98219500D01*
X122530463Y-98259717D01*
X122530458Y-98259717D01*
X122232836Y-98339464D01*
X121948174Y-98457375D01*
X121681326Y-98611440D01*
X121436889Y-98799003D01*
X121219003Y-99016889D01*
X121031440Y-99261326D01*
X120877375Y-99528174D01*
X120759464Y-99812836D01*
X120679717Y-100110458D01*
X120679717Y-100110463D01*
X120639500Y-100415939D01*
X114785754Y-100415939D01*
X114776979Y-100349289D01*
X114759693Y-100217986D01*
X114698606Y-99990007D01*
X114608284Y-99771951D01*
X114490273Y-99567550D01*
X114453403Y-99519500D01*
X114346597Y-99380307D01*
X114346595Y-99380305D01*
X114346592Y-99380301D01*
X114179699Y-99213408D01*
X114179694Y-99213404D01*
X114179692Y-99213402D01*
X113992453Y-99069729D01*
X113900921Y-99016883D01*
X113788049Y-98951716D01*
X113788044Y-98951713D01*
X113569992Y-98861393D01*
X113414277Y-98819670D01*
X113342014Y-98800307D01*
X113342011Y-98800306D01*
X113342009Y-98800306D01*
X113108012Y-98769500D01*
X113108011Y-98769500D01*
X112871989Y-98769500D01*
X112871987Y-98769500D01*
X112637993Y-98800306D01*
X112637988Y-98800306D01*
X112410007Y-98861393D01*
X112191955Y-98951713D01*
X111987546Y-99069729D01*
X111800307Y-99213402D01*
X111633402Y-99380307D01*
X111489729Y-99567546D01*
X111371713Y-99771955D01*
X111281393Y-99990007D01*
X111220306Y-100217988D01*
X111220306Y-100217993D01*
X111189500Y-100451987D01*
X109500500Y-100451987D01*
X109500500Y-85915939D01*
X113139500Y-85915939D01*
X113139500Y-86224060D01*
X113179717Y-86529536D01*
X113179717Y-86529541D01*
X113259464Y-86827163D01*
X113377375Y-87111825D01*
X113388190Y-87130557D01*
X113516568Y-87352915D01*
X113531440Y-87378673D01*
X113719003Y-87623110D01*
X113719005Y-87623112D01*
X113719009Y-87623117D01*
X113936883Y-87840991D01*
X113936887Y-87840994D01*
X113936889Y-87840996D01*
X114072198Y-87944822D01*
X114181330Y-88028562D01*
X114448170Y-88182622D01*
X114448171Y-88182622D01*
X114448174Y-88182624D01*
X114502593Y-88205165D01*
X114732836Y-88300535D01*
X115030456Y-88380282D01*
X115335940Y-88420500D01*
X115335941Y-88420500D01*
X115644059Y-88420500D01*
X115644060Y-88420500D01*
X115949544Y-88380282D01*
X116247164Y-88300535D01*
X116531830Y-88182622D01*
X116798670Y-88028562D01*
X117043117Y-87840991D01*
X117260991Y-87623117D01*
X117448562Y-87378670D01*
X117602622Y-87111830D01*
X117720535Y-86827164D01*
X117800282Y-86529544D01*
X117840500Y-86224060D01*
X117840500Y-85915940D01*
X117800282Y-85610456D01*
X117720535Y-85312836D01*
X117602622Y-85028170D01*
X117533626Y-84908667D01*
X117520905Y-84848821D01*
X117545791Y-84792925D01*
X117549339Y-84789184D01*
X119185510Y-83153015D01*
X119257984Y-83027485D01*
X119262533Y-83010509D01*
X119295500Y-82887475D01*
X119295500Y-66584033D01*
X119314407Y-66525842D01*
X119324496Y-66514029D01*
X123939029Y-61899496D01*
X123993546Y-61871719D01*
X124009033Y-61870500D01*
X129140989Y-61870500D01*
X129199180Y-61889407D01*
X129235144Y-61938907D01*
X129235144Y-62000093D01*
X129210993Y-62039504D01*
X129009993Y-62240504D01*
X128955476Y-62268281D01*
X128939989Y-62269500D01*
X124559525Y-62269500D01*
X124419515Y-62307016D01*
X124293985Y-62379490D01*
X119828487Y-66844988D01*
X119801073Y-66892473D01*
X119801073Y-66892474D01*
X119756016Y-66970513D01*
X119718500Y-67110525D01*
X119718500Y-88521967D01*
X119699593Y-88580158D01*
X119689504Y-88591971D01*
X116770835Y-91510639D01*
X116716318Y-91538416D01*
X116655886Y-91528845D01*
X116651331Y-91526372D01*
X116531825Y-91457375D01*
X116247163Y-91339464D01*
X116043881Y-91284995D01*
X115949544Y-91259718D01*
X115949541Y-91259717D01*
X115949539Y-91259717D01*
X115644060Y-91219500D01*
X115335940Y-91219500D01*
X115335939Y-91219500D01*
X115030463Y-91259717D01*
X115030458Y-91259717D01*
X114732836Y-91339464D01*
X114448174Y-91457375D01*
X114181326Y-91611440D01*
X113936889Y-91799003D01*
X113719003Y-92016889D01*
X113531440Y-92261326D01*
X113377375Y-92528174D01*
X113259464Y-92812836D01*
X113179717Y-93110458D01*
X113179717Y-93110463D01*
X113139500Y-93415939D01*
X113139500Y-93724060D01*
X113179717Y-94029536D01*
X113179717Y-94029541D01*
X113259464Y-94327163D01*
X113377375Y-94611825D01*
X113377378Y-94611830D01*
X113516568Y-94852915D01*
X113531440Y-94878673D01*
X113719003Y-95123110D01*
X113719005Y-95123112D01*
X113719009Y-95123117D01*
X113936883Y-95340991D01*
X113936887Y-95340994D01*
X113936889Y-95340996D01*
X114072198Y-95444822D01*
X114181330Y-95528562D01*
X114448170Y-95682622D01*
X114448171Y-95682622D01*
X114448174Y-95682624D01*
X114502593Y-95705165D01*
X114732836Y-95800535D01*
X115030456Y-95880282D01*
X115335940Y-95920500D01*
X115335941Y-95920500D01*
X115644059Y-95920500D01*
X115644060Y-95920500D01*
X115949544Y-95880282D01*
X116247164Y-95800535D01*
X116531830Y-95682622D01*
X116798670Y-95528562D01*
X117043117Y-95340991D01*
X117260991Y-95123117D01*
X117448562Y-94878670D01*
X117602622Y-94611830D01*
X117720535Y-94327164D01*
X117800282Y-94029544D01*
X117840500Y-93724060D01*
X117840500Y-93422525D01*
X120740000Y-93422525D01*
X120740000Y-93717474D01*
X120778498Y-94009895D01*
X120854834Y-94294789D01*
X120967706Y-94567286D01*
X121115177Y-94822712D01*
X121294725Y-95056704D01*
X121328299Y-95090278D01*
X121858628Y-94559948D01*
X122000050Y-94701370D01*
X121469721Y-95231700D01*
X121503295Y-95265274D01*
X121737287Y-95444822D01*
X121992713Y-95592293D01*
X122265210Y-95705165D01*
X122550104Y-95781501D01*
X122842525Y-95819999D01*
X122842528Y-95820000D01*
X123137472Y-95820000D01*
X123137474Y-95819999D01*
X123429895Y-95781501D01*
X123714789Y-95705165D01*
X123987286Y-95592293D01*
X124242712Y-95444822D01*
X124476706Y-95265272D01*
X124476709Y-95265270D01*
X124510278Y-95231700D01*
X123979949Y-94701371D01*
X124121371Y-94559949D01*
X124651700Y-95090278D01*
X124685270Y-95056709D01*
X124685272Y-95056706D01*
X124864822Y-94822712D01*
X125012293Y-94567286D01*
X125125165Y-94294789D01*
X125201501Y-94009895D01*
X125239999Y-93717474D01*
X125240000Y-93717472D01*
X125240000Y-93422528D01*
X125239999Y-93422525D01*
X125201501Y-93130104D01*
X125125165Y-92845210D01*
X125012293Y-92572713D01*
X124864822Y-92317287D01*
X124685274Y-92083295D01*
X124651700Y-92049721D01*
X124121370Y-92580050D01*
X123979948Y-92438628D01*
X124510278Y-91908299D01*
X124476704Y-91874725D01*
X124242712Y-91695177D01*
X123987286Y-91547706D01*
X123714789Y-91434834D01*
X123429895Y-91358498D01*
X123137474Y-91320000D01*
X122842525Y-91320000D01*
X122550104Y-91358498D01*
X122265210Y-91434834D01*
X121992713Y-91547706D01*
X121737291Y-91695174D01*
X121503284Y-91874735D01*
X121469720Y-91908298D01*
X122000051Y-92438629D01*
X121858629Y-92580051D01*
X121328298Y-92049720D01*
X121294735Y-92083284D01*
X121115174Y-92317291D01*
X120967706Y-92572713D01*
X120854834Y-92845210D01*
X120778498Y-93130104D01*
X120740000Y-93422525D01*
X117840500Y-93422525D01*
X117840500Y-93415940D01*
X117800282Y-93110456D01*
X117720535Y-92812836D01*
X117602622Y-92528170D01*
X117602621Y-92528168D01*
X117533627Y-92408667D01*
X117520905Y-92348819D01*
X117545792Y-92292923D01*
X117549340Y-92289182D01*
X120709510Y-89129014D01*
X120781984Y-89003485D01*
X120819500Y-88863474D01*
X120819500Y-88718526D01*
X120819500Y-87180057D01*
X120838407Y-87121866D01*
X120887907Y-87085902D01*
X120949093Y-87085902D01*
X120998593Y-87121866D01*
X121004237Y-87130557D01*
X121115181Y-87322718D01*
X121294725Y-87556704D01*
X121328299Y-87590278D01*
X121858628Y-87059948D01*
X122000050Y-87201370D01*
X121469721Y-87731700D01*
X121503295Y-87765274D01*
X121737287Y-87944822D01*
X121992713Y-88092293D01*
X122265210Y-88205165D01*
X122550104Y-88281501D01*
X122842525Y-88319999D01*
X122842528Y-88320000D01*
X123137472Y-88320000D01*
X123137474Y-88319999D01*
X123429895Y-88281501D01*
X123714789Y-88205165D01*
X123987286Y-88092293D01*
X124242712Y-87944822D01*
X124476706Y-87765272D01*
X124476709Y-87765270D01*
X124510278Y-87731700D01*
X123979949Y-87201371D01*
X124121371Y-87059949D01*
X124651700Y-87590278D01*
X124685270Y-87556709D01*
X124685272Y-87556706D01*
X124864822Y-87322712D01*
X125012293Y-87067286D01*
X125125165Y-86794789D01*
X125201501Y-86509895D01*
X125239999Y-86217474D01*
X125240000Y-86217472D01*
X125240000Y-85922528D01*
X125239999Y-85922525D01*
X125201501Y-85630104D01*
X125125165Y-85345210D01*
X125012293Y-85072713D01*
X124864822Y-84817287D01*
X124685274Y-84583295D01*
X124651700Y-84549721D01*
X124121370Y-85080050D01*
X123979948Y-84938628D01*
X124510278Y-84408299D01*
X124476704Y-84374725D01*
X124242712Y-84195177D01*
X123987286Y-84047706D01*
X123714789Y-83934834D01*
X123429895Y-83858498D01*
X123137474Y-83820000D01*
X122842525Y-83820000D01*
X122550104Y-83858498D01*
X122265210Y-83934834D01*
X121992713Y-84047706D01*
X121737291Y-84195174D01*
X121503284Y-84374735D01*
X121469720Y-84408298D01*
X122000051Y-84938629D01*
X121858629Y-85080051D01*
X121328298Y-84549720D01*
X121294735Y-84583284D01*
X121115174Y-84817291D01*
X121004236Y-85009442D01*
X120958767Y-85050383D01*
X120897917Y-85056779D01*
X120844929Y-85026186D01*
X120820042Y-84970290D01*
X120819500Y-84959942D01*
X120819500Y-79680057D01*
X120838407Y-79621866D01*
X120887907Y-79585902D01*
X120949093Y-79585902D01*
X120998593Y-79621866D01*
X121004237Y-79630557D01*
X121115181Y-79822718D01*
X121294725Y-80056704D01*
X121328299Y-80090278D01*
X121858628Y-79559948D01*
X122000050Y-79701370D01*
X121469721Y-80231700D01*
X121503295Y-80265274D01*
X121737287Y-80444822D01*
X121992713Y-80592293D01*
X122265210Y-80705165D01*
X122550104Y-80781501D01*
X122842525Y-80819999D01*
X122842528Y-80820000D01*
X123137472Y-80820000D01*
X123137474Y-80819999D01*
X123429895Y-80781501D01*
X123714789Y-80705165D01*
X123987286Y-80592293D01*
X124242712Y-80444822D01*
X124476706Y-80265272D01*
X124476709Y-80265270D01*
X124510278Y-80231700D01*
X123979949Y-79701371D01*
X124121371Y-79559949D01*
X124651700Y-80090278D01*
X124685270Y-80056709D01*
X124685272Y-80056706D01*
X124864822Y-79822712D01*
X125012293Y-79567286D01*
X125125165Y-79294789D01*
X125201501Y-79009895D01*
X125239999Y-78717474D01*
X125240000Y-78717472D01*
X125240000Y-78422528D01*
X125239999Y-78422525D01*
X125201501Y-78130104D01*
X125125165Y-77845210D01*
X125012293Y-77572713D01*
X124864822Y-77317287D01*
X124685274Y-77083295D01*
X124651700Y-77049721D01*
X124121370Y-77580050D01*
X123979948Y-77438628D01*
X124510278Y-76908299D01*
X124476704Y-76874725D01*
X124242712Y-76695177D01*
X123987286Y-76547706D01*
X123714789Y-76434834D01*
X123429895Y-76358498D01*
X123137474Y-76320000D01*
X122842525Y-76320000D01*
X122550104Y-76358498D01*
X122265210Y-76434834D01*
X121992713Y-76547706D01*
X121737291Y-76695174D01*
X121503284Y-76874735D01*
X121469720Y-76908298D01*
X122000051Y-77438629D01*
X121858629Y-77580051D01*
X121328298Y-77049720D01*
X121294735Y-77083284D01*
X121115174Y-77317291D01*
X121004236Y-77509442D01*
X120958767Y-77550383D01*
X120897917Y-77556779D01*
X120844929Y-77526186D01*
X120820042Y-77470290D01*
X120819500Y-77459942D01*
X120819500Y-72180057D01*
X120838407Y-72121866D01*
X120887907Y-72085902D01*
X120949093Y-72085902D01*
X120998593Y-72121866D01*
X121004237Y-72130557D01*
X121115181Y-72322718D01*
X121294725Y-72556704D01*
X121328299Y-72590278D01*
X121858628Y-72059948D01*
X122000050Y-72201370D01*
X121469721Y-72731700D01*
X121503295Y-72765274D01*
X121737287Y-72944822D01*
X121992713Y-73092293D01*
X122265210Y-73205165D01*
X122550104Y-73281501D01*
X122842525Y-73319999D01*
X122842528Y-73320000D01*
X123137472Y-73320000D01*
X123137474Y-73319999D01*
X123429895Y-73281501D01*
X123714789Y-73205165D01*
X123987286Y-73092293D01*
X124242712Y-72944822D01*
X124476706Y-72765272D01*
X124476709Y-72765270D01*
X124510278Y-72731700D01*
X123979949Y-72201371D01*
X124121371Y-72059949D01*
X124651700Y-72590278D01*
X124685270Y-72556709D01*
X124685272Y-72556706D01*
X124864822Y-72322712D01*
X125012293Y-72067286D01*
X125125165Y-71794789D01*
X125201501Y-71509895D01*
X125239999Y-71217474D01*
X125240000Y-71217472D01*
X125240000Y-70922528D01*
X125239999Y-70922525D01*
X125201501Y-70630104D01*
X125125165Y-70345210D01*
X125012293Y-70072713D01*
X124864822Y-69817287D01*
X124685274Y-69583295D01*
X124651700Y-69549721D01*
X124121370Y-70080050D01*
X123979948Y-69938628D01*
X124510278Y-69408299D01*
X124476704Y-69374725D01*
X124242712Y-69195177D01*
X123987286Y-69047706D01*
X123714789Y-68934834D01*
X123429895Y-68858498D01*
X123137474Y-68820000D01*
X122842525Y-68820000D01*
X122550104Y-68858498D01*
X122265210Y-68934834D01*
X121992713Y-69047706D01*
X121737291Y-69195174D01*
X121503284Y-69374735D01*
X121469720Y-69408298D01*
X122000051Y-69938629D01*
X121858629Y-70080051D01*
X121328298Y-69549720D01*
X121294735Y-69583284D01*
X121115174Y-69817291D01*
X121004236Y-70009442D01*
X120958767Y-70050383D01*
X120897917Y-70056779D01*
X120844929Y-70026186D01*
X120820042Y-69970290D01*
X120819500Y-69959942D01*
X120819500Y-67452033D01*
X120838407Y-67393842D01*
X120848496Y-67382029D01*
X124831029Y-63399496D01*
X124885546Y-63371719D01*
X124901033Y-63370500D01*
X129281496Y-63370500D01*
X129281497Y-63370500D01*
X129421507Y-63332984D01*
X129446594Y-63318500D01*
X129547037Y-63260510D01*
X132012510Y-60795036D01*
X132084984Y-60669507D01*
X132084985Y-60669501D01*
X132087466Y-60663515D01*
X132088700Y-60664026D01*
X132118196Y-60618606D01*
X132175317Y-60596678D01*
X132234418Y-60612513D01*
X132272924Y-60660062D01*
X132279500Y-60695542D01*
X132279500Y-63623967D01*
X132260593Y-63682158D01*
X132250504Y-63693971D01*
X130049487Y-65894988D01*
X130034480Y-65920983D01*
X129977016Y-66020513D01*
X129939500Y-66160525D01*
X129939500Y-68708123D01*
X129920593Y-68766314D01*
X129871093Y-68802278D01*
X129866124Y-68803749D01*
X129732841Y-68839462D01*
X129448174Y-68957375D01*
X129181326Y-69111440D01*
X128936889Y-69299003D01*
X128719003Y-69516889D01*
X128531440Y-69761326D01*
X128377375Y-70028174D01*
X128259464Y-70312836D01*
X128179717Y-70610458D01*
X128179717Y-70610463D01*
X128139500Y-70915939D01*
X128139500Y-71224060D01*
X128179717Y-71529536D01*
X128179717Y-71529541D01*
X128259464Y-71827163D01*
X128377375Y-72111825D01*
X128388190Y-72130557D01*
X128516568Y-72352915D01*
X128531440Y-72378673D01*
X128719003Y-72623110D01*
X128719005Y-72623112D01*
X128719009Y-72623117D01*
X128936883Y-72840991D01*
X128936887Y-72840994D01*
X128936889Y-72840996D01*
X129072198Y-72944822D01*
X129181330Y-73028562D01*
X129448170Y-73182622D01*
X129448171Y-73182622D01*
X129448174Y-73182624D01*
X129502593Y-73205165D01*
X129732836Y-73300535D01*
X130030456Y-73380282D01*
X130335940Y-73420500D01*
X130335941Y-73420500D01*
X130644059Y-73420500D01*
X130644060Y-73420500D01*
X130949544Y-73380282D01*
X131247164Y-73300535D01*
X131531830Y-73182622D01*
X131798670Y-73028562D01*
X132043117Y-72840991D01*
X132260991Y-72623117D01*
X132448562Y-72378670D01*
X132504764Y-72281325D01*
X132550233Y-72240385D01*
X132611083Y-72233989D01*
X132664071Y-72264582D01*
X132688958Y-72320478D01*
X132689500Y-72330826D01*
X132689500Y-75550966D01*
X132670593Y-75609157D01*
X132660504Y-75620970D01*
X131770834Y-76510639D01*
X131716317Y-76538416D01*
X131655885Y-76528845D01*
X131651342Y-76526378D01*
X131531830Y-76457378D01*
X131531828Y-76457377D01*
X131531825Y-76457375D01*
X131247163Y-76339464D01*
X131043881Y-76284995D01*
X130949544Y-76259718D01*
X130949541Y-76259717D01*
X130949539Y-76259717D01*
X130644060Y-76219500D01*
X130335940Y-76219500D01*
X130335939Y-76219500D01*
X130030463Y-76259717D01*
X130030458Y-76259717D01*
X129732836Y-76339464D01*
X129448174Y-76457375D01*
X129181326Y-76611440D01*
X128936889Y-76799003D01*
X128719003Y-77016889D01*
X128531440Y-77261326D01*
X128377375Y-77528174D01*
X128259464Y-77812836D01*
X128179717Y-78110458D01*
X128179717Y-78110463D01*
X128139500Y-78415939D01*
X128139500Y-78724060D01*
X128179717Y-79029536D01*
X128179717Y-79029541D01*
X128259464Y-79327163D01*
X128377375Y-79611825D01*
X128388190Y-79630557D01*
X128516568Y-79852915D01*
X128531440Y-79878673D01*
X128719003Y-80123110D01*
X128719005Y-80123112D01*
X128719009Y-80123117D01*
X128936883Y-80340991D01*
X128936887Y-80340994D01*
X128936889Y-80340996D01*
X129072198Y-80444822D01*
X129181330Y-80528562D01*
X129448170Y-80682622D01*
X129448171Y-80682622D01*
X129448174Y-80682624D01*
X129502593Y-80705165D01*
X129732836Y-80800535D01*
X130030456Y-80880282D01*
X130335940Y-80920500D01*
X130335941Y-80920500D01*
X130644059Y-80920500D01*
X130644060Y-80920500D01*
X130949544Y-80880282D01*
X131247164Y-80800535D01*
X131531830Y-80682622D01*
X131798670Y-80528562D01*
X132043117Y-80340991D01*
X132260991Y-80123117D01*
X132448562Y-79878670D01*
X132602622Y-79611830D01*
X132720535Y-79327164D01*
X132800282Y-79029544D01*
X132840500Y-78724060D01*
X132840500Y-78415940D01*
X132800282Y-78110456D01*
X132720535Y-77812836D01*
X132602622Y-77528170D01*
X132533626Y-77408667D01*
X132520905Y-77348821D01*
X132545791Y-77292925D01*
X132549339Y-77289184D01*
X133520497Y-76318027D01*
X133575013Y-76290251D01*
X133635445Y-76299822D01*
X133678710Y-76343087D01*
X133689500Y-76388032D01*
X133689500Y-79050967D01*
X133670593Y-79109158D01*
X133660504Y-79120971D01*
X130049490Y-82731985D01*
X129977016Y-82857515D01*
X129939500Y-82997525D01*
X129939500Y-83708123D01*
X129920593Y-83766314D01*
X129871093Y-83802278D01*
X129866124Y-83803749D01*
X129732841Y-83839462D01*
X129448174Y-83957375D01*
X129181326Y-84111440D01*
X128936889Y-84299003D01*
X128719003Y-84516889D01*
X128531440Y-84761326D01*
X128377375Y-85028174D01*
X128259464Y-85312836D01*
X128179717Y-85610458D01*
X128179717Y-85610463D01*
X128139500Y-85915939D01*
X128139500Y-86224060D01*
X128179717Y-86529536D01*
X128179717Y-86529541D01*
X128259464Y-86827163D01*
X128377375Y-87111825D01*
X128388190Y-87130557D01*
X128516568Y-87352915D01*
X128531440Y-87378673D01*
X128719003Y-87623110D01*
X128719005Y-87623112D01*
X128719009Y-87623117D01*
X128936883Y-87840991D01*
X128936887Y-87840994D01*
X128936889Y-87840996D01*
X129072198Y-87944822D01*
X129181330Y-88028562D01*
X129448170Y-88182622D01*
X129448171Y-88182622D01*
X129448174Y-88182624D01*
X129502593Y-88205165D01*
X129732836Y-88300535D01*
X130030456Y-88380282D01*
X130335940Y-88420500D01*
X130335941Y-88420500D01*
X130644059Y-88420500D01*
X130644060Y-88420500D01*
X130949544Y-88380282D01*
X131247164Y-88300535D01*
X131531830Y-88182622D01*
X131798670Y-88028562D01*
X132043117Y-87840991D01*
X132260991Y-87623117D01*
X132448562Y-87378670D01*
X132602622Y-87111830D01*
X132720535Y-86827164D01*
X132800282Y-86529544D01*
X132840500Y-86224060D01*
X132840500Y-85915940D01*
X132800282Y-85610456D01*
X132720535Y-85312836D01*
X132702123Y-85268385D01*
X132602624Y-85028174D01*
X132602621Y-85028168D01*
X132448562Y-84761330D01*
X132448559Y-84761326D01*
X132260996Y-84516889D01*
X132260994Y-84516887D01*
X132260991Y-84516883D01*
X132043117Y-84299009D01*
X132043112Y-84299005D01*
X132043110Y-84299003D01*
X131798673Y-84111440D01*
X131655614Y-84028845D01*
X131531830Y-83957378D01*
X131531828Y-83957377D01*
X131531825Y-83957375D01*
X131247157Y-83839462D01*
X131247158Y-83839462D01*
X131113876Y-83803749D01*
X131062562Y-83770425D01*
X131040636Y-83713304D01*
X131040500Y-83708123D01*
X131040500Y-83339032D01*
X131059407Y-83280841D01*
X131069490Y-83269034D01*
X134520498Y-79818026D01*
X134575013Y-79790251D01*
X134635445Y-79799822D01*
X134678710Y-79843087D01*
X134689500Y-79888032D01*
X134689500Y-88550966D01*
X134670593Y-88609157D01*
X134660504Y-88620970D01*
X131770834Y-91510639D01*
X131716317Y-91538416D01*
X131655885Y-91528845D01*
X131651342Y-91526378D01*
X131531830Y-91457378D01*
X131531828Y-91457377D01*
X131531825Y-91457375D01*
X131247163Y-91339464D01*
X131043881Y-91284995D01*
X130949544Y-91259718D01*
X130949541Y-91259717D01*
X130949539Y-91259717D01*
X130644060Y-91219500D01*
X130335940Y-91219500D01*
X130335939Y-91219500D01*
X130030463Y-91259717D01*
X130030458Y-91259717D01*
X129732836Y-91339464D01*
X129448174Y-91457375D01*
X129181326Y-91611440D01*
X128936889Y-91799003D01*
X128719003Y-92016889D01*
X128531440Y-92261326D01*
X128377375Y-92528174D01*
X128259464Y-92812836D01*
X128179717Y-93110458D01*
X128179717Y-93110463D01*
X128139500Y-93415939D01*
X128139500Y-93724060D01*
X128179717Y-94029536D01*
X128179717Y-94029541D01*
X128259464Y-94327163D01*
X128377375Y-94611825D01*
X128377378Y-94611830D01*
X128516568Y-94852915D01*
X128531440Y-94878673D01*
X128719003Y-95123110D01*
X128719005Y-95123112D01*
X128719009Y-95123117D01*
X128936883Y-95340991D01*
X128936887Y-95340994D01*
X128936889Y-95340996D01*
X129072198Y-95444822D01*
X129181330Y-95528562D01*
X129448170Y-95682622D01*
X129448171Y-95682622D01*
X129448174Y-95682624D01*
X129502593Y-95705165D01*
X129732836Y-95800535D01*
X130030456Y-95880282D01*
X130335940Y-95920500D01*
X130335941Y-95920500D01*
X130644059Y-95920500D01*
X130644060Y-95920500D01*
X130949544Y-95880282D01*
X131247164Y-95800535D01*
X131531830Y-95682622D01*
X131798670Y-95528562D01*
X132043117Y-95340991D01*
X132260991Y-95123117D01*
X132448562Y-94878670D01*
X132602622Y-94611830D01*
X132720535Y-94327164D01*
X132800282Y-94029544D01*
X132840500Y-93724060D01*
X132840500Y-93422525D01*
X135740000Y-93422525D01*
X135740000Y-93717474D01*
X135778498Y-94009895D01*
X135854834Y-94294789D01*
X135967706Y-94567286D01*
X136115177Y-94822712D01*
X136294725Y-95056704D01*
X136328299Y-95090278D01*
X136858628Y-94559948D01*
X137000050Y-94701370D01*
X136469721Y-95231700D01*
X136503295Y-95265274D01*
X136737287Y-95444822D01*
X136992713Y-95592293D01*
X137265210Y-95705165D01*
X137550104Y-95781501D01*
X137842525Y-95819999D01*
X137842528Y-95820000D01*
X138137472Y-95820000D01*
X138137474Y-95819999D01*
X138429895Y-95781501D01*
X138714789Y-95705165D01*
X138987286Y-95592293D01*
X139242712Y-95444822D01*
X139476706Y-95265272D01*
X139476709Y-95265270D01*
X139510278Y-95231700D01*
X138979949Y-94701371D01*
X139121371Y-94559949D01*
X139651700Y-95090278D01*
X139685270Y-95056709D01*
X139685272Y-95056706D01*
X139864822Y-94822712D01*
X140012293Y-94567286D01*
X140125165Y-94294789D01*
X140201501Y-94009895D01*
X140239999Y-93717474D01*
X140240000Y-93717472D01*
X140240000Y-93422528D01*
X140239999Y-93422525D01*
X140201501Y-93130104D01*
X140125165Y-92845210D01*
X140012293Y-92572713D01*
X139864822Y-92317287D01*
X139685274Y-92083295D01*
X139651700Y-92049721D01*
X139121370Y-92580050D01*
X138979948Y-92438628D01*
X139510278Y-91908299D01*
X139476704Y-91874725D01*
X139242712Y-91695177D01*
X138987286Y-91547706D01*
X138714789Y-91434834D01*
X138429895Y-91358498D01*
X138137474Y-91320000D01*
X137842525Y-91320000D01*
X137550104Y-91358498D01*
X137265210Y-91434834D01*
X136992713Y-91547706D01*
X136737291Y-91695174D01*
X136503284Y-91874735D01*
X136469720Y-91908298D01*
X137000051Y-92438629D01*
X136858629Y-92580051D01*
X136328298Y-92049720D01*
X136294735Y-92083284D01*
X136115174Y-92317291D01*
X135967706Y-92572713D01*
X135854834Y-92845210D01*
X135778498Y-93130104D01*
X135740000Y-93422525D01*
X132840500Y-93422525D01*
X132840500Y-93415940D01*
X132800282Y-93110456D01*
X132720535Y-92812836D01*
X132602622Y-92528170D01*
X132533626Y-92408667D01*
X132520905Y-92348821D01*
X132545791Y-92292925D01*
X132549340Y-92289183D01*
X135680510Y-89158015D01*
X135752984Y-89032485D01*
X135790500Y-88892475D01*
X135790500Y-87129827D01*
X135809407Y-87071636D01*
X135858907Y-87035672D01*
X135920093Y-87035672D01*
X135969593Y-87071636D01*
X135975237Y-87080327D01*
X136115181Y-87322718D01*
X136294725Y-87556704D01*
X136328299Y-87590278D01*
X136858628Y-87059948D01*
X137000050Y-87201370D01*
X136469721Y-87731700D01*
X136503295Y-87765274D01*
X136737287Y-87944822D01*
X136992713Y-88092293D01*
X137265210Y-88205165D01*
X137550104Y-88281501D01*
X137842525Y-88319999D01*
X137842528Y-88320000D01*
X138137472Y-88320000D01*
X138137474Y-88319999D01*
X138429895Y-88281501D01*
X138714789Y-88205165D01*
X138987286Y-88092293D01*
X139242712Y-87944822D01*
X139476706Y-87765272D01*
X139476709Y-87765270D01*
X139510278Y-87731700D01*
X138979949Y-87201371D01*
X139121371Y-87059949D01*
X139651700Y-87590278D01*
X139685270Y-87556709D01*
X139685272Y-87556706D01*
X139864822Y-87322712D01*
X140012293Y-87067286D01*
X140125165Y-86794789D01*
X140201501Y-86509895D01*
X140239999Y-86217474D01*
X140240000Y-86217472D01*
X140240000Y-85922528D01*
X140239999Y-85922525D01*
X140201501Y-85630104D01*
X140125165Y-85345210D01*
X140012293Y-85072713D01*
X139864822Y-84817287D01*
X139685274Y-84583295D01*
X139651700Y-84549721D01*
X139121370Y-85080050D01*
X138979948Y-84938628D01*
X139510278Y-84408299D01*
X139476704Y-84374725D01*
X139242712Y-84195177D01*
X138987286Y-84047706D01*
X138714789Y-83934834D01*
X138429895Y-83858498D01*
X138137474Y-83820000D01*
X137842525Y-83820000D01*
X137550104Y-83858498D01*
X137265210Y-83934834D01*
X136992713Y-84047706D01*
X136737291Y-84195174D01*
X136503284Y-84374735D01*
X136469720Y-84408298D01*
X137000051Y-84938629D01*
X136858629Y-85080051D01*
X136328298Y-84549720D01*
X136294735Y-84583284D01*
X136115174Y-84817291D01*
X135975236Y-85059672D01*
X135929767Y-85100613D01*
X135868917Y-85107009D01*
X135815929Y-85076416D01*
X135791042Y-85020520D01*
X135790500Y-85010172D01*
X135790500Y-79629827D01*
X135809407Y-79571636D01*
X135858907Y-79535672D01*
X135920093Y-79535672D01*
X135969593Y-79571636D01*
X135975237Y-79580327D01*
X136115181Y-79822718D01*
X136294725Y-80056704D01*
X136328299Y-80090278D01*
X136858628Y-79559948D01*
X137000050Y-79701370D01*
X136469721Y-80231700D01*
X136503295Y-80265274D01*
X136737287Y-80444822D01*
X136992713Y-80592293D01*
X137265210Y-80705165D01*
X137550104Y-80781501D01*
X137842525Y-80819999D01*
X137842528Y-80820000D01*
X138137472Y-80820000D01*
X138137474Y-80819999D01*
X138429895Y-80781501D01*
X138714789Y-80705165D01*
X138987286Y-80592293D01*
X139242712Y-80444822D01*
X139476706Y-80265272D01*
X139476709Y-80265270D01*
X139510278Y-80231700D01*
X138979949Y-79701371D01*
X139121371Y-79559949D01*
X139651700Y-80090278D01*
X139685270Y-80056709D01*
X139685272Y-80056706D01*
X139864822Y-79822712D01*
X140012293Y-79567286D01*
X140125165Y-79294789D01*
X140201501Y-79009895D01*
X140239999Y-78717474D01*
X140240000Y-78717472D01*
X140240000Y-78422528D01*
X140239999Y-78422525D01*
X140201501Y-78130104D01*
X140125165Y-77845210D01*
X140012293Y-77572713D01*
X139864822Y-77317287D01*
X139685274Y-77083295D01*
X139651700Y-77049721D01*
X139121370Y-77580050D01*
X138979948Y-77438628D01*
X139510278Y-76908299D01*
X139476704Y-76874725D01*
X139242712Y-76695177D01*
X138987286Y-76547706D01*
X138714789Y-76434834D01*
X138429895Y-76358498D01*
X138137474Y-76320000D01*
X137842525Y-76320000D01*
X137550104Y-76358498D01*
X137265210Y-76434834D01*
X136992713Y-76547706D01*
X136737291Y-76695174D01*
X136503284Y-76874735D01*
X136469720Y-76908298D01*
X137000051Y-77438629D01*
X136858629Y-77580051D01*
X136328298Y-77049720D01*
X136294735Y-77083284D01*
X136115174Y-77317291D01*
X135975236Y-77559672D01*
X135929767Y-77600613D01*
X135868917Y-77607009D01*
X135815929Y-77576416D01*
X135791042Y-77520520D01*
X135790500Y-77510172D01*
X135790500Y-72129827D01*
X135809407Y-72071636D01*
X135858907Y-72035672D01*
X135920093Y-72035672D01*
X135969593Y-72071636D01*
X135975237Y-72080327D01*
X136115181Y-72322718D01*
X136294725Y-72556704D01*
X136328299Y-72590278D01*
X136858628Y-72059948D01*
X137000050Y-72201370D01*
X136469721Y-72731700D01*
X136503295Y-72765274D01*
X136737287Y-72944822D01*
X136992713Y-73092293D01*
X137265210Y-73205165D01*
X137550104Y-73281501D01*
X137842525Y-73319999D01*
X137842528Y-73320000D01*
X138137472Y-73320000D01*
X138137474Y-73319999D01*
X138429895Y-73281501D01*
X138714789Y-73205165D01*
X138987286Y-73092293D01*
X139242712Y-72944822D01*
X139476706Y-72765272D01*
X139476709Y-72765270D01*
X139510278Y-72731700D01*
X138979949Y-72201371D01*
X139121371Y-72059949D01*
X139651700Y-72590278D01*
X139685270Y-72556709D01*
X139685272Y-72556706D01*
X139864822Y-72322712D01*
X140012293Y-72067286D01*
X140125165Y-71794789D01*
X140201501Y-71509895D01*
X140239999Y-71217474D01*
X140240000Y-71217472D01*
X140240000Y-70922528D01*
X140239999Y-70922525D01*
X140201501Y-70630104D01*
X140125165Y-70345210D01*
X140012293Y-70072713D01*
X139864822Y-69817287D01*
X139685274Y-69583295D01*
X139651700Y-69549721D01*
X139121370Y-70080050D01*
X138979948Y-69938628D01*
X139510278Y-69408299D01*
X139476704Y-69374725D01*
X139242712Y-69195177D01*
X138987286Y-69047706D01*
X138714789Y-68934834D01*
X138429895Y-68858498D01*
X138137474Y-68820000D01*
X137842525Y-68820000D01*
X137550104Y-68858498D01*
X137265210Y-68934834D01*
X136992713Y-69047706D01*
X136737291Y-69195174D01*
X136503284Y-69374735D01*
X136469720Y-69408298D01*
X137000051Y-69938629D01*
X136858629Y-70080051D01*
X136328298Y-69549720D01*
X136294735Y-69583284D01*
X136115174Y-69817291D01*
X135975236Y-70059672D01*
X135929767Y-70100613D01*
X135868917Y-70107009D01*
X135815929Y-70076416D01*
X135791042Y-70020520D01*
X135790500Y-70010172D01*
X135790500Y-67089031D01*
X135809407Y-67030840D01*
X135819490Y-67019033D01*
X137092510Y-65746014D01*
X137164984Y-65620485D01*
X137187618Y-65536015D01*
X137202500Y-65480475D01*
X137202500Y-60388400D01*
X137221407Y-60330209D01*
X137270907Y-60294245D01*
X137301500Y-60289400D01*
X137821999Y-60289400D01*
X137822000Y-60289399D01*
X137822000Y-59825242D01*
X137856174Y-59834400D01*
X137987826Y-59834400D01*
X138022000Y-59825242D01*
X138022000Y-60289399D01*
X138022001Y-60289400D01*
X138542500Y-60289400D01*
X138600691Y-60308307D01*
X138636655Y-60357807D01*
X138641500Y-60388400D01*
X138641500Y-66344474D01*
X138657990Y-66406016D01*
X138657989Y-66406016D01*
X138679014Y-66484481D01*
X138679014Y-66484482D01*
X138679016Y-66484485D01*
X138751490Y-66610015D01*
X141660505Y-69519030D01*
X141688281Y-69573545D01*
X141689500Y-69589032D01*
X141689500Y-74247526D01*
X141689500Y-74392474D01*
X141727016Y-74532485D01*
X141799490Y-74658015D01*
X143283919Y-76142443D01*
X144430639Y-77289163D01*
X144458416Y-77343680D01*
X144448845Y-77404112D01*
X144446372Y-77408666D01*
X144377377Y-77528170D01*
X144259464Y-77812836D01*
X144179717Y-78110458D01*
X144179717Y-78110463D01*
X144139500Y-78415939D01*
X144139500Y-78724060D01*
X144179717Y-79029536D01*
X144179717Y-79029541D01*
X144259464Y-79327163D01*
X144377375Y-79611825D01*
X144388190Y-79630557D01*
X144516568Y-79852915D01*
X144531440Y-79878673D01*
X144719003Y-80123110D01*
X144719005Y-80123112D01*
X144719009Y-80123117D01*
X144936883Y-80340991D01*
X144936887Y-80340994D01*
X144936889Y-80340996D01*
X145072198Y-80444822D01*
X145181330Y-80528562D01*
X145448170Y-80682622D01*
X145448171Y-80682622D01*
X145448174Y-80682624D01*
X145502593Y-80705165D01*
X145732836Y-80800535D01*
X146030456Y-80880282D01*
X146335940Y-80920500D01*
X146335941Y-80920500D01*
X146644059Y-80920500D01*
X146644060Y-80920500D01*
X146949544Y-80880282D01*
X147247164Y-80800535D01*
X147531830Y-80682622D01*
X147798670Y-80528562D01*
X148043117Y-80340991D01*
X148260991Y-80123117D01*
X148448562Y-79878670D01*
X148602622Y-79611830D01*
X148720535Y-79327164D01*
X148800282Y-79029544D01*
X148840500Y-78724060D01*
X148840500Y-78415940D01*
X148800282Y-78110456D01*
X148720535Y-77812836D01*
X148702123Y-77768385D01*
X148602624Y-77528174D01*
X148602621Y-77528168D01*
X148448562Y-77261330D01*
X148448559Y-77261326D01*
X148260996Y-77016889D01*
X148260994Y-77016887D01*
X148260991Y-77016883D01*
X148043117Y-76799009D01*
X148043112Y-76799005D01*
X148043110Y-76799003D01*
X147798673Y-76611440D01*
X147655614Y-76528845D01*
X147531830Y-76457378D01*
X147531828Y-76457377D01*
X147531825Y-76457375D01*
X147247163Y-76339464D01*
X147043881Y-76284995D01*
X146949544Y-76259718D01*
X146949541Y-76259717D01*
X146949539Y-76259717D01*
X146644060Y-76219500D01*
X146335940Y-76219500D01*
X146335939Y-76219500D01*
X146030463Y-76259717D01*
X146030458Y-76259717D01*
X145732836Y-76339464D01*
X145448170Y-76457377D01*
X145328666Y-76526372D01*
X145268818Y-76539093D01*
X145212922Y-76514206D01*
X145209163Y-76510639D01*
X142819496Y-74120971D01*
X142791719Y-74066454D01*
X142790500Y-74050967D01*
X142790500Y-69247525D01*
X142776472Y-69195174D01*
X142752984Y-69107515D01*
X142738271Y-69082032D01*
X142705624Y-69025485D01*
X142680510Y-68981985D01*
X139771496Y-66072971D01*
X139743719Y-66018454D01*
X139742500Y-66002967D01*
X139742500Y-62964520D01*
X139761407Y-62906329D01*
X139810907Y-62870365D01*
X139872093Y-62870365D01*
X139921593Y-62906329D01*
X139934146Y-62932650D01*
X139934533Y-62932490D01*
X139937014Y-62938482D01*
X139937016Y-62938485D01*
X140009490Y-63064015D01*
X142840460Y-65894985D01*
X145664911Y-68719436D01*
X145692688Y-68773953D01*
X145683117Y-68834385D01*
X145639852Y-68877650D01*
X145632793Y-68880904D01*
X145448174Y-68957375D01*
X145181326Y-69111440D01*
X144936889Y-69299003D01*
X144719003Y-69516889D01*
X144531440Y-69761326D01*
X144377375Y-70028174D01*
X144259464Y-70312836D01*
X144179717Y-70610458D01*
X144179717Y-70610463D01*
X144139500Y-70915939D01*
X144139500Y-71224060D01*
X144179717Y-71529536D01*
X144179717Y-71529541D01*
X144259464Y-71827163D01*
X144377375Y-72111825D01*
X144388190Y-72130557D01*
X144516568Y-72352915D01*
X144531440Y-72378673D01*
X144719003Y-72623110D01*
X144719005Y-72623112D01*
X144719009Y-72623117D01*
X144936883Y-72840991D01*
X144936887Y-72840994D01*
X144936889Y-72840996D01*
X145072198Y-72944822D01*
X145181330Y-73028562D01*
X145448170Y-73182622D01*
X145448171Y-73182622D01*
X145448174Y-73182624D01*
X145502593Y-73205165D01*
X145732836Y-73300535D01*
X146030456Y-73380282D01*
X146335940Y-73420500D01*
X146335941Y-73420500D01*
X146644059Y-73420500D01*
X146644060Y-73420500D01*
X146949544Y-73380282D01*
X147247164Y-73300535D01*
X147531830Y-73182622D01*
X147798670Y-73028562D01*
X148043117Y-72840991D01*
X148260991Y-72623117D01*
X148448562Y-72378670D01*
X148602622Y-72111830D01*
X148720535Y-71827164D01*
X148800282Y-71529544D01*
X148840500Y-71224060D01*
X148840500Y-70915940D01*
X148800282Y-70610456D01*
X148720535Y-70312836D01*
X148689500Y-70237911D01*
X148602624Y-70028174D01*
X148602622Y-70028170D01*
X148448562Y-69761330D01*
X148448559Y-69761326D01*
X148260996Y-69516889D01*
X148260994Y-69516887D01*
X148260991Y-69516883D01*
X148043117Y-69299009D01*
X148043112Y-69299005D01*
X148043110Y-69299003D01*
X147798673Y-69111440D01*
X147791871Y-69107513D01*
X147531830Y-68957378D01*
X147531825Y-68957375D01*
X147247157Y-68839462D01*
X147247158Y-68839462D01*
X147113876Y-68803749D01*
X147062562Y-68770425D01*
X147040636Y-68713304D01*
X147040500Y-68708123D01*
X147040500Y-68693525D01*
X147002984Y-68553515D01*
X146957645Y-68474985D01*
X146930510Y-68427985D01*
X141029496Y-62526971D01*
X141001719Y-62472454D01*
X141000500Y-62456967D01*
X141000500Y-60488900D01*
X141019407Y-60430709D01*
X141068907Y-60394745D01*
X141099500Y-60389900D01*
X141212005Y-60389900D01*
X141226094Y-60389248D01*
X141240188Y-60388597D01*
X141348173Y-60357872D01*
X141437767Y-60290214D01*
X141496870Y-60194759D01*
X141517500Y-60084400D01*
X141517500Y-58584400D01*
X141516197Y-58556212D01*
X141485472Y-58448227D01*
X141417814Y-58358633D01*
X141385445Y-58338591D01*
X141322358Y-58299529D01*
X141212000Y-58278900D01*
X139988633Y-58278900D01*
X139930442Y-58259993D01*
X139894478Y-58210493D01*
X139894478Y-58149307D01*
X139918629Y-58109896D01*
X140149629Y-57878896D01*
X140204146Y-57851119D01*
X140219633Y-57849900D01*
X141212005Y-57849900D01*
X141226094Y-57849248D01*
X141240188Y-57848597D01*
X141348173Y-57817872D01*
X141437767Y-57750214D01*
X141496870Y-57654759D01*
X141517500Y-57544400D01*
X141517500Y-56044400D01*
X141517500Y-56044399D01*
X141946500Y-56044399D01*
X141946500Y-57544404D01*
X141947802Y-57572583D01*
X141947803Y-57572587D01*
X141978528Y-57680573D01*
X142030503Y-57749400D01*
X142046186Y-57770167D01*
X142141641Y-57829270D01*
X142252000Y-57849900D01*
X143220367Y-57849900D01*
X143278558Y-57868807D01*
X143290371Y-57878896D01*
X143521371Y-58109896D01*
X143549148Y-58164413D01*
X143539577Y-58224845D01*
X143496312Y-58268110D01*
X143451367Y-58278900D01*
X142251995Y-58278900D01*
X142223816Y-58280202D01*
X142223812Y-58280203D01*
X142115826Y-58310928D01*
X142026233Y-58378585D01*
X142026231Y-58378588D01*
X141967129Y-58474041D01*
X141946500Y-58584399D01*
X141946500Y-60084404D01*
X141947802Y-60112583D01*
X141947803Y-60112587D01*
X141978528Y-60220573D01*
X142030503Y-60289400D01*
X142046186Y-60310167D01*
X142141641Y-60369270D01*
X142252000Y-60389900D01*
X142340500Y-60389900D01*
X142398691Y-60408807D01*
X142434655Y-60458307D01*
X142439500Y-60488900D01*
X142439500Y-61997525D01*
X142439500Y-61997526D01*
X142439500Y-62142474D01*
X142477016Y-62282485D01*
X142549490Y-62408015D01*
X149153505Y-69012030D01*
X149181281Y-69066545D01*
X149182500Y-69082032D01*
X149182500Y-82557967D01*
X149163593Y-82616158D01*
X149153504Y-82627971D01*
X147770835Y-84010639D01*
X147716318Y-84038416D01*
X147655886Y-84028845D01*
X147651331Y-84026372D01*
X147531825Y-83957375D01*
X147247163Y-83839464D01*
X147040498Y-83784089D01*
X146949544Y-83759718D01*
X146949541Y-83759717D01*
X146949539Y-83759717D01*
X146644060Y-83719500D01*
X146335940Y-83719500D01*
X146335939Y-83719500D01*
X146030463Y-83759717D01*
X146030458Y-83759717D01*
X145732836Y-83839464D01*
X145448174Y-83957375D01*
X145181326Y-84111440D01*
X144936889Y-84299003D01*
X144719003Y-84516889D01*
X144531440Y-84761326D01*
X144377375Y-85028174D01*
X144259464Y-85312836D01*
X144179717Y-85610458D01*
X144179717Y-85610463D01*
X144139500Y-85915939D01*
X144139500Y-86224060D01*
X144179717Y-86529536D01*
X144179717Y-86529541D01*
X144259464Y-86827163D01*
X144377375Y-87111825D01*
X144388190Y-87130557D01*
X144516568Y-87352915D01*
X144531440Y-87378673D01*
X144719003Y-87623110D01*
X144719005Y-87623112D01*
X144719009Y-87623117D01*
X144936883Y-87840991D01*
X144936887Y-87840994D01*
X144936889Y-87840996D01*
X145072198Y-87944822D01*
X145181330Y-88028562D01*
X145448170Y-88182622D01*
X145448171Y-88182622D01*
X145448174Y-88182624D01*
X145502593Y-88205165D01*
X145732836Y-88300535D01*
X146030456Y-88380282D01*
X146335940Y-88420500D01*
X146335941Y-88420500D01*
X146644059Y-88420500D01*
X146644060Y-88420500D01*
X146949544Y-88380282D01*
X147247164Y-88300535D01*
X147531830Y-88182622D01*
X147798670Y-88028562D01*
X148043117Y-87840991D01*
X148260991Y-87623117D01*
X148448562Y-87378670D01*
X148602622Y-87111830D01*
X148720535Y-86827164D01*
X148800282Y-86529544D01*
X148840500Y-86224060D01*
X148840500Y-85915940D01*
X148800282Y-85610456D01*
X148720535Y-85312836D01*
X148602622Y-85028170D01*
X148592231Y-85010172D01*
X148533627Y-84908667D01*
X148520905Y-84848819D01*
X148545792Y-84792923D01*
X148549339Y-84789183D01*
X150173510Y-83165014D01*
X150245984Y-83039485D01*
X150249200Y-83027484D01*
X150257227Y-82997526D01*
X150270363Y-82948500D01*
X150283500Y-82899475D01*
X150283500Y-68740525D01*
X150245984Y-68600515D01*
X150173510Y-68474985D01*
X143569496Y-61870971D01*
X143541719Y-61816454D01*
X143540500Y-61800967D01*
X143540500Y-60600954D01*
X143559407Y-60542763D01*
X143608907Y-60506799D01*
X143670093Y-60506799D01*
X143719593Y-60542763D01*
X143735127Y-60575331D01*
X143751815Y-60637613D01*
X143757831Y-60660062D01*
X143759016Y-60664485D01*
X143831490Y-60790015D01*
X147254284Y-64212808D01*
X150550504Y-67509028D01*
X150578281Y-67563545D01*
X150579500Y-67579032D01*
X150579500Y-88660966D01*
X150560593Y-88719157D01*
X150550504Y-88730970D01*
X147770834Y-91510639D01*
X147716317Y-91538416D01*
X147655885Y-91528845D01*
X147651342Y-91526378D01*
X147531830Y-91457378D01*
X147531828Y-91457377D01*
X147531825Y-91457375D01*
X147247163Y-91339464D01*
X147043881Y-91284995D01*
X146949544Y-91259718D01*
X146949541Y-91259717D01*
X146949539Y-91259717D01*
X146644060Y-91219500D01*
X146335940Y-91219500D01*
X146335939Y-91219500D01*
X146030463Y-91259717D01*
X146030458Y-91259717D01*
X145732836Y-91339464D01*
X145448174Y-91457375D01*
X145181326Y-91611440D01*
X144936889Y-91799003D01*
X144719003Y-92016889D01*
X144531440Y-92261326D01*
X144377375Y-92528174D01*
X144259464Y-92812836D01*
X144179717Y-93110458D01*
X144179717Y-93110463D01*
X144139500Y-93415939D01*
X144139500Y-93724060D01*
X144179717Y-94029536D01*
X144179717Y-94029541D01*
X144259464Y-94327163D01*
X144377375Y-94611825D01*
X144377378Y-94611830D01*
X144516568Y-94852915D01*
X144531440Y-94878673D01*
X144719003Y-95123110D01*
X144719005Y-95123112D01*
X144719009Y-95123117D01*
X144936883Y-95340991D01*
X144936887Y-95340994D01*
X144936889Y-95340996D01*
X145072198Y-95444822D01*
X145181330Y-95528562D01*
X145448170Y-95682622D01*
X145448171Y-95682622D01*
X145448174Y-95682624D01*
X145502593Y-95705165D01*
X145732836Y-95800535D01*
X146030456Y-95880282D01*
X146335940Y-95920500D01*
X146335941Y-95920500D01*
X146644059Y-95920500D01*
X146644060Y-95920500D01*
X146949544Y-95880282D01*
X147247164Y-95800535D01*
X147531830Y-95682622D01*
X147798670Y-95528562D01*
X148043117Y-95340991D01*
X148260991Y-95123117D01*
X148448562Y-94878670D01*
X148602622Y-94611830D01*
X148720535Y-94327164D01*
X148800282Y-94029544D01*
X148840500Y-93724060D01*
X148840500Y-93422525D01*
X151740000Y-93422525D01*
X151740000Y-93717474D01*
X151778498Y-94009895D01*
X151854834Y-94294789D01*
X151967706Y-94567286D01*
X152115177Y-94822712D01*
X152294725Y-95056704D01*
X152328299Y-95090278D01*
X152858628Y-94559948D01*
X153000050Y-94701370D01*
X152469721Y-95231700D01*
X152503295Y-95265274D01*
X152737287Y-95444822D01*
X152992713Y-95592293D01*
X153265210Y-95705165D01*
X153550104Y-95781501D01*
X153842525Y-95819999D01*
X153842528Y-95820000D01*
X154137472Y-95820000D01*
X154137474Y-95819999D01*
X154429895Y-95781501D01*
X154714789Y-95705165D01*
X154987286Y-95592293D01*
X155242712Y-95444822D01*
X155476706Y-95265272D01*
X155476709Y-95265270D01*
X155510278Y-95231700D01*
X154979949Y-94701371D01*
X155121371Y-94559949D01*
X155651700Y-95090278D01*
X155685270Y-95056709D01*
X155685272Y-95056706D01*
X155864822Y-94822712D01*
X156012293Y-94567286D01*
X156125165Y-94294789D01*
X156201501Y-94009895D01*
X156239999Y-93717474D01*
X156240000Y-93717472D01*
X156240000Y-93422528D01*
X156239999Y-93422525D01*
X156201501Y-93130104D01*
X156125165Y-92845210D01*
X156012293Y-92572713D01*
X155864822Y-92317287D01*
X155685274Y-92083295D01*
X155651700Y-92049721D01*
X155121370Y-92580050D01*
X154979948Y-92438628D01*
X155510278Y-91908299D01*
X155476704Y-91874725D01*
X155242712Y-91695177D01*
X154987286Y-91547706D01*
X154714789Y-91434834D01*
X154429895Y-91358498D01*
X154137474Y-91320000D01*
X153842525Y-91320000D01*
X153550104Y-91358498D01*
X153265210Y-91434834D01*
X152992713Y-91547706D01*
X152737291Y-91695174D01*
X152503284Y-91874735D01*
X152469720Y-91908298D01*
X153000051Y-92438629D01*
X152858629Y-92580051D01*
X152328298Y-92049720D01*
X152294735Y-92083284D01*
X152115174Y-92317291D01*
X151967706Y-92572713D01*
X151854834Y-92845210D01*
X151778498Y-93130104D01*
X151740000Y-93422525D01*
X148840500Y-93422525D01*
X148840500Y-93415940D01*
X148800282Y-93110456D01*
X148720535Y-92812836D01*
X148602622Y-92528170D01*
X148533626Y-92408667D01*
X148520905Y-92348821D01*
X148545791Y-92292925D01*
X148549340Y-92289183D01*
X151570510Y-89268015D01*
X151642984Y-89142485D01*
X151680500Y-89002474D01*
X151680500Y-88857526D01*
X151680500Y-86871614D01*
X151699407Y-86813423D01*
X151748907Y-86777459D01*
X151810093Y-86777459D01*
X151859593Y-86813423D01*
X151870964Y-86833729D01*
X151967703Y-87067281D01*
X151967706Y-87067286D01*
X152115177Y-87322712D01*
X152294725Y-87556704D01*
X152328299Y-87590278D01*
X152858628Y-87059948D01*
X153000050Y-87201370D01*
X152469721Y-87731700D01*
X152503295Y-87765274D01*
X152737287Y-87944822D01*
X152992713Y-88092293D01*
X153265210Y-88205165D01*
X153550104Y-88281501D01*
X153842525Y-88319999D01*
X153842528Y-88320000D01*
X154137472Y-88320000D01*
X154137474Y-88319999D01*
X154429895Y-88281501D01*
X154714789Y-88205165D01*
X154987286Y-88092293D01*
X155242712Y-87944822D01*
X155476706Y-87765272D01*
X155476709Y-87765270D01*
X155510278Y-87731700D01*
X154979949Y-87201371D01*
X155121371Y-87059949D01*
X155651700Y-87590278D01*
X155685270Y-87556709D01*
X155685272Y-87556706D01*
X155864822Y-87322712D01*
X156012293Y-87067286D01*
X156125165Y-86794789D01*
X156201501Y-86509895D01*
X156239999Y-86217474D01*
X156240000Y-86217472D01*
X156240000Y-85922528D01*
X156239999Y-85922525D01*
X156201501Y-85630104D01*
X156125165Y-85345210D01*
X156012293Y-85072713D01*
X155864822Y-84817287D01*
X155685274Y-84583295D01*
X155651700Y-84549721D01*
X155121370Y-85080050D01*
X154979948Y-84938628D01*
X155510278Y-84408299D01*
X155476704Y-84374725D01*
X155242712Y-84195177D01*
X154987286Y-84047706D01*
X154714789Y-83934834D01*
X154429895Y-83858498D01*
X154137474Y-83820000D01*
X153842525Y-83820000D01*
X153550104Y-83858498D01*
X153265210Y-83934834D01*
X152992713Y-84047706D01*
X152737291Y-84195174D01*
X152503284Y-84374735D01*
X152469720Y-84408298D01*
X153000051Y-84938629D01*
X152858629Y-85080051D01*
X152328298Y-84549720D01*
X152294735Y-84583284D01*
X152115174Y-84817291D01*
X151967706Y-85072713D01*
X151870964Y-85306271D01*
X151831227Y-85352796D01*
X151771733Y-85367080D01*
X151715205Y-85343665D01*
X151683235Y-85291496D01*
X151680500Y-85268385D01*
X151680500Y-79371614D01*
X151699407Y-79313423D01*
X151748907Y-79277459D01*
X151810093Y-79277459D01*
X151859593Y-79313423D01*
X151870964Y-79333729D01*
X151967703Y-79567281D01*
X151967706Y-79567286D01*
X152115177Y-79822712D01*
X152294725Y-80056704D01*
X152328299Y-80090278D01*
X152858628Y-79559948D01*
X153000050Y-79701370D01*
X152469721Y-80231700D01*
X152503295Y-80265274D01*
X152737287Y-80444822D01*
X152992713Y-80592293D01*
X153265210Y-80705165D01*
X153550104Y-80781501D01*
X153842525Y-80819999D01*
X153842528Y-80820000D01*
X154137472Y-80820000D01*
X154137474Y-80819999D01*
X154429895Y-80781501D01*
X154714789Y-80705165D01*
X154987286Y-80592293D01*
X155242712Y-80444822D01*
X155476706Y-80265272D01*
X155476709Y-80265270D01*
X155510278Y-80231700D01*
X154979949Y-79701371D01*
X155121371Y-79559949D01*
X155651700Y-80090278D01*
X155685270Y-80056709D01*
X155685272Y-80056706D01*
X155864822Y-79822712D01*
X156012293Y-79567286D01*
X156125165Y-79294789D01*
X156201501Y-79009895D01*
X156239999Y-78717474D01*
X156240000Y-78717472D01*
X156240000Y-78422528D01*
X156239999Y-78422525D01*
X156201501Y-78130104D01*
X156125165Y-77845210D01*
X156012293Y-77572713D01*
X155864822Y-77317287D01*
X155685274Y-77083295D01*
X155651700Y-77049721D01*
X155121370Y-77580050D01*
X154979948Y-77438628D01*
X155510278Y-76908299D01*
X155476704Y-76874725D01*
X155242712Y-76695177D01*
X154987286Y-76547706D01*
X154714789Y-76434834D01*
X154429895Y-76358498D01*
X154137474Y-76320000D01*
X153842525Y-76320000D01*
X153550104Y-76358498D01*
X153265210Y-76434834D01*
X152992713Y-76547706D01*
X152737291Y-76695174D01*
X152503284Y-76874735D01*
X152469720Y-76908298D01*
X153000051Y-77438629D01*
X152858629Y-77580051D01*
X152328298Y-77049720D01*
X152294735Y-77083284D01*
X152115174Y-77317291D01*
X151967706Y-77572713D01*
X151870964Y-77806271D01*
X151831227Y-77852796D01*
X151771733Y-77867080D01*
X151715205Y-77843665D01*
X151683235Y-77791496D01*
X151680500Y-77768385D01*
X151680500Y-71871614D01*
X151699407Y-71813423D01*
X151748907Y-71777459D01*
X151810093Y-71777459D01*
X151859593Y-71813423D01*
X151870964Y-71833729D01*
X151967703Y-72067281D01*
X151967706Y-72067286D01*
X152115177Y-72322712D01*
X152294725Y-72556704D01*
X152328299Y-72590278D01*
X152858628Y-72059948D01*
X153000050Y-72201370D01*
X152469721Y-72731700D01*
X152503295Y-72765274D01*
X152737287Y-72944822D01*
X152992713Y-73092293D01*
X153265210Y-73205165D01*
X153550104Y-73281501D01*
X153842525Y-73319999D01*
X153842528Y-73320000D01*
X154137472Y-73320000D01*
X154137474Y-73319999D01*
X154429895Y-73281501D01*
X154714789Y-73205165D01*
X154987286Y-73092293D01*
X155242712Y-72944822D01*
X155476706Y-72765272D01*
X155476709Y-72765270D01*
X155510278Y-72731700D01*
X154979949Y-72201371D01*
X155121371Y-72059949D01*
X155651700Y-72590278D01*
X155685270Y-72556709D01*
X155685272Y-72556706D01*
X155864822Y-72322712D01*
X156012293Y-72067286D01*
X156125165Y-71794789D01*
X156201501Y-71509895D01*
X156239999Y-71217474D01*
X156240000Y-71217472D01*
X156240000Y-70922528D01*
X156239999Y-70922525D01*
X156201501Y-70630104D01*
X156125165Y-70345210D01*
X156012293Y-70072713D01*
X155864822Y-69817287D01*
X155685274Y-69583295D01*
X155651700Y-69549721D01*
X155121370Y-70080050D01*
X154979948Y-69938628D01*
X155510278Y-69408299D01*
X155476704Y-69374725D01*
X155242712Y-69195177D01*
X154987286Y-69047706D01*
X154714789Y-68934834D01*
X154429895Y-68858498D01*
X154137474Y-68820000D01*
X153842525Y-68820000D01*
X153550104Y-68858498D01*
X153265210Y-68934834D01*
X152992713Y-69047706D01*
X152737291Y-69195174D01*
X152503284Y-69374735D01*
X152469720Y-69408298D01*
X153000051Y-69938629D01*
X152858629Y-70080051D01*
X152328298Y-69549720D01*
X152294735Y-69583284D01*
X152115174Y-69817291D01*
X151967706Y-70072713D01*
X151870964Y-70306271D01*
X151831227Y-70352796D01*
X151771733Y-70367080D01*
X151715205Y-70343665D01*
X151683235Y-70291496D01*
X151680500Y-70268385D01*
X151680500Y-67237525D01*
X151642984Y-67097515D01*
X151642982Y-67097512D01*
X151642982Y-67097510D01*
X151570512Y-66971989D01*
X151570508Y-66971984D01*
X151468015Y-66869490D01*
X151468015Y-66869491D01*
X145056929Y-60458404D01*
X145029152Y-60403887D01*
X145038723Y-60343455D01*
X145081988Y-60300190D01*
X145126933Y-60289400D01*
X145441999Y-60289400D01*
X145442000Y-60289399D01*
X145442000Y-59825242D01*
X145476174Y-59834400D01*
X145607826Y-59834400D01*
X145642000Y-59825242D01*
X145642000Y-60289399D01*
X145642001Y-60289400D01*
X146291992Y-60289400D01*
X146292008Y-60289399D01*
X146337615Y-60284260D01*
X146419815Y-60244674D01*
X146476699Y-60173345D01*
X146497000Y-60084399D01*
X146497000Y-59434401D01*
X146496999Y-59434400D01*
X146032843Y-59434400D01*
X146042000Y-59400226D01*
X146042000Y-59268574D01*
X146032843Y-59234400D01*
X146496999Y-59234400D01*
X146497000Y-59234399D01*
X146497000Y-58584400D01*
X147127000Y-58584400D01*
X147127000Y-59234399D01*
X147127001Y-59234400D01*
X147591157Y-59234400D01*
X147582000Y-59268574D01*
X147582000Y-59400226D01*
X147591157Y-59434400D01*
X147127001Y-59434400D01*
X147127000Y-59434401D01*
X147127000Y-60084408D01*
X147132139Y-60130015D01*
X147171725Y-60212215D01*
X147243054Y-60269099D01*
X147332000Y-60289400D01*
X147981999Y-60289400D01*
X147982000Y-60289399D01*
X147982000Y-59825242D01*
X148016174Y-59834400D01*
X148147826Y-59834400D01*
X148182000Y-59825242D01*
X148182000Y-60289399D01*
X148182001Y-60289400D01*
X148831992Y-60289400D01*
X148832008Y-60289399D01*
X148877615Y-60284260D01*
X148959815Y-60244674D01*
X149016699Y-60173345D01*
X149037000Y-60084399D01*
X149037000Y-59434401D01*
X149036999Y-59434400D01*
X148572843Y-59434400D01*
X148582000Y-59400226D01*
X148582000Y-59268574D01*
X148572843Y-59234400D01*
X149036999Y-59234400D01*
X149037000Y-59234399D01*
X149037000Y-58584408D01*
X149036999Y-58584391D01*
X149031860Y-58538784D01*
X148992274Y-58456584D01*
X148920945Y-58399700D01*
X148832000Y-58379400D01*
X148182001Y-58379400D01*
X148182000Y-58379401D01*
X148182000Y-58843557D01*
X148147826Y-58834400D01*
X148016174Y-58834400D01*
X147982000Y-58843557D01*
X147982000Y-58379401D01*
X147981999Y-58379400D01*
X147331991Y-58379400D01*
X147286384Y-58384539D01*
X147204184Y-58424125D01*
X147147300Y-58495454D01*
X147127000Y-58584400D01*
X146497000Y-58584400D01*
X146496999Y-58584398D01*
X146491860Y-58538784D01*
X146452274Y-58456584D01*
X146380945Y-58399700D01*
X146292000Y-58379400D01*
X145642001Y-58379400D01*
X145642000Y-58379401D01*
X145642000Y-58843557D01*
X145607826Y-58834400D01*
X145476174Y-58834400D01*
X145442000Y-58843557D01*
X145442000Y-58379401D01*
X145441999Y-58379400D01*
X144921500Y-58379400D01*
X144863309Y-58360493D01*
X144827345Y-58310993D01*
X144822500Y-58280400D01*
X144822500Y-58009524D01*
X144822499Y-58009522D01*
X144796749Y-57913421D01*
X144786192Y-57874023D01*
X144789393Y-57812922D01*
X144827898Y-57765372D01*
X144881818Y-57749400D01*
X145441999Y-57749400D01*
X145442000Y-57749399D01*
X145442000Y-57285242D01*
X145476174Y-57294400D01*
X145607826Y-57294400D01*
X145642000Y-57285242D01*
X145642000Y-57749399D01*
X145642001Y-57749400D01*
X146291992Y-57749400D01*
X146292008Y-57749399D01*
X146337615Y-57744260D01*
X146419815Y-57704674D01*
X146476699Y-57633345D01*
X146497000Y-57544399D01*
X146497000Y-56894401D01*
X146496999Y-56894400D01*
X146032843Y-56894400D01*
X146042000Y-56860226D01*
X146042000Y-56728574D01*
X146032843Y-56694400D01*
X146496999Y-56694400D01*
X146497000Y-56694399D01*
X146497000Y-56044400D01*
X147127000Y-56044400D01*
X147127000Y-56694399D01*
X147127001Y-56694400D01*
X147591157Y-56694400D01*
X147582000Y-56728574D01*
X147582000Y-56860226D01*
X147591157Y-56894400D01*
X147127001Y-56894400D01*
X147127000Y-56894401D01*
X147127000Y-57544408D01*
X147132139Y-57590015D01*
X147171725Y-57672215D01*
X147243054Y-57729099D01*
X147332000Y-57749400D01*
X147981999Y-57749400D01*
X147982000Y-57749399D01*
X147982000Y-57285242D01*
X148016174Y-57294400D01*
X148147826Y-57294400D01*
X148182000Y-57285242D01*
X148182000Y-57749399D01*
X148182001Y-57749400D01*
X148831992Y-57749400D01*
X148832008Y-57749399D01*
X148877615Y-57744260D01*
X148959815Y-57704674D01*
X149016699Y-57633345D01*
X149037000Y-57544399D01*
X149037000Y-56894401D01*
X149036999Y-56894400D01*
X148572843Y-56894400D01*
X148582000Y-56860226D01*
X148582000Y-56728574D01*
X148572843Y-56694400D01*
X149036999Y-56694400D01*
X149037000Y-56694399D01*
X149037000Y-56044399D01*
X149566500Y-56044399D01*
X149566500Y-57544404D01*
X149567802Y-57572583D01*
X149567803Y-57572587D01*
X149598528Y-57680573D01*
X149650503Y-57749400D01*
X149666186Y-57770167D01*
X149761641Y-57829270D01*
X149872000Y-57849900D01*
X150840367Y-57849900D01*
X150898558Y-57868807D01*
X150910371Y-57878896D01*
X151141371Y-58109896D01*
X151169148Y-58164413D01*
X151159577Y-58224845D01*
X151116312Y-58268110D01*
X151071367Y-58278900D01*
X149871995Y-58278900D01*
X149843816Y-58280202D01*
X149843812Y-58280203D01*
X149735826Y-58310928D01*
X149646233Y-58378585D01*
X149646231Y-58378588D01*
X149587129Y-58474041D01*
X149566500Y-58584399D01*
X149566500Y-60084404D01*
X149567802Y-60112583D01*
X149567803Y-60112587D01*
X149598528Y-60220573D01*
X149650503Y-60289400D01*
X149666186Y-60310167D01*
X149761641Y-60369270D01*
X149872000Y-60389900D01*
X149960500Y-60389900D01*
X150018691Y-60408807D01*
X150054655Y-60458307D01*
X150059500Y-60488900D01*
X150059500Y-61012475D01*
X150084966Y-61107515D01*
X150097016Y-61152485D01*
X150169490Y-61278015D01*
X152302484Y-63411009D01*
X152422847Y-63480500D01*
X152422849Y-63480501D01*
X152428010Y-63483481D01*
X152428014Y-63483483D01*
X152568024Y-63520999D01*
X154893938Y-63520999D01*
X154952129Y-63539906D01*
X154988093Y-63589406D01*
X154988093Y-63650592D01*
X154985402Y-63657884D01*
X154977620Y-63676670D01*
X154977620Y-63676672D01*
X154950700Y-63812004D01*
X154950700Y-63949995D01*
X154955848Y-63975873D01*
X154975276Y-64073546D01*
X154977620Y-64085327D01*
X154977620Y-64085329D01*
X155030423Y-64212808D01*
X155030424Y-64212810D01*
X155030425Y-64212811D01*
X155069897Y-64271885D01*
X155084015Y-64293013D01*
X155100700Y-64348015D01*
X155100700Y-64537674D01*
X155112443Y-64581500D01*
X155112442Y-64581500D01*
X155138214Y-64677681D01*
X155138214Y-64677682D01*
X155138216Y-64677685D01*
X155210690Y-64803215D01*
X156328459Y-65920983D01*
X157410504Y-67003028D01*
X157438281Y-67057545D01*
X157439500Y-67073032D01*
X157439500Y-89142475D01*
X157439503Y-89142485D01*
X157473139Y-89268016D01*
X157473139Y-89268017D01*
X157477013Y-89282479D01*
X157477014Y-89282481D01*
X157477015Y-89282484D01*
X157477016Y-89282485D01*
X157549490Y-89408015D01*
X159360975Y-91219500D01*
X160430639Y-92289164D01*
X160458416Y-92343681D01*
X160448845Y-92404113D01*
X160446372Y-92408667D01*
X160377377Y-92528171D01*
X160259464Y-92812836D01*
X160179717Y-93110458D01*
X160179717Y-93110463D01*
X160139500Y-93415939D01*
X160139500Y-93724060D01*
X160179717Y-94029536D01*
X160179717Y-94029541D01*
X160259464Y-94327163D01*
X160377375Y-94611825D01*
X160377378Y-94611830D01*
X160516568Y-94852915D01*
X160531440Y-94878673D01*
X160719003Y-95123110D01*
X160719005Y-95123112D01*
X160719009Y-95123117D01*
X160936883Y-95340991D01*
X160936887Y-95340994D01*
X160936889Y-95340996D01*
X161072198Y-95444822D01*
X161181330Y-95528562D01*
X161448170Y-95682622D01*
X161448171Y-95682622D01*
X161448174Y-95682624D01*
X161502593Y-95705165D01*
X161732836Y-95800535D01*
X162030456Y-95880282D01*
X162335940Y-95920500D01*
X162335941Y-95920500D01*
X162644059Y-95920500D01*
X162644060Y-95920500D01*
X162949544Y-95880282D01*
X163247164Y-95800535D01*
X163531830Y-95682622D01*
X163798670Y-95528562D01*
X164043117Y-95340991D01*
X164260991Y-95123117D01*
X164448562Y-94878670D01*
X164602622Y-94611830D01*
X164720535Y-94327164D01*
X164800282Y-94029544D01*
X164840500Y-93724060D01*
X164840500Y-93415940D01*
X164800282Y-93110456D01*
X164720535Y-92812836D01*
X164708520Y-92783829D01*
X164602624Y-92528174D01*
X164602621Y-92528168D01*
X164448562Y-92261330D01*
X164448559Y-92261326D01*
X164260996Y-92016889D01*
X164260994Y-92016887D01*
X164260991Y-92016883D01*
X164043117Y-91799009D01*
X164043112Y-91799005D01*
X164043110Y-91799003D01*
X163798673Y-91611440D01*
X163655614Y-91528845D01*
X163531830Y-91457378D01*
X163531828Y-91457377D01*
X163531825Y-91457375D01*
X163247163Y-91339464D01*
X163043881Y-91284995D01*
X162949544Y-91259718D01*
X162949541Y-91259717D01*
X162949539Y-91259717D01*
X162644060Y-91219500D01*
X162335940Y-91219500D01*
X162335939Y-91219500D01*
X162030463Y-91259717D01*
X162030458Y-91259717D01*
X161732836Y-91339464D01*
X161448171Y-91457377D01*
X161328667Y-91526372D01*
X161268819Y-91539093D01*
X161212924Y-91514206D01*
X161209164Y-91510639D01*
X158569496Y-88870971D01*
X158541719Y-88816454D01*
X158540500Y-88800967D01*
X158540500Y-66731527D01*
X158540500Y-66731525D01*
X158502984Y-66591515D01*
X158498059Y-66582984D01*
X158430510Y-66465986D01*
X156290927Y-64326402D01*
X156263150Y-64271885D01*
X156271690Y-64217958D01*
X156270114Y-64217305D01*
X156323245Y-64089033D01*
X156324780Y-64085328D01*
X156351700Y-63949993D01*
X156351700Y-63812007D01*
X156324780Y-63676672D01*
X156316998Y-63657884D01*
X156312198Y-63596887D01*
X156344167Y-63544718D01*
X156400696Y-63521304D01*
X156408462Y-63520999D01*
X157222155Y-63520999D01*
X157280346Y-63539906D01*
X157292159Y-63549995D01*
X158910504Y-65168340D01*
X158938281Y-65222857D01*
X158939500Y-65238344D01*
X158939500Y-83142476D01*
X158945539Y-83165012D01*
X158945539Y-83165015D01*
X158945540Y-83165015D01*
X158977016Y-83282485D01*
X159049490Y-83408015D01*
X159836650Y-84195174D01*
X160430639Y-84789163D01*
X160458416Y-84843680D01*
X160448845Y-84904112D01*
X160446372Y-84908666D01*
X160377377Y-85028170D01*
X160259464Y-85312836D01*
X160179717Y-85610458D01*
X160179717Y-85610463D01*
X160139500Y-85915939D01*
X160139500Y-86224060D01*
X160179717Y-86529536D01*
X160179717Y-86529541D01*
X160259464Y-86827163D01*
X160377375Y-87111825D01*
X160388190Y-87130557D01*
X160516568Y-87352915D01*
X160531440Y-87378673D01*
X160719003Y-87623110D01*
X160719005Y-87623112D01*
X160719009Y-87623117D01*
X160936883Y-87840991D01*
X160936887Y-87840994D01*
X160936889Y-87840996D01*
X161072198Y-87944822D01*
X161181330Y-88028562D01*
X161448170Y-88182622D01*
X161448171Y-88182622D01*
X161448174Y-88182624D01*
X161502593Y-88205165D01*
X161732836Y-88300535D01*
X162030456Y-88380282D01*
X162335940Y-88420500D01*
X162335941Y-88420500D01*
X162644059Y-88420500D01*
X162644060Y-88420500D01*
X162949544Y-88380282D01*
X163247164Y-88300535D01*
X163531830Y-88182622D01*
X163798670Y-88028562D01*
X164043117Y-87840991D01*
X164260991Y-87623117D01*
X164448562Y-87378670D01*
X164602622Y-87111830D01*
X164720535Y-86827164D01*
X164800282Y-86529544D01*
X164840500Y-86224060D01*
X164840500Y-85915940D01*
X164800282Y-85610456D01*
X164720535Y-85312836D01*
X164702123Y-85268385D01*
X164602624Y-85028174D01*
X164602621Y-85028168D01*
X164448562Y-84761330D01*
X164448559Y-84761326D01*
X164260996Y-84516889D01*
X164260994Y-84516887D01*
X164260991Y-84516883D01*
X164043117Y-84299009D01*
X164043112Y-84299005D01*
X164043110Y-84299003D01*
X163798673Y-84111440D01*
X163655614Y-84028845D01*
X163531830Y-83957378D01*
X163531828Y-83957377D01*
X163531825Y-83957375D01*
X163247163Y-83839464D01*
X163040498Y-83784089D01*
X162949544Y-83759718D01*
X162949541Y-83759717D01*
X162949539Y-83759717D01*
X162644060Y-83719500D01*
X162335940Y-83719500D01*
X162335939Y-83719500D01*
X162030463Y-83759717D01*
X162030458Y-83759717D01*
X161732836Y-83839464D01*
X161448170Y-83957377D01*
X161328666Y-84026372D01*
X161268818Y-84039093D01*
X161212922Y-84014206D01*
X161209163Y-84010639D01*
X160069496Y-82870971D01*
X160041719Y-82816454D01*
X160040500Y-82800967D01*
X160040500Y-79261955D01*
X160059407Y-79203764D01*
X160108907Y-79167800D01*
X160170093Y-79167800D01*
X160219593Y-79203764D01*
X160235127Y-79236332D01*
X160259464Y-79327163D01*
X160377375Y-79611825D01*
X160388190Y-79630557D01*
X160516568Y-79852915D01*
X160531440Y-79878673D01*
X160719003Y-80123110D01*
X160719005Y-80123112D01*
X160719009Y-80123117D01*
X160936883Y-80340991D01*
X160936887Y-80340994D01*
X160936889Y-80340996D01*
X161072198Y-80444822D01*
X161181330Y-80528562D01*
X161448170Y-80682622D01*
X161448171Y-80682622D01*
X161448174Y-80682624D01*
X161502593Y-80705165D01*
X161732836Y-80800535D01*
X162030456Y-80880282D01*
X162335940Y-80920500D01*
X162335941Y-80920500D01*
X162644059Y-80920500D01*
X162644060Y-80920500D01*
X162949544Y-80880282D01*
X163247164Y-80800535D01*
X163531830Y-80682622D01*
X163798670Y-80528562D01*
X164043117Y-80340991D01*
X164260991Y-80123117D01*
X164448562Y-79878670D01*
X164602622Y-79611830D01*
X164720535Y-79327164D01*
X164800282Y-79029544D01*
X164840500Y-78724060D01*
X164840500Y-78415940D01*
X164800282Y-78110456D01*
X164720535Y-77812836D01*
X164602622Y-77528170D01*
X164533626Y-77408667D01*
X164520905Y-77348821D01*
X164545791Y-77292925D01*
X164549339Y-77289184D01*
X165520497Y-76318027D01*
X165575013Y-76290251D01*
X165635445Y-76299822D01*
X165678710Y-76343087D01*
X165689500Y-76388032D01*
X165689500Y-89747526D01*
X165689500Y-89892474D01*
X165727016Y-90032485D01*
X165799490Y-90158015D01*
X166901192Y-91259717D01*
X167930639Y-92289164D01*
X167958416Y-92343681D01*
X167948845Y-92404113D01*
X167946372Y-92408667D01*
X167877377Y-92528171D01*
X167759464Y-92812836D01*
X167679717Y-93110458D01*
X167679717Y-93110463D01*
X167639500Y-93415939D01*
X167639500Y-93724060D01*
X167679717Y-94029536D01*
X167679717Y-94029541D01*
X167759464Y-94327163D01*
X167877375Y-94611825D01*
X167877378Y-94611830D01*
X168016568Y-94852915D01*
X168031440Y-94878673D01*
X168219003Y-95123110D01*
X168219005Y-95123112D01*
X168219009Y-95123117D01*
X168436883Y-95340991D01*
X168436887Y-95340994D01*
X168436889Y-95340996D01*
X168572198Y-95444822D01*
X168681330Y-95528562D01*
X168948170Y-95682622D01*
X168948171Y-95682622D01*
X168948174Y-95682624D01*
X169002593Y-95705165D01*
X169232836Y-95800535D01*
X169530456Y-95880282D01*
X169835940Y-95920500D01*
X169835941Y-95920500D01*
X170144059Y-95920500D01*
X170144060Y-95920500D01*
X170449544Y-95880282D01*
X170747164Y-95800535D01*
X171031830Y-95682622D01*
X171298670Y-95528562D01*
X171543117Y-95340991D01*
X171760991Y-95123117D01*
X171948562Y-94878670D01*
X172102622Y-94611830D01*
X172220535Y-94327164D01*
X172300282Y-94029544D01*
X172340500Y-93724060D01*
X172340500Y-93415940D01*
X172300282Y-93110456D01*
X172220535Y-92812836D01*
X172208520Y-92783829D01*
X172102624Y-92528174D01*
X172102621Y-92528168D01*
X171948562Y-92261330D01*
X171948559Y-92261326D01*
X171760996Y-92016889D01*
X171760994Y-92016887D01*
X171760991Y-92016883D01*
X171543117Y-91799009D01*
X171543112Y-91799005D01*
X171543110Y-91799003D01*
X171298673Y-91611440D01*
X171155614Y-91528845D01*
X171031830Y-91457378D01*
X171031828Y-91457377D01*
X171031825Y-91457375D01*
X170747163Y-91339464D01*
X170543881Y-91284995D01*
X170449544Y-91259718D01*
X170449541Y-91259717D01*
X170449539Y-91259717D01*
X170144060Y-91219500D01*
X169835940Y-91219500D01*
X169835939Y-91219500D01*
X169530463Y-91259717D01*
X169530458Y-91259717D01*
X169232836Y-91339464D01*
X168948171Y-91457377D01*
X168828667Y-91526372D01*
X168768819Y-91539093D01*
X168712924Y-91514206D01*
X168709164Y-91510639D01*
X166819496Y-89620971D01*
X166791719Y-89566454D01*
X166790500Y-89550967D01*
X166790500Y-76388032D01*
X166809407Y-76329841D01*
X166858907Y-76293877D01*
X166920093Y-76293877D01*
X166959501Y-76318026D01*
X167516200Y-76874725D01*
X167930639Y-77289164D01*
X167958416Y-77343681D01*
X167948845Y-77404113D01*
X167946372Y-77408667D01*
X167877377Y-77528171D01*
X167759464Y-77812836D01*
X167679717Y-78110458D01*
X167679717Y-78110463D01*
X167639500Y-78415939D01*
X167639500Y-78724060D01*
X167679717Y-79029536D01*
X167679717Y-79029541D01*
X167759464Y-79327163D01*
X167877375Y-79611825D01*
X167888190Y-79630557D01*
X168016568Y-79852915D01*
X168031440Y-79878673D01*
X168219003Y-80123110D01*
X168219005Y-80123112D01*
X168219009Y-80123117D01*
X168436883Y-80340991D01*
X168436887Y-80340994D01*
X168436889Y-80340996D01*
X168572198Y-80444822D01*
X168681330Y-80528562D01*
X168948170Y-80682622D01*
X168948171Y-80682622D01*
X168948174Y-80682624D01*
X169002593Y-80705165D01*
X169232836Y-80800535D01*
X169530456Y-80880282D01*
X169835940Y-80920500D01*
X169835941Y-80920500D01*
X170144059Y-80920500D01*
X170144060Y-80920500D01*
X170449544Y-80880282D01*
X170747164Y-80800535D01*
X171031830Y-80682622D01*
X171298670Y-80528562D01*
X171543117Y-80340991D01*
X171760991Y-80123117D01*
X171948562Y-79878670D01*
X172102622Y-79611830D01*
X172220535Y-79327164D01*
X172300282Y-79029544D01*
X172340500Y-78724060D01*
X172340500Y-78415940D01*
X172300282Y-78110456D01*
X172220535Y-77812836D01*
X172202123Y-77768385D01*
X172102624Y-77528174D01*
X172102621Y-77528168D01*
X171948562Y-77261330D01*
X171948559Y-77261326D01*
X171760996Y-77016889D01*
X171760994Y-77016887D01*
X171760991Y-77016883D01*
X171543117Y-76799009D01*
X171543112Y-76799005D01*
X171543110Y-76799003D01*
X171298673Y-76611440D01*
X171155614Y-76528845D01*
X171031830Y-76457378D01*
X171031828Y-76457377D01*
X171031825Y-76457375D01*
X170747163Y-76339464D01*
X170543881Y-76284995D01*
X170449544Y-76259718D01*
X170449541Y-76259717D01*
X170449539Y-76259717D01*
X170144060Y-76219500D01*
X169835940Y-76219500D01*
X169835939Y-76219500D01*
X169530463Y-76259717D01*
X169530458Y-76259717D01*
X169232836Y-76339464D01*
X168948171Y-76457377D01*
X168828667Y-76526372D01*
X168768819Y-76539093D01*
X168712924Y-76514206D01*
X168709164Y-76510639D01*
X167819496Y-75620971D01*
X167791719Y-75566454D01*
X167790500Y-75550967D01*
X167790500Y-72330826D01*
X167809407Y-72272635D01*
X167858907Y-72236671D01*
X167920093Y-72236671D01*
X167969593Y-72272635D01*
X167975232Y-72281318D01*
X168031438Y-72378670D01*
X168031440Y-72378673D01*
X168219003Y-72623110D01*
X168219005Y-72623112D01*
X168219009Y-72623117D01*
X168436883Y-72840991D01*
X168436887Y-72840994D01*
X168436889Y-72840996D01*
X168572198Y-72944822D01*
X168681330Y-73028562D01*
X168948170Y-73182622D01*
X168948171Y-73182622D01*
X168948174Y-73182624D01*
X169002593Y-73205165D01*
X169232836Y-73300535D01*
X169530456Y-73380282D01*
X169835940Y-73420500D01*
X169835941Y-73420500D01*
X170144059Y-73420500D01*
X170144060Y-73420500D01*
X170449544Y-73380282D01*
X170747164Y-73300535D01*
X171031830Y-73182622D01*
X171298670Y-73028562D01*
X171543117Y-72840991D01*
X171760991Y-72623117D01*
X171948562Y-72378670D01*
X172102622Y-72111830D01*
X172220535Y-71827164D01*
X172300282Y-71529544D01*
X172340500Y-71224060D01*
X172340500Y-70915940D01*
X172300282Y-70610456D01*
X172220535Y-70312836D01*
X172189500Y-70237911D01*
X172102624Y-70028174D01*
X172102622Y-70028170D01*
X171948562Y-69761330D01*
X171948559Y-69761326D01*
X171760996Y-69516889D01*
X171760994Y-69516887D01*
X171760991Y-69516883D01*
X171543117Y-69299009D01*
X171543112Y-69299005D01*
X171543110Y-69299003D01*
X171298673Y-69111440D01*
X171291871Y-69107513D01*
X171031830Y-68957378D01*
X171031825Y-68957375D01*
X170747157Y-68839462D01*
X170747158Y-68839462D01*
X170613876Y-68803749D01*
X170562562Y-68770425D01*
X170540636Y-68713304D01*
X170540500Y-68708123D01*
X170540500Y-63747525D01*
X170521514Y-63676670D01*
X170502984Y-63607515D01*
X170492529Y-63589406D01*
X170483453Y-63573685D01*
X170483453Y-63573684D01*
X170430511Y-63481987D01*
X170430510Y-63481985D01*
X161699529Y-54751004D01*
X162539500Y-54751004D01*
X162539500Y-54888995D01*
X162566420Y-55024327D01*
X162566420Y-55024329D01*
X162619222Y-55151806D01*
X162619228Y-55151817D01*
X162695885Y-55266541D01*
X162695886Y-55266542D01*
X162793458Y-55364114D01*
X162804840Y-55371719D01*
X162908182Y-55440771D01*
X162908193Y-55440777D01*
X162955283Y-55460282D01*
X163035672Y-55493580D01*
X163130277Y-55512398D01*
X163180967Y-55539492D01*
X172910504Y-65269029D01*
X172938281Y-65323546D01*
X172939500Y-65339033D01*
X172939500Y-82300966D01*
X172920593Y-82359157D01*
X172910504Y-82370970D01*
X171270834Y-84010639D01*
X171216317Y-84038416D01*
X171155885Y-84028845D01*
X171151342Y-84026378D01*
X171031830Y-83957378D01*
X171031828Y-83957377D01*
X171031825Y-83957375D01*
X170747163Y-83839464D01*
X170540498Y-83784089D01*
X170449544Y-83759718D01*
X170449541Y-83759717D01*
X170449539Y-83759717D01*
X170144060Y-83719500D01*
X169835940Y-83719500D01*
X169835939Y-83719500D01*
X169530463Y-83759717D01*
X169530458Y-83759717D01*
X169232836Y-83839464D01*
X168948174Y-83957375D01*
X168681326Y-84111440D01*
X168436889Y-84299003D01*
X168219003Y-84516889D01*
X168031440Y-84761326D01*
X167877375Y-85028174D01*
X167759464Y-85312836D01*
X167679717Y-85610458D01*
X167679717Y-85610463D01*
X167639500Y-85915939D01*
X167639500Y-86224060D01*
X167679717Y-86529536D01*
X167679717Y-86529541D01*
X167759464Y-86827163D01*
X167877375Y-87111825D01*
X167888190Y-87130557D01*
X168016568Y-87352915D01*
X168031440Y-87378673D01*
X168219003Y-87623110D01*
X168219005Y-87623112D01*
X168219009Y-87623117D01*
X168436883Y-87840991D01*
X168436887Y-87840994D01*
X168436889Y-87840996D01*
X168572198Y-87944822D01*
X168681330Y-88028562D01*
X168948170Y-88182622D01*
X168948171Y-88182622D01*
X168948174Y-88182624D01*
X169002593Y-88205165D01*
X169232836Y-88300535D01*
X169530456Y-88380282D01*
X169835940Y-88420500D01*
X169835941Y-88420500D01*
X170144059Y-88420500D01*
X170144060Y-88420500D01*
X170449544Y-88380282D01*
X170747164Y-88300535D01*
X171031830Y-88182622D01*
X171298670Y-88028562D01*
X171543117Y-87840991D01*
X171760991Y-87623117D01*
X171948562Y-87378670D01*
X172102622Y-87111830D01*
X172220535Y-86827164D01*
X172300282Y-86529544D01*
X172340500Y-86224060D01*
X172340500Y-85915940D01*
X172300282Y-85610456D01*
X172220535Y-85312836D01*
X172102622Y-85028170D01*
X172033626Y-84908667D01*
X172020905Y-84848821D01*
X172045791Y-84792925D01*
X172049339Y-84789184D01*
X173930510Y-82908015D01*
X174002984Y-82782485D01*
X174040500Y-82642475D01*
X174040500Y-64997525D01*
X174002984Y-64857515D01*
X173999792Y-64851986D01*
X173930510Y-64731985D01*
X164650512Y-55451987D01*
X171189500Y-55451987D01*
X171189500Y-55688012D01*
X171220306Y-55922006D01*
X171220306Y-55922011D01*
X171281393Y-56149992D01*
X171371713Y-56368044D01*
X171489729Y-56572453D01*
X171633402Y-56759692D01*
X171633404Y-56759694D01*
X171633408Y-56759699D01*
X171800301Y-56926592D01*
X171800305Y-56926595D01*
X171800307Y-56926597D01*
X171987546Y-57070270D01*
X171987550Y-57070273D01*
X172191951Y-57188284D01*
X172191952Y-57188284D01*
X172191955Y-57188286D01*
X172206955Y-57194499D01*
X172410007Y-57278606D01*
X172637986Y-57339693D01*
X172871989Y-57370500D01*
X172871990Y-57370500D01*
X173108010Y-57370500D01*
X173108011Y-57370500D01*
X173342014Y-57339693D01*
X173569993Y-57278606D01*
X173788049Y-57188284D01*
X173992450Y-57070273D01*
X174179699Y-56926592D01*
X174346592Y-56759699D01*
X174490273Y-56572450D01*
X174608284Y-56368049D01*
X174698606Y-56149993D01*
X174759693Y-55922014D01*
X174790500Y-55688011D01*
X174790500Y-55451989D01*
X174759693Y-55217986D01*
X174698606Y-54990007D01*
X174666388Y-54912226D01*
X174608286Y-54771955D01*
X174601942Y-54760967D01*
X174490273Y-54567550D01*
X174490270Y-54567546D01*
X174346597Y-54380307D01*
X174346595Y-54380305D01*
X174346592Y-54380301D01*
X174179699Y-54213408D01*
X174179694Y-54213404D01*
X174179692Y-54213402D01*
X173992453Y-54069729D01*
X173788044Y-53951713D01*
X173569992Y-53861393D01*
X173414277Y-53819670D01*
X173342014Y-53800307D01*
X173342011Y-53800306D01*
X173342009Y-53800306D01*
X173108012Y-53769500D01*
X173108011Y-53769500D01*
X172871989Y-53769500D01*
X172871987Y-53769500D01*
X172637993Y-53800306D01*
X172637988Y-53800306D01*
X172410007Y-53861393D01*
X172191955Y-53951713D01*
X171987546Y-54069729D01*
X171800307Y-54213402D01*
X171633402Y-54380307D01*
X171489729Y-54567546D01*
X171371713Y-54771955D01*
X171281393Y-54990007D01*
X171220306Y-55217988D01*
X171220306Y-55217993D01*
X171189500Y-55451987D01*
X164650512Y-55451987D01*
X163959492Y-54760967D01*
X163932398Y-54710277D01*
X163913580Y-54615672D01*
X163860775Y-54488189D01*
X163860774Y-54488187D01*
X163860771Y-54488182D01*
X163784114Y-54373458D01*
X163686541Y-54275885D01*
X163571817Y-54199228D01*
X163571806Y-54199222D01*
X163444328Y-54146420D01*
X163308995Y-54119500D01*
X163308993Y-54119500D01*
X163171007Y-54119500D01*
X163171004Y-54119500D01*
X163035672Y-54146420D01*
X163035670Y-54146420D01*
X162908193Y-54199222D01*
X162908182Y-54199228D01*
X162793458Y-54275885D01*
X162695885Y-54373458D01*
X162619228Y-54488182D01*
X162619222Y-54488193D01*
X162566420Y-54615670D01*
X162566420Y-54615672D01*
X162539500Y-54751004D01*
X161699529Y-54751004D01*
X161328015Y-54379490D01*
X161202485Y-54307016D01*
X161062475Y-54269500D01*
X153895525Y-54269500D01*
X153755515Y-54307016D01*
X153629985Y-54379490D01*
X152709488Y-55299987D01*
X152690978Y-55332049D01*
X152672466Y-55364114D01*
X152657863Y-55389407D01*
X152637017Y-55425512D01*
X152599500Y-55565525D01*
X152599500Y-55639900D01*
X152580593Y-55698091D01*
X152531093Y-55734055D01*
X152500500Y-55738900D01*
X152411995Y-55738900D01*
X152383816Y-55740202D01*
X152383812Y-55740203D01*
X152275826Y-55770928D01*
X152186233Y-55838585D01*
X152186231Y-55838588D01*
X152127129Y-55934041D01*
X152106500Y-56044399D01*
X152106500Y-57278967D01*
X152087593Y-57337158D01*
X152038093Y-57373122D01*
X151976907Y-57373122D01*
X151937496Y-57348971D01*
X151706496Y-57117971D01*
X151678719Y-57063454D01*
X151677500Y-57047967D01*
X151677500Y-56044389D01*
X151676197Y-56016216D01*
X151676197Y-56016212D01*
X151645472Y-55908227D01*
X151577814Y-55818633D01*
X151577811Y-55818631D01*
X151482358Y-55759529D01*
X151372000Y-55738900D01*
X149872000Y-55738900D01*
X149871995Y-55738900D01*
X149843816Y-55740202D01*
X149843812Y-55740203D01*
X149735826Y-55770928D01*
X149646233Y-55838585D01*
X149646231Y-55838588D01*
X149587129Y-55934041D01*
X149566500Y-56044399D01*
X149037000Y-56044399D01*
X149031860Y-55998784D01*
X148992274Y-55916584D01*
X148920945Y-55859700D01*
X148832000Y-55839400D01*
X148182001Y-55839400D01*
X148182000Y-55839401D01*
X148182000Y-56303557D01*
X148147826Y-56294400D01*
X148016174Y-56294400D01*
X147982000Y-56303557D01*
X147982000Y-55839401D01*
X147981999Y-55839400D01*
X147331991Y-55839400D01*
X147286384Y-55844539D01*
X147204184Y-55884125D01*
X147147300Y-55955454D01*
X147127000Y-56044400D01*
X146497000Y-56044400D01*
X146497000Y-56044399D01*
X146491860Y-55998784D01*
X146452274Y-55916584D01*
X146380945Y-55859700D01*
X146292000Y-55839400D01*
X145642001Y-55839400D01*
X145642000Y-55839401D01*
X145642000Y-56303557D01*
X145607826Y-56294400D01*
X145476174Y-56294400D01*
X145442000Y-56303557D01*
X145442000Y-55839401D01*
X145441999Y-55839400D01*
X144791991Y-55839400D01*
X144746384Y-55844539D01*
X144664184Y-55884125D01*
X144607300Y-55955454D01*
X144587000Y-56044400D01*
X144587000Y-56694399D01*
X144587001Y-56694400D01*
X145051157Y-56694400D01*
X145042000Y-56728574D01*
X145042000Y-56860226D01*
X145051157Y-56894400D01*
X144587001Y-56894400D01*
X144587000Y-56894401D01*
X144587000Y-57379467D01*
X144568093Y-57437658D01*
X144518593Y-57473622D01*
X144457407Y-57473622D01*
X144417996Y-57449471D01*
X144086496Y-57117971D01*
X144058719Y-57063454D01*
X144057500Y-57047967D01*
X144057500Y-56044383D01*
X144057454Y-56043388D01*
X144056197Y-56016216D01*
X144056197Y-56016212D01*
X144025472Y-55908227D01*
X143957814Y-55818633D01*
X143957811Y-55818631D01*
X143862358Y-55759529D01*
X143752000Y-55738900D01*
X142252000Y-55738900D01*
X142251995Y-55738900D01*
X142223816Y-55740202D01*
X142223812Y-55740203D01*
X142115826Y-55770928D01*
X142026233Y-55838585D01*
X142026231Y-55838588D01*
X141967129Y-55934041D01*
X141946500Y-56044399D01*
X141517500Y-56044399D01*
X141516197Y-56016212D01*
X141485472Y-55908227D01*
X141417814Y-55818633D01*
X141417811Y-55818631D01*
X141322358Y-55759529D01*
X141212000Y-55738900D01*
X139712000Y-55738900D01*
X139711995Y-55738900D01*
X139683816Y-55740202D01*
X139683812Y-55740203D01*
X139575826Y-55770928D01*
X139486233Y-55838585D01*
X139486231Y-55838588D01*
X139427129Y-55934041D01*
X139406500Y-56044399D01*
X139406500Y-57023966D01*
X139387593Y-57082157D01*
X139377504Y-57093970D01*
X139046004Y-57425470D01*
X138991487Y-57453247D01*
X138931055Y-57443676D01*
X138887790Y-57400411D01*
X138877000Y-57355466D01*
X138877000Y-56894401D01*
X138876999Y-56894400D01*
X138412843Y-56894400D01*
X138422000Y-56860226D01*
X138422000Y-56728574D01*
X138412843Y-56694400D01*
X138876999Y-56694400D01*
X138877000Y-56694399D01*
X138877000Y-56044408D01*
X138876999Y-56044389D01*
X138871860Y-55998784D01*
X138832274Y-55916584D01*
X138760945Y-55859700D01*
X138672000Y-55839400D01*
X138022001Y-55839400D01*
X138022000Y-55839401D01*
X138022000Y-56303557D01*
X137987826Y-56294400D01*
X137856174Y-56294400D01*
X137822000Y-56303557D01*
X137822000Y-55839401D01*
X137821999Y-55839400D01*
X137171991Y-55839400D01*
X137126384Y-55844539D01*
X137044184Y-55884125D01*
X136987300Y-55955454D01*
X136967000Y-56044400D01*
X136967000Y-56694399D01*
X136967001Y-56694400D01*
X137431157Y-56694400D01*
X137422000Y-56728574D01*
X137422000Y-56860226D01*
X137431157Y-56894400D01*
X136967001Y-56894400D01*
X136967000Y-56894401D01*
X136967000Y-57379467D01*
X136948093Y-57437658D01*
X136898593Y-57473622D01*
X136837407Y-57473622D01*
X136797996Y-57449471D01*
X136466496Y-57117971D01*
X136438719Y-57063454D01*
X136437500Y-57047967D01*
X136437500Y-56044383D01*
X136437454Y-56043388D01*
X136436197Y-56016216D01*
X136436197Y-56016212D01*
X136405472Y-55908227D01*
X136337814Y-55818633D01*
X136337811Y-55818631D01*
X136242358Y-55759529D01*
X136132000Y-55738900D01*
X134632000Y-55738900D01*
X134631995Y-55738900D01*
X134603816Y-55740202D01*
X134603812Y-55740203D01*
X134495826Y-55770928D01*
X134406233Y-55838585D01*
X134406231Y-55838588D01*
X134347129Y-55934041D01*
X134326500Y-56044399D01*
X134326500Y-57278967D01*
X134307593Y-57337158D01*
X134258093Y-57373122D01*
X134196907Y-57373122D01*
X134157496Y-57348971D01*
X133926496Y-57117971D01*
X133898719Y-57063454D01*
X133897500Y-57047967D01*
X133897500Y-56044389D01*
X133896197Y-56016216D01*
X133896197Y-56016212D01*
X133865472Y-55908227D01*
X133797814Y-55818633D01*
X133797811Y-55818631D01*
X133702358Y-55759529D01*
X133592000Y-55738900D01*
X132092000Y-55738900D01*
X132091995Y-55738900D01*
X132063816Y-55740202D01*
X132063812Y-55740203D01*
X131955826Y-55770928D01*
X131866233Y-55838585D01*
X131866231Y-55838588D01*
X131807129Y-55934041D01*
X131786500Y-56044399D01*
X131786500Y-57278967D01*
X131767593Y-57337158D01*
X131718093Y-57373122D01*
X131656907Y-57373122D01*
X131617496Y-57348971D01*
X131386496Y-57117971D01*
X131358719Y-57063454D01*
X131357500Y-57047967D01*
X131357500Y-56044389D01*
X131356197Y-56016216D01*
X131356197Y-56016212D01*
X131325472Y-55908227D01*
X131257814Y-55818633D01*
X131257811Y-55818631D01*
X131162358Y-55759529D01*
X131052000Y-55738900D01*
X129552000Y-55738900D01*
X129551995Y-55738900D01*
X129523816Y-55740202D01*
X129523812Y-55740203D01*
X129415826Y-55770928D01*
X129326233Y-55838585D01*
X129326231Y-55838588D01*
X129267129Y-55934041D01*
X129246500Y-56044399D01*
X129246500Y-57544404D01*
X129247802Y-57572583D01*
X129247803Y-57572587D01*
X129278528Y-57680573D01*
X129330503Y-57749400D01*
X129346186Y-57770167D01*
X129441641Y-57829270D01*
X129552000Y-57849900D01*
X130520367Y-57849900D01*
X130578558Y-57868807D01*
X130590371Y-57878896D01*
X130821371Y-58109896D01*
X130849148Y-58164413D01*
X130839577Y-58224845D01*
X130796312Y-58268110D01*
X130751367Y-58278900D01*
X129551995Y-58278900D01*
X129523816Y-58280202D01*
X129523812Y-58280203D01*
X129415826Y-58310928D01*
X129326233Y-58378585D01*
X129326231Y-58378588D01*
X129267129Y-58474041D01*
X129246500Y-58584399D01*
X129246500Y-60084404D01*
X129247802Y-60112583D01*
X129247803Y-60112587D01*
X129278528Y-60220573D01*
X129330503Y-60289400D01*
X129346186Y-60310167D01*
X129441641Y-60369270D01*
X129552000Y-60389900D01*
X129600567Y-60389900D01*
X129658758Y-60408807D01*
X129694722Y-60458307D01*
X129694722Y-60519493D01*
X129670571Y-60558904D01*
X129488971Y-60740504D01*
X129434454Y-60768281D01*
X129418967Y-60769500D01*
X123667525Y-60769500D01*
X123572221Y-60795037D01*
X123572220Y-60795036D01*
X123527518Y-60807014D01*
X123527517Y-60807014D01*
X123401985Y-60879490D01*
X118304488Y-65976987D01*
X118256841Y-66059514D01*
X118256842Y-66059515D01*
X118232016Y-66102513D01*
X118194500Y-66242525D01*
X118194500Y-82545966D01*
X118175593Y-82604157D01*
X118165504Y-82615970D01*
X116770834Y-84010639D01*
X116716317Y-84038416D01*
X116655885Y-84028845D01*
X116651342Y-84026378D01*
X116531830Y-83957378D01*
X116531828Y-83957377D01*
X116531825Y-83957375D01*
X116247163Y-83839464D01*
X116040498Y-83784089D01*
X115949544Y-83759718D01*
X115949541Y-83759717D01*
X115949539Y-83759717D01*
X115644060Y-83719500D01*
X115335940Y-83719500D01*
X115335939Y-83719500D01*
X115030463Y-83759717D01*
X115030458Y-83759717D01*
X114732836Y-83839464D01*
X114448174Y-83957375D01*
X114181326Y-84111440D01*
X113936889Y-84299003D01*
X113719003Y-84516889D01*
X113531440Y-84761326D01*
X113377375Y-85028174D01*
X113259464Y-85312836D01*
X113179717Y-85610458D01*
X113179717Y-85610463D01*
X113139500Y-85915939D01*
X109500500Y-85915939D01*
X109500500Y-66846525D01*
X111590500Y-66846525D01*
X111590500Y-75293474D01*
X111613548Y-75379490D01*
X111613547Y-75379490D01*
X111628014Y-75433481D01*
X111628014Y-75433482D01*
X111628016Y-75433485D01*
X111700490Y-75559015D01*
X112576309Y-76434834D01*
X113430639Y-77289164D01*
X113458416Y-77343681D01*
X113448845Y-77404113D01*
X113446372Y-77408667D01*
X113377377Y-77528171D01*
X113259464Y-77812836D01*
X113179717Y-78110458D01*
X113179717Y-78110463D01*
X113139500Y-78415939D01*
X113139500Y-78724060D01*
X113179717Y-79029536D01*
X113179717Y-79029541D01*
X113259464Y-79327163D01*
X113377375Y-79611825D01*
X113388190Y-79630557D01*
X113516568Y-79852915D01*
X113531440Y-79878673D01*
X113719003Y-80123110D01*
X113719005Y-80123112D01*
X113719009Y-80123117D01*
X113936883Y-80340991D01*
X113936887Y-80340994D01*
X113936889Y-80340996D01*
X114072198Y-80444822D01*
X114181330Y-80528562D01*
X114448170Y-80682622D01*
X114448171Y-80682622D01*
X114448174Y-80682624D01*
X114502593Y-80705165D01*
X114732836Y-80800535D01*
X115030456Y-80880282D01*
X115335940Y-80920500D01*
X115335941Y-80920500D01*
X115644059Y-80920500D01*
X115644060Y-80920500D01*
X115949544Y-80880282D01*
X116247164Y-80800535D01*
X116531830Y-80682622D01*
X116798670Y-80528562D01*
X117043117Y-80340991D01*
X117260991Y-80123117D01*
X117448562Y-79878670D01*
X117602622Y-79611830D01*
X117720535Y-79327164D01*
X117800282Y-79029544D01*
X117840500Y-78724060D01*
X117840500Y-78415940D01*
X117800282Y-78110456D01*
X117720535Y-77812836D01*
X117702123Y-77768385D01*
X117602624Y-77528174D01*
X117602621Y-77528168D01*
X117448562Y-77261330D01*
X117448559Y-77261326D01*
X117260996Y-77016889D01*
X117260994Y-77016887D01*
X117260991Y-77016883D01*
X117043117Y-76799009D01*
X117043112Y-76799005D01*
X117043110Y-76799003D01*
X116798673Y-76611440D01*
X116655614Y-76528845D01*
X116531830Y-76457378D01*
X116531828Y-76457377D01*
X116531825Y-76457375D01*
X116247163Y-76339464D01*
X116043881Y-76284995D01*
X115949544Y-76259718D01*
X115949541Y-76259717D01*
X115949539Y-76259717D01*
X115644060Y-76219500D01*
X115335940Y-76219500D01*
X115335939Y-76219500D01*
X115030463Y-76259717D01*
X115030458Y-76259717D01*
X114732836Y-76339464D01*
X114448171Y-76457377D01*
X114328667Y-76526372D01*
X114268819Y-76539093D01*
X114212924Y-76514206D01*
X114209164Y-76510639D01*
X112720496Y-75021971D01*
X112692719Y-74967454D01*
X112691500Y-74951967D01*
X112691500Y-70915939D01*
X113139500Y-70915939D01*
X113139500Y-71224060D01*
X113179717Y-71529536D01*
X113179717Y-71529541D01*
X113259464Y-71827163D01*
X113377375Y-72111825D01*
X113388190Y-72130557D01*
X113516568Y-72352915D01*
X113531440Y-72378673D01*
X113719003Y-72623110D01*
X113719005Y-72623112D01*
X113719009Y-72623117D01*
X113936883Y-72840991D01*
X113936887Y-72840994D01*
X113936889Y-72840996D01*
X114072198Y-72944822D01*
X114181330Y-73028562D01*
X114448170Y-73182622D01*
X114448171Y-73182622D01*
X114448174Y-73182624D01*
X114502593Y-73205165D01*
X114732836Y-73300535D01*
X115030456Y-73380282D01*
X115335940Y-73420500D01*
X115335941Y-73420500D01*
X115644059Y-73420500D01*
X115644060Y-73420500D01*
X115949544Y-73380282D01*
X116247164Y-73300535D01*
X116531830Y-73182622D01*
X116798670Y-73028562D01*
X117043117Y-72840991D01*
X117260991Y-72623117D01*
X117448562Y-72378670D01*
X117602622Y-72111830D01*
X117720535Y-71827164D01*
X117800282Y-71529544D01*
X117840500Y-71224060D01*
X117840500Y-70915940D01*
X117800282Y-70610456D01*
X117720535Y-70312836D01*
X117689500Y-70237911D01*
X117602624Y-70028174D01*
X117602622Y-70028170D01*
X117448562Y-69761330D01*
X117448559Y-69761326D01*
X117260996Y-69516889D01*
X117260994Y-69516887D01*
X117260991Y-69516883D01*
X117043117Y-69299009D01*
X117043112Y-69299005D01*
X117043110Y-69299003D01*
X116798673Y-69111440D01*
X116791871Y-69107513D01*
X116531830Y-68957378D01*
X116531825Y-68957375D01*
X116247157Y-68839462D01*
X116247158Y-68839462D01*
X116113876Y-68803749D01*
X116062562Y-68770425D01*
X116040636Y-68713304D01*
X116040500Y-68708123D01*
X116040500Y-67589033D01*
X116059407Y-67530842D01*
X116069496Y-67519029D01*
X123669029Y-59919496D01*
X123723546Y-59891719D01*
X123739033Y-59890500D01*
X126607500Y-59890500D01*
X126665691Y-59909407D01*
X126701655Y-59958907D01*
X126706500Y-59989500D01*
X126706500Y-60084404D01*
X126707802Y-60112583D01*
X126707803Y-60112587D01*
X126738528Y-60220573D01*
X126790503Y-60289400D01*
X126806186Y-60310167D01*
X126901641Y-60369270D01*
X127012000Y-60389900D01*
X128512005Y-60389900D01*
X128526094Y-60389248D01*
X128540188Y-60388597D01*
X128648173Y-60357872D01*
X128737767Y-60290214D01*
X128796870Y-60194759D01*
X128817500Y-60084400D01*
X128817500Y-58584400D01*
X128816197Y-58556212D01*
X128785472Y-58448227D01*
X128717814Y-58358633D01*
X128685445Y-58338591D01*
X128622358Y-58299529D01*
X128512000Y-58278900D01*
X127012000Y-58278900D01*
X127011995Y-58278900D01*
X126983816Y-58280202D01*
X126983812Y-58280203D01*
X126875826Y-58310928D01*
X126786233Y-58378585D01*
X126786231Y-58378588D01*
X126727129Y-58474041D01*
X126706500Y-58584399D01*
X126706500Y-58690500D01*
X126687593Y-58748691D01*
X126638093Y-58784655D01*
X126607500Y-58789500D01*
X123397525Y-58789500D01*
X123257515Y-58827016D01*
X123131985Y-58899490D01*
X115049490Y-66981985D01*
X114977016Y-67107515D01*
X114939500Y-67247525D01*
X114939500Y-68708123D01*
X114920593Y-68766314D01*
X114871093Y-68802278D01*
X114866124Y-68803749D01*
X114732841Y-68839462D01*
X114448174Y-68957375D01*
X114181326Y-69111440D01*
X113936889Y-69299003D01*
X113719003Y-69516889D01*
X113531440Y-69761326D01*
X113377375Y-70028174D01*
X113259464Y-70312836D01*
X113179717Y-70610458D01*
X113179717Y-70610463D01*
X113139500Y-70915939D01*
X112691500Y-70915939D01*
X112691500Y-67188033D01*
X112710407Y-67129842D01*
X112720496Y-67118029D01*
X122459029Y-57379496D01*
X122513546Y-57351719D01*
X122529033Y-57350500D01*
X126607500Y-57350500D01*
X126665691Y-57369407D01*
X126701655Y-57418907D01*
X126706500Y-57449500D01*
X126706500Y-57544404D01*
X126707802Y-57572583D01*
X126707803Y-57572587D01*
X126738528Y-57680573D01*
X126790503Y-57749400D01*
X126806186Y-57770167D01*
X126901641Y-57829270D01*
X127012000Y-57849900D01*
X128512005Y-57849900D01*
X128526094Y-57849248D01*
X128540188Y-57848597D01*
X128648173Y-57817872D01*
X128737767Y-57750214D01*
X128796870Y-57654759D01*
X128817500Y-57544400D01*
X128817500Y-56044400D01*
X128817500Y-56044399D01*
X128817500Y-56044389D01*
X128816197Y-56016216D01*
X128816197Y-56016212D01*
X128785472Y-55908227D01*
X128717814Y-55818633D01*
X128717811Y-55818631D01*
X128622358Y-55759529D01*
X128512000Y-55738900D01*
X127012000Y-55738900D01*
X127011995Y-55738900D01*
X126983816Y-55740202D01*
X126983812Y-55740203D01*
X126875826Y-55770928D01*
X126786233Y-55838585D01*
X126786231Y-55838588D01*
X126727129Y-55934041D01*
X126706500Y-56044399D01*
X126706500Y-56150500D01*
X126687593Y-56208691D01*
X126638093Y-56244655D01*
X126607500Y-56249500D01*
X122187525Y-56249500D01*
X122047515Y-56287016D01*
X121921985Y-56359490D01*
X111700490Y-66580985D01*
X111628016Y-66706515D01*
X111590500Y-66846525D01*
X109500500Y-66846525D01*
X109500500Y-55451987D01*
X111189500Y-55451987D01*
X111189500Y-55688012D01*
X111220306Y-55922006D01*
X111220306Y-55922011D01*
X111281393Y-56149992D01*
X111371713Y-56368044D01*
X111489729Y-56572453D01*
X111633402Y-56759692D01*
X111633404Y-56759694D01*
X111633408Y-56759699D01*
X111800301Y-56926592D01*
X111800305Y-56926595D01*
X111800307Y-56926597D01*
X111987546Y-57070270D01*
X111987550Y-57070273D01*
X112191951Y-57188284D01*
X112191952Y-57188284D01*
X112191955Y-57188286D01*
X112206955Y-57194499D01*
X112410007Y-57278606D01*
X112637986Y-57339693D01*
X112871989Y-57370500D01*
X112871990Y-57370500D01*
X113108010Y-57370500D01*
X113108011Y-57370500D01*
X113342014Y-57339693D01*
X113569993Y-57278606D01*
X113788049Y-57188284D01*
X113992450Y-57070273D01*
X114179699Y-56926592D01*
X114346592Y-56759699D01*
X114490273Y-56572450D01*
X114608284Y-56368049D01*
X114698606Y-56149993D01*
X114759693Y-55922014D01*
X114790500Y-55688011D01*
X114790500Y-55451989D01*
X114759693Y-55217986D01*
X114698606Y-54990007D01*
X114666388Y-54912226D01*
X114608286Y-54771955D01*
X114601942Y-54760967D01*
X114490273Y-54567550D01*
X114490270Y-54567546D01*
X114346597Y-54380307D01*
X114346595Y-54380305D01*
X114346592Y-54380301D01*
X114179699Y-54213408D01*
X114179694Y-54213404D01*
X114179692Y-54213402D01*
X113992453Y-54069729D01*
X113788044Y-53951713D01*
X113569992Y-53861393D01*
X113414277Y-53819670D01*
X113342014Y-53800307D01*
X113342011Y-53800306D01*
X113342009Y-53800306D01*
X113108012Y-53769500D01*
X113108011Y-53769500D01*
X112871989Y-53769500D01*
X112871987Y-53769500D01*
X112637993Y-53800306D01*
X112637988Y-53800306D01*
X112410007Y-53861393D01*
X112191955Y-53951713D01*
X111987546Y-54069729D01*
X111800307Y-54213402D01*
X111633402Y-54380307D01*
X111489729Y-54567546D01*
X111371713Y-54771955D01*
X111281393Y-54990007D01*
X111220306Y-55217988D01*
X111220306Y-55217993D01*
X111189500Y-55451987D01*
X109500500Y-55451987D01*
X109500500Y-55072585D01*
X109500636Y-55067404D01*
X109500728Y-55065651D01*
X109516605Y-54762688D01*
X109517688Y-54752389D01*
X109517907Y-54751007D01*
X109565018Y-54453561D01*
X109567165Y-54443456D01*
X109645478Y-54151189D01*
X109648669Y-54141367D01*
X109757105Y-53858881D01*
X109761300Y-53849460D01*
X109898672Y-53579850D01*
X109903836Y-53570907D01*
X110068626Y-53317154D01*
X110074696Y-53308799D01*
X110265107Y-53073661D01*
X110272022Y-53065980D01*
X110485980Y-52852022D01*
X110493661Y-52845107D01*
X110728799Y-52654696D01*
X110737154Y-52648626D01*
X110990907Y-52483836D01*
X110999850Y-52478672D01*
X111269460Y-52341300D01*
X111278881Y-52337105D01*
X111561367Y-52228669D01*
X111571189Y-52225478D01*
X111863456Y-52147165D01*
X111873561Y-52145018D01*
X112172396Y-52097687D01*
X112182688Y-52096605D01*
X112487405Y-52080636D01*
X112492586Y-52080500D01*
X112493412Y-52080500D01*
X173486588Y-52080500D01*
X173487414Y-52080500D01*
X173492595Y-52080636D01*
G37*
G04 #@! TD.AperFunction*
M02*
