G04 #@! TF.GenerationSoftware,KiCad,Pcbnew,9.0.2*
G04 #@! TF.CreationDate,2025-06-10T18:41:31+02:00*
G04 #@! TF.ProjectId,RPI-Electronics_IO-Card.pro,5250492d-456c-4656-9374-726f6e696373,rev?*
G04 #@! TF.SameCoordinates,Original*
G04 #@! TF.FileFunction,Legend,Top*
G04 #@! TF.FilePolarity,Positive*
%FSLAX46Y46*%
G04 Gerber Fmt 4.6, Leading zero omitted, Abs format (unit mm)*
G04 Created by KiCad (PCBNEW 9.0.2) date 2025-06-10 18:41:31*
%MOMM*%
%LPD*%
G01*
G04 APERTURE LIST*
G04 Aperture macros list*
%AMFreePoly0*
4,1,5,0.750000,-0.750000,-0.750000,-0.750000,-0.750000,0.750000,0.750000,0.750000,0.750000,-0.750000,0.750000,-0.750000,$1*%
G04 Aperture macros list end*
%ADD10C,0.500000*%
%ADD11C,0.400000*%
%ADD12C,0.300000*%
%ADD13C,0.200000*%
%ADD14C,0.150000*%
%ADD15C,0.250000*%
%ADD16C,0.120000*%
%ADD17C,4.100000*%
%ADD18C,3.200000*%
%ADD19FreePoly0,90.000000*%
G04 APERTURE END LIST*
D10*
X137990000Y-91320000D02*
X137990000Y-88320000D01*
X153990000Y-83820000D02*
X153990000Y-80820000D01*
D11*
X137990000Y-66445000D02*
X137990000Y-68195000D01*
X122990000Y-66445000D02*
X122990000Y-68195000D01*
X122240000Y-68195000D02*
X123740000Y-68195000D01*
D12*
X165390000Y-86070000D02*
X167090000Y-86070000D01*
D11*
X125240000Y-100570000D02*
X128240000Y-100570000D01*
X137190000Y-68195000D02*
X138690000Y-68195000D01*
X156240000Y-100570000D02*
X160240000Y-100570000D01*
D12*
X158990000Y-64570000D02*
X173240000Y-64570000D01*
X173240000Y-96570000D01*
X158990000Y-96570000D01*
X158990000Y-64570000D01*
D11*
X132740000Y-100570000D02*
X135740000Y-100570000D01*
D12*
X165390000Y-93670000D02*
X167090000Y-93670000D01*
D10*
X153990000Y-76320000D02*
X153990000Y-73320000D01*
X122990000Y-83820000D02*
X122990000Y-80820000D01*
X122990000Y-91320000D02*
X122990000Y-88320000D01*
D12*
X142990000Y-64570000D02*
X157490000Y-64570000D01*
X157490000Y-96570000D01*
X142990000Y-96570000D01*
X142990000Y-64570000D01*
D11*
X140240000Y-100570000D02*
X144240000Y-100570000D01*
D12*
X112490000Y-64570000D02*
X141490000Y-64570000D01*
X141490000Y-96570000D01*
X112490000Y-96570000D01*
X112490000Y-64570000D01*
D10*
X153990000Y-91320000D02*
X153990000Y-88320000D01*
D12*
X118000000Y-97750000D02*
X168000000Y-97750000D01*
X168000000Y-103500000D01*
X118000000Y-103500000D01*
X118000000Y-97750000D01*
D10*
X122990000Y-76320000D02*
X122990000Y-73320000D01*
D11*
X153240000Y-68195000D02*
X154740000Y-68195000D01*
X148740000Y-100570000D02*
X151740000Y-100570000D01*
D10*
X137990000Y-83820000D02*
X137990000Y-80820000D01*
D11*
X153990000Y-66445000D02*
X153990000Y-68195000D01*
D12*
X165390000Y-71070000D02*
X167090000Y-71070000D01*
D10*
X137990000Y-76320000D02*
X137990000Y-73320000D01*
D12*
X165390000Y-78670000D02*
X167090000Y-78670000D01*
D13*
X118531004Y-102427143D02*
X119583385Y-102427143D01*
X119583385Y-102427143D02*
X119707195Y-102365238D01*
X119707195Y-102365238D02*
X119769100Y-102303333D01*
X119769100Y-102303333D02*
X119831004Y-102179524D01*
X119831004Y-102179524D02*
X119831004Y-101931905D01*
X119831004Y-101931905D02*
X119769100Y-101808095D01*
X119769100Y-101808095D02*
X119707195Y-101746190D01*
X119707195Y-101746190D02*
X119583385Y-101684286D01*
X119583385Y-101684286D02*
X118531004Y-101684286D01*
X119769100Y-101127142D02*
X119831004Y-101003333D01*
X119831004Y-101003333D02*
X119831004Y-100755714D01*
X119831004Y-100755714D02*
X119769100Y-100631904D01*
X119769100Y-100631904D02*
X119645290Y-100570000D01*
X119645290Y-100570000D02*
X119583385Y-100570000D01*
X119583385Y-100570000D02*
X119459576Y-100631904D01*
X119459576Y-100631904D02*
X119397671Y-100755714D01*
X119397671Y-100755714D02*
X119397671Y-100941428D01*
X119397671Y-100941428D02*
X119335766Y-101065238D01*
X119335766Y-101065238D02*
X119211957Y-101127142D01*
X119211957Y-101127142D02*
X119150052Y-101127142D01*
X119150052Y-101127142D02*
X119026242Y-101065238D01*
X119026242Y-101065238D02*
X118964338Y-100941428D01*
X118964338Y-100941428D02*
X118964338Y-100755714D01*
X118964338Y-100755714D02*
X119026242Y-100631904D01*
X119769100Y-99517619D02*
X119831004Y-99641428D01*
X119831004Y-99641428D02*
X119831004Y-99889047D01*
X119831004Y-99889047D02*
X119769100Y-100012857D01*
X119769100Y-100012857D02*
X119645290Y-100074761D01*
X119645290Y-100074761D02*
X119150052Y-100074761D01*
X119150052Y-100074761D02*
X119026242Y-100012857D01*
X119026242Y-100012857D02*
X118964338Y-99889047D01*
X118964338Y-99889047D02*
X118964338Y-99641428D01*
X118964338Y-99641428D02*
X119026242Y-99517619D01*
X119026242Y-99517619D02*
X119150052Y-99455714D01*
X119150052Y-99455714D02*
X119273861Y-99455714D01*
X119273861Y-99455714D02*
X119397671Y-100074761D01*
X119831004Y-98898571D02*
X118964338Y-98898571D01*
X119211957Y-98898571D02*
X119088147Y-98836666D01*
X119088147Y-98836666D02*
X119026242Y-98774761D01*
X119026242Y-98774761D02*
X118964338Y-98650952D01*
X118964338Y-98650952D02*
X118964338Y-98527142D01*
X167198995Y-98712856D02*
X166146614Y-98712856D01*
X166146614Y-98712856D02*
X166022804Y-98774761D01*
X166022804Y-98774761D02*
X165960900Y-98836666D01*
X165960900Y-98836666D02*
X165898995Y-98960475D01*
X165898995Y-98960475D02*
X165898995Y-99208094D01*
X165898995Y-99208094D02*
X165960900Y-99331904D01*
X165960900Y-99331904D02*
X166022804Y-99393809D01*
X166022804Y-99393809D02*
X166146614Y-99455713D01*
X166146614Y-99455713D02*
X167198995Y-99455713D01*
X165960900Y-100012857D02*
X165898995Y-100136666D01*
X165898995Y-100136666D02*
X165898995Y-100384285D01*
X165898995Y-100384285D02*
X165960900Y-100508095D01*
X165960900Y-100508095D02*
X166084709Y-100569999D01*
X166084709Y-100569999D02*
X166146614Y-100569999D01*
X166146614Y-100569999D02*
X166270423Y-100508095D01*
X166270423Y-100508095D02*
X166332328Y-100384285D01*
X166332328Y-100384285D02*
X166332328Y-100198571D01*
X166332328Y-100198571D02*
X166394233Y-100074761D01*
X166394233Y-100074761D02*
X166518042Y-100012857D01*
X166518042Y-100012857D02*
X166579947Y-100012857D01*
X166579947Y-100012857D02*
X166703757Y-100074761D01*
X166703757Y-100074761D02*
X166765661Y-100198571D01*
X166765661Y-100198571D02*
X166765661Y-100384285D01*
X166765661Y-100384285D02*
X166703757Y-100508095D01*
X165960900Y-101622380D02*
X165898995Y-101498571D01*
X165898995Y-101498571D02*
X165898995Y-101250952D01*
X165898995Y-101250952D02*
X165960900Y-101127142D01*
X165960900Y-101127142D02*
X166084709Y-101065238D01*
X166084709Y-101065238D02*
X166579947Y-101065238D01*
X166579947Y-101065238D02*
X166703757Y-101127142D01*
X166703757Y-101127142D02*
X166765661Y-101250952D01*
X166765661Y-101250952D02*
X166765661Y-101498571D01*
X166765661Y-101498571D02*
X166703757Y-101622380D01*
X166703757Y-101622380D02*
X166579947Y-101684285D01*
X166579947Y-101684285D02*
X166456138Y-101684285D01*
X166456138Y-101684285D02*
X166332328Y-101065238D01*
X165898995Y-102241428D02*
X166765661Y-102241428D01*
X166518042Y-102241428D02*
X166641852Y-102303333D01*
X166641852Y-102303333D02*
X166703757Y-102365238D01*
X166703757Y-102365238D02*
X166765661Y-102489047D01*
X166765661Y-102489047D02*
X166765661Y-102612857D01*
D14*
X138370951Y-54191819D02*
X138370951Y-54906104D01*
X138370951Y-54906104D02*
X138323332Y-55048961D01*
X138323332Y-55048961D02*
X138228094Y-55144200D01*
X138228094Y-55144200D02*
X138085237Y-55191819D01*
X138085237Y-55191819D02*
X137989999Y-55191819D01*
X139323332Y-55191819D02*
X138847142Y-55191819D01*
X138847142Y-55191819D02*
X138847142Y-54191819D01*
X140228094Y-55096580D02*
X140180475Y-55144200D01*
X140180475Y-55144200D02*
X140037618Y-55191819D01*
X140037618Y-55191819D02*
X139942380Y-55191819D01*
X139942380Y-55191819D02*
X139799523Y-55144200D01*
X139799523Y-55144200D02*
X139704285Y-55048961D01*
X139704285Y-55048961D02*
X139656666Y-54953723D01*
X139656666Y-54953723D02*
X139609047Y-54763247D01*
X139609047Y-54763247D02*
X139609047Y-54620390D01*
X139609047Y-54620390D02*
X139656666Y-54429914D01*
X139656666Y-54429914D02*
X139704285Y-54334676D01*
X139704285Y-54334676D02*
X139799523Y-54239438D01*
X139799523Y-54239438D02*
X139942380Y-54191819D01*
X139942380Y-54191819D02*
X140037618Y-54191819D01*
X140037618Y-54191819D02*
X140180475Y-54239438D01*
X140180475Y-54239438D02*
X140228094Y-54287057D01*
X140942380Y-54191819D02*
X140942380Y-54906104D01*
X140942380Y-54906104D02*
X140894761Y-55048961D01*
X140894761Y-55048961D02*
X140799523Y-55144200D01*
X140799523Y-55144200D02*
X140656666Y-55191819D01*
X140656666Y-55191819D02*
X140561428Y-55191819D01*
X141894761Y-55191819D02*
X141418571Y-55191819D01*
X141418571Y-55191819D02*
X141418571Y-54191819D01*
X142799523Y-55096580D02*
X142751904Y-55144200D01*
X142751904Y-55144200D02*
X142609047Y-55191819D01*
X142609047Y-55191819D02*
X142513809Y-55191819D01*
X142513809Y-55191819D02*
X142370952Y-55144200D01*
X142370952Y-55144200D02*
X142275714Y-55048961D01*
X142275714Y-55048961D02*
X142228095Y-54953723D01*
X142228095Y-54953723D02*
X142180476Y-54763247D01*
X142180476Y-54763247D02*
X142180476Y-54620390D01*
X142180476Y-54620390D02*
X142228095Y-54429914D01*
X142228095Y-54429914D02*
X142275714Y-54334676D01*
X142275714Y-54334676D02*
X142370952Y-54239438D01*
X142370952Y-54239438D02*
X142513809Y-54191819D01*
X142513809Y-54191819D02*
X142609047Y-54191819D01*
X142609047Y-54191819D02*
X142751904Y-54239438D01*
X142751904Y-54239438D02*
X142799523Y-54287057D01*
X143513809Y-54191819D02*
X143513809Y-54906104D01*
X143513809Y-54906104D02*
X143466190Y-55048961D01*
X143466190Y-55048961D02*
X143370952Y-55144200D01*
X143370952Y-55144200D02*
X143228095Y-55191819D01*
X143228095Y-55191819D02*
X143132857Y-55191819D01*
X144466190Y-55191819D02*
X143990000Y-55191819D01*
X143990000Y-55191819D02*
X143990000Y-54191819D01*
X145370952Y-55096580D02*
X145323333Y-55144200D01*
X145323333Y-55144200D02*
X145180476Y-55191819D01*
X145180476Y-55191819D02*
X145085238Y-55191819D01*
X145085238Y-55191819D02*
X144942381Y-55144200D01*
X144942381Y-55144200D02*
X144847143Y-55048961D01*
X144847143Y-55048961D02*
X144799524Y-54953723D01*
X144799524Y-54953723D02*
X144751905Y-54763247D01*
X144751905Y-54763247D02*
X144751905Y-54620390D01*
X144751905Y-54620390D02*
X144799524Y-54429914D01*
X144799524Y-54429914D02*
X144847143Y-54334676D01*
X144847143Y-54334676D02*
X144942381Y-54239438D01*
X144942381Y-54239438D02*
X145085238Y-54191819D01*
X145085238Y-54191819D02*
X145180476Y-54191819D01*
X145180476Y-54191819D02*
X145323333Y-54239438D01*
X145323333Y-54239438D02*
X145370952Y-54287057D01*
X146085238Y-54191819D02*
X146085238Y-54906104D01*
X146085238Y-54906104D02*
X146037619Y-55048961D01*
X146037619Y-55048961D02*
X145942381Y-55144200D01*
X145942381Y-55144200D02*
X145799524Y-55191819D01*
X145799524Y-55191819D02*
X145704286Y-55191819D01*
X147037619Y-55191819D02*
X146561429Y-55191819D01*
X146561429Y-55191819D02*
X146561429Y-54191819D01*
X147942381Y-55096580D02*
X147894762Y-55144200D01*
X147894762Y-55144200D02*
X147751905Y-55191819D01*
X147751905Y-55191819D02*
X147656667Y-55191819D01*
X147656667Y-55191819D02*
X147513810Y-55144200D01*
X147513810Y-55144200D02*
X147418572Y-55048961D01*
X147418572Y-55048961D02*
X147370953Y-54953723D01*
X147370953Y-54953723D02*
X147323334Y-54763247D01*
X147323334Y-54763247D02*
X147323334Y-54620390D01*
X147323334Y-54620390D02*
X147370953Y-54429914D01*
X147370953Y-54429914D02*
X147418572Y-54334676D01*
X147418572Y-54334676D02*
X147513810Y-54239438D01*
X147513810Y-54239438D02*
X147656667Y-54191819D01*
X147656667Y-54191819D02*
X147751905Y-54191819D01*
X147751905Y-54191819D02*
X147894762Y-54239438D01*
X147894762Y-54239438D02*
X147942381Y-54287057D01*
D15*
X112037619Y-60245275D02*
X112532857Y-60245275D01*
X112223333Y-61111941D02*
X112223333Y-59997656D01*
X112223333Y-59997656D02*
X112285238Y-59873846D01*
X112285238Y-59873846D02*
X112409048Y-59811941D01*
X112409048Y-59811941D02*
X112532857Y-59811941D01*
X112780476Y-60245275D02*
X113275714Y-60245275D01*
X112966190Y-59811941D02*
X112966190Y-60926227D01*
X112966190Y-60926227D02*
X113028095Y-61050037D01*
X113028095Y-61050037D02*
X113151905Y-61111941D01*
X113151905Y-61111941D02*
X113275714Y-61111941D01*
X113709047Y-60616703D02*
X114699524Y-60616703D01*
X116061428Y-61111941D02*
X115628095Y-60492894D01*
X115318571Y-61111941D02*
X115318571Y-59811941D01*
X115318571Y-59811941D02*
X115813809Y-59811941D01*
X115813809Y-59811941D02*
X115937619Y-59873846D01*
X115937619Y-59873846D02*
X115999524Y-59935751D01*
X115999524Y-59935751D02*
X116061428Y-60059560D01*
X116061428Y-60059560D02*
X116061428Y-60245275D01*
X116061428Y-60245275D02*
X115999524Y-60369084D01*
X115999524Y-60369084D02*
X115937619Y-60430989D01*
X115937619Y-60430989D02*
X115813809Y-60492894D01*
X115813809Y-60492894D02*
X115318571Y-60492894D01*
X116618571Y-61111941D02*
X116618571Y-59811941D01*
X116618571Y-59811941D02*
X117113809Y-59811941D01*
X117113809Y-59811941D02*
X117237619Y-59873846D01*
X117237619Y-59873846D02*
X117299524Y-59935751D01*
X117299524Y-59935751D02*
X117361428Y-60059560D01*
X117361428Y-60059560D02*
X117361428Y-60245275D01*
X117361428Y-60245275D02*
X117299524Y-60369084D01*
X117299524Y-60369084D02*
X117237619Y-60430989D01*
X117237619Y-60430989D02*
X117113809Y-60492894D01*
X117113809Y-60492894D02*
X116618571Y-60492894D01*
X117918571Y-61111941D02*
X117918571Y-59811941D01*
X118537619Y-60616703D02*
X119528096Y-60616703D01*
X120085239Y-61050037D02*
X120209048Y-61111941D01*
X120209048Y-61111941D02*
X120456667Y-61111941D01*
X120456667Y-61111941D02*
X120580477Y-61050037D01*
X120580477Y-61050037D02*
X120642381Y-60926227D01*
X120642381Y-60926227D02*
X120642381Y-60864322D01*
X120642381Y-60864322D02*
X120580477Y-60740513D01*
X120580477Y-60740513D02*
X120456667Y-60678608D01*
X120456667Y-60678608D02*
X120270953Y-60678608D01*
X120270953Y-60678608D02*
X120147143Y-60616703D01*
X120147143Y-60616703D02*
X120085239Y-60492894D01*
X120085239Y-60492894D02*
X120085239Y-60430989D01*
X120085239Y-60430989D02*
X120147143Y-60307179D01*
X120147143Y-60307179D02*
X120270953Y-60245275D01*
X120270953Y-60245275D02*
X120456667Y-60245275D01*
X120456667Y-60245275D02*
X120580477Y-60307179D01*
X121756667Y-61111941D02*
X121756667Y-60430989D01*
X121756667Y-60430989D02*
X121694762Y-60307179D01*
X121694762Y-60307179D02*
X121570953Y-60245275D01*
X121570953Y-60245275D02*
X121323334Y-60245275D01*
X121323334Y-60245275D02*
X121199524Y-60307179D01*
X121756667Y-61050037D02*
X121632858Y-61111941D01*
X121632858Y-61111941D02*
X121323334Y-61111941D01*
X121323334Y-61111941D02*
X121199524Y-61050037D01*
X121199524Y-61050037D02*
X121137620Y-60926227D01*
X121137620Y-60926227D02*
X121137620Y-60802417D01*
X121137620Y-60802417D02*
X121199524Y-60678608D01*
X121199524Y-60678608D02*
X121323334Y-60616703D01*
X121323334Y-60616703D02*
X121632858Y-60616703D01*
X121632858Y-60616703D02*
X121756667Y-60554798D01*
X113213810Y-63081059D02*
X113151906Y-63142964D01*
X113151906Y-63142964D02*
X112966191Y-63204868D01*
X112966191Y-63204868D02*
X112842382Y-63204868D01*
X112842382Y-63204868D02*
X112656668Y-63142964D01*
X112656668Y-63142964D02*
X112532858Y-63019154D01*
X112532858Y-63019154D02*
X112470953Y-62895344D01*
X112470953Y-62895344D02*
X112409049Y-62647725D01*
X112409049Y-62647725D02*
X112409049Y-62462011D01*
X112409049Y-62462011D02*
X112470953Y-62214392D01*
X112470953Y-62214392D02*
X112532858Y-62090583D01*
X112532858Y-62090583D02*
X112656668Y-61966773D01*
X112656668Y-61966773D02*
X112842382Y-61904868D01*
X112842382Y-61904868D02*
X112966191Y-61904868D01*
X112966191Y-61904868D02*
X113151906Y-61966773D01*
X113151906Y-61966773D02*
X113213810Y-62028678D01*
X113956668Y-63204868D02*
X113832858Y-63142964D01*
X113832858Y-63142964D02*
X113770953Y-63081059D01*
X113770953Y-63081059D02*
X113709049Y-62957249D01*
X113709049Y-62957249D02*
X113709049Y-62585821D01*
X113709049Y-62585821D02*
X113770953Y-62462011D01*
X113770953Y-62462011D02*
X113832858Y-62400106D01*
X113832858Y-62400106D02*
X113956668Y-62338202D01*
X113956668Y-62338202D02*
X114142382Y-62338202D01*
X114142382Y-62338202D02*
X114266191Y-62400106D01*
X114266191Y-62400106D02*
X114328096Y-62462011D01*
X114328096Y-62462011D02*
X114390001Y-62585821D01*
X114390001Y-62585821D02*
X114390001Y-62957249D01*
X114390001Y-62957249D02*
X114328096Y-63081059D01*
X114328096Y-63081059D02*
X114266191Y-63142964D01*
X114266191Y-63142964D02*
X114142382Y-63204868D01*
X114142382Y-63204868D02*
X113956668Y-63204868D01*
X114947143Y-62338202D02*
X114947143Y-63204868D01*
X114947143Y-62462011D02*
X115009048Y-62400106D01*
X115009048Y-62400106D02*
X115132858Y-62338202D01*
X115132858Y-62338202D02*
X115318572Y-62338202D01*
X115318572Y-62338202D02*
X115442381Y-62400106D01*
X115442381Y-62400106D02*
X115504286Y-62523916D01*
X115504286Y-62523916D02*
X115504286Y-63204868D01*
X115937619Y-62338202D02*
X116432857Y-62338202D01*
X116123333Y-61904868D02*
X116123333Y-63019154D01*
X116123333Y-63019154D02*
X116185238Y-63142964D01*
X116185238Y-63142964D02*
X116309048Y-63204868D01*
X116309048Y-63204868D02*
X116432857Y-63204868D01*
X116866190Y-63204868D02*
X116866190Y-62338202D01*
X116866190Y-62585821D02*
X116928095Y-62462011D01*
X116928095Y-62462011D02*
X116990000Y-62400106D01*
X116990000Y-62400106D02*
X117113809Y-62338202D01*
X117113809Y-62338202D02*
X117237619Y-62338202D01*
X117856667Y-63204868D02*
X117732857Y-63142964D01*
X117732857Y-63142964D02*
X117670952Y-63081059D01*
X117670952Y-63081059D02*
X117609048Y-62957249D01*
X117609048Y-62957249D02*
X117609048Y-62585821D01*
X117609048Y-62585821D02*
X117670952Y-62462011D01*
X117670952Y-62462011D02*
X117732857Y-62400106D01*
X117732857Y-62400106D02*
X117856667Y-62338202D01*
X117856667Y-62338202D02*
X118042381Y-62338202D01*
X118042381Y-62338202D02*
X118166190Y-62400106D01*
X118166190Y-62400106D02*
X118228095Y-62462011D01*
X118228095Y-62462011D02*
X118290000Y-62585821D01*
X118290000Y-62585821D02*
X118290000Y-62957249D01*
X118290000Y-62957249D02*
X118228095Y-63081059D01*
X118228095Y-63081059D02*
X118166190Y-63142964D01*
X118166190Y-63142964D02*
X118042381Y-63204868D01*
X118042381Y-63204868D02*
X117856667Y-63204868D01*
X119032857Y-63204868D02*
X118909047Y-63142964D01*
X118909047Y-63142964D02*
X118847142Y-63019154D01*
X118847142Y-63019154D02*
X118847142Y-61904868D01*
X119713809Y-63204868D02*
X119589999Y-63142964D01*
X119589999Y-63142964D02*
X119528094Y-63019154D01*
X119528094Y-63019154D02*
X119528094Y-61904868D01*
X120704284Y-63142964D02*
X120580475Y-63204868D01*
X120580475Y-63204868D02*
X120332856Y-63204868D01*
X120332856Y-63204868D02*
X120209046Y-63142964D01*
X120209046Y-63142964D02*
X120147142Y-63019154D01*
X120147142Y-63019154D02*
X120147142Y-62523916D01*
X120147142Y-62523916D02*
X120209046Y-62400106D01*
X120209046Y-62400106D02*
X120332856Y-62338202D01*
X120332856Y-62338202D02*
X120580475Y-62338202D01*
X120580475Y-62338202D02*
X120704284Y-62400106D01*
X120704284Y-62400106D02*
X120766189Y-62523916D01*
X120766189Y-62523916D02*
X120766189Y-62647725D01*
X120766189Y-62647725D02*
X120147142Y-62771535D01*
X121323332Y-63204868D02*
X121323332Y-62338202D01*
X121323332Y-62585821D02*
X121385237Y-62462011D01*
X121385237Y-62462011D02*
X121447142Y-62400106D01*
X121447142Y-62400106D02*
X121570951Y-62338202D01*
X121570951Y-62338202D02*
X121694761Y-62338202D01*
X165316190Y-62658404D02*
X165316190Y-61358404D01*
X166863810Y-61296500D02*
X165749524Y-62967928D01*
X167544762Y-61358404D02*
X167792381Y-61358404D01*
X167792381Y-61358404D02*
X167916191Y-61420309D01*
X167916191Y-61420309D02*
X168040000Y-61544119D01*
X168040000Y-61544119D02*
X168101905Y-61791738D01*
X168101905Y-61791738D02*
X168101905Y-62225071D01*
X168101905Y-62225071D02*
X168040000Y-62472690D01*
X168040000Y-62472690D02*
X167916191Y-62596500D01*
X167916191Y-62596500D02*
X167792381Y-62658404D01*
X167792381Y-62658404D02*
X167544762Y-62658404D01*
X167544762Y-62658404D02*
X167420953Y-62596500D01*
X167420953Y-62596500D02*
X167297143Y-62472690D01*
X167297143Y-62472690D02*
X167235239Y-62225071D01*
X167235239Y-62225071D02*
X167235239Y-61791738D01*
X167235239Y-61791738D02*
X167297143Y-61544119D01*
X167297143Y-61544119D02*
X167420953Y-61420309D01*
X167420953Y-61420309D02*
X167544762Y-61358404D01*
X170082858Y-61977452D02*
X170268572Y-62039357D01*
X170268572Y-62039357D02*
X170330477Y-62101261D01*
X170330477Y-62101261D02*
X170392381Y-62225071D01*
X170392381Y-62225071D02*
X170392381Y-62410785D01*
X170392381Y-62410785D02*
X170330477Y-62534595D01*
X170330477Y-62534595D02*
X170268572Y-62596500D01*
X170268572Y-62596500D02*
X170144762Y-62658404D01*
X170144762Y-62658404D02*
X169649524Y-62658404D01*
X169649524Y-62658404D02*
X169649524Y-61358404D01*
X169649524Y-61358404D02*
X170082858Y-61358404D01*
X170082858Y-61358404D02*
X170206667Y-61420309D01*
X170206667Y-61420309D02*
X170268572Y-61482214D01*
X170268572Y-61482214D02*
X170330477Y-61606023D01*
X170330477Y-61606023D02*
X170330477Y-61729833D01*
X170330477Y-61729833D02*
X170268572Y-61853642D01*
X170268572Y-61853642D02*
X170206667Y-61915547D01*
X170206667Y-61915547D02*
X170082858Y-61977452D01*
X170082858Y-61977452D02*
X169649524Y-61977452D01*
X171135239Y-62658404D02*
X171011429Y-62596500D01*
X171011429Y-62596500D02*
X170949524Y-62534595D01*
X170949524Y-62534595D02*
X170887620Y-62410785D01*
X170887620Y-62410785D02*
X170887620Y-62039357D01*
X170887620Y-62039357D02*
X170949524Y-61915547D01*
X170949524Y-61915547D02*
X171011429Y-61853642D01*
X171011429Y-61853642D02*
X171135239Y-61791738D01*
X171135239Y-61791738D02*
X171320953Y-61791738D01*
X171320953Y-61791738D02*
X171444762Y-61853642D01*
X171444762Y-61853642D02*
X171506667Y-61915547D01*
X171506667Y-61915547D02*
X171568572Y-62039357D01*
X171568572Y-62039357D02*
X171568572Y-62410785D01*
X171568572Y-62410785D02*
X171506667Y-62534595D01*
X171506667Y-62534595D02*
X171444762Y-62596500D01*
X171444762Y-62596500D02*
X171320953Y-62658404D01*
X171320953Y-62658404D02*
X171135239Y-62658404D01*
X172682857Y-62658404D02*
X172682857Y-61977452D01*
X172682857Y-61977452D02*
X172620952Y-61853642D01*
X172620952Y-61853642D02*
X172497143Y-61791738D01*
X172497143Y-61791738D02*
X172249524Y-61791738D01*
X172249524Y-61791738D02*
X172125714Y-61853642D01*
X172682857Y-62596500D02*
X172559048Y-62658404D01*
X172559048Y-62658404D02*
X172249524Y-62658404D01*
X172249524Y-62658404D02*
X172125714Y-62596500D01*
X172125714Y-62596500D02*
X172063810Y-62472690D01*
X172063810Y-62472690D02*
X172063810Y-62348880D01*
X172063810Y-62348880D02*
X172125714Y-62225071D01*
X172125714Y-62225071D02*
X172249524Y-62163166D01*
X172249524Y-62163166D02*
X172559048Y-62163166D01*
X172559048Y-62163166D02*
X172682857Y-62101261D01*
X173301904Y-62658404D02*
X173301904Y-61791738D01*
X173301904Y-62039357D02*
X173363809Y-61915547D01*
X173363809Y-61915547D02*
X173425714Y-61853642D01*
X173425714Y-61853642D02*
X173549523Y-61791738D01*
X173549523Y-61791738D02*
X173673333Y-61791738D01*
X174663809Y-62658404D02*
X174663809Y-61358404D01*
X174663809Y-62596500D02*
X174540000Y-62658404D01*
X174540000Y-62658404D02*
X174292381Y-62658404D01*
X174292381Y-62658404D02*
X174168571Y-62596500D01*
X174168571Y-62596500D02*
X174106666Y-62534595D01*
X174106666Y-62534595D02*
X174044762Y-62410785D01*
X174044762Y-62410785D02*
X174044762Y-62039357D01*
X174044762Y-62039357D02*
X174106666Y-61915547D01*
X174106666Y-61915547D02*
X174168571Y-61853642D01*
X174168571Y-61853642D02*
X174292381Y-61791738D01*
X174292381Y-61791738D02*
X174540000Y-61791738D01*
X174540000Y-61791738D02*
X174663809Y-61853642D01*
D12*
X129537619Y-83479638D02*
X129537619Y-81479638D01*
X130299524Y-81479638D02*
X131632857Y-81479638D01*
X131632857Y-81479638D02*
X130775714Y-83479638D01*
X168847142Y-73979638D02*
X169228095Y-73979638D01*
X169228095Y-73979638D02*
X169418571Y-74074876D01*
X169418571Y-74074876D02*
X169609047Y-74265352D01*
X169609047Y-74265352D02*
X169704285Y-74646304D01*
X169704285Y-74646304D02*
X169704285Y-75312971D01*
X169704285Y-75312971D02*
X169609047Y-75693923D01*
X169609047Y-75693923D02*
X169418571Y-75884400D01*
X169418571Y-75884400D02*
X169228095Y-75979638D01*
X169228095Y-75979638D02*
X168847142Y-75979638D01*
X168847142Y-75979638D02*
X168656666Y-75884400D01*
X168656666Y-75884400D02*
X168466190Y-75693923D01*
X168466190Y-75693923D02*
X168370952Y-75312971D01*
X168370952Y-75312971D02*
X168370952Y-74646304D01*
X168370952Y-74646304D02*
X168466190Y-74265352D01*
X168466190Y-74265352D02*
X168656666Y-74074876D01*
X168656666Y-74074876D02*
X168847142Y-73979638D01*
X171418571Y-74646304D02*
X171418571Y-75979638D01*
X170942380Y-73884400D02*
X170466190Y-75312971D01*
X170466190Y-75312971D02*
X171704285Y-75312971D01*
X161097142Y-73979638D02*
X161478095Y-73979638D01*
X161478095Y-73979638D02*
X161668571Y-74074876D01*
X161668571Y-74074876D02*
X161859047Y-74265352D01*
X161859047Y-74265352D02*
X161954285Y-74646304D01*
X161954285Y-74646304D02*
X161954285Y-75312971D01*
X161954285Y-75312971D02*
X161859047Y-75693923D01*
X161859047Y-75693923D02*
X161668571Y-75884400D01*
X161668571Y-75884400D02*
X161478095Y-75979638D01*
X161478095Y-75979638D02*
X161097142Y-75979638D01*
X161097142Y-75979638D02*
X160906666Y-75884400D01*
X160906666Y-75884400D02*
X160716190Y-75693923D01*
X160716190Y-75693923D02*
X160620952Y-75312971D01*
X160620952Y-75312971D02*
X160620952Y-74646304D01*
X160620952Y-74646304D02*
X160716190Y-74265352D01*
X160716190Y-74265352D02*
X160906666Y-74074876D01*
X160906666Y-74074876D02*
X161097142Y-73979638D01*
X162620952Y-73979638D02*
X163859047Y-73979638D01*
X163859047Y-73979638D02*
X163192380Y-74741542D01*
X163192380Y-74741542D02*
X163478095Y-74741542D01*
X163478095Y-74741542D02*
X163668571Y-74836780D01*
X163668571Y-74836780D02*
X163763809Y-74932019D01*
X163763809Y-74932019D02*
X163859047Y-75122495D01*
X163859047Y-75122495D02*
X163859047Y-75598685D01*
X163859047Y-75598685D02*
X163763809Y-75789161D01*
X163763809Y-75789161D02*
X163668571Y-75884400D01*
X163668571Y-75884400D02*
X163478095Y-75979638D01*
X163478095Y-75979638D02*
X162906666Y-75979638D01*
X162906666Y-75979638D02*
X162716190Y-75884400D01*
X162716190Y-75884400D02*
X162620952Y-75789161D01*
X146156666Y-90789161D02*
X146061428Y-90884400D01*
X146061428Y-90884400D02*
X145775714Y-90979638D01*
X145775714Y-90979638D02*
X145585238Y-90979638D01*
X145585238Y-90979638D02*
X145299523Y-90884400D01*
X145299523Y-90884400D02*
X145109047Y-90693923D01*
X145109047Y-90693923D02*
X145013809Y-90503447D01*
X145013809Y-90503447D02*
X144918571Y-90122495D01*
X144918571Y-90122495D02*
X144918571Y-89836780D01*
X144918571Y-89836780D02*
X145013809Y-89455828D01*
X145013809Y-89455828D02*
X145109047Y-89265352D01*
X145109047Y-89265352D02*
X145299523Y-89074876D01*
X145299523Y-89074876D02*
X145585238Y-88979638D01*
X145585238Y-88979638D02*
X145775714Y-88979638D01*
X145775714Y-88979638D02*
X146061428Y-89074876D01*
X146061428Y-89074876D02*
X146156666Y-89170114D01*
X147870952Y-89646304D02*
X147870952Y-90979638D01*
X147394761Y-88884400D02*
X146918571Y-90312971D01*
X146918571Y-90312971D02*
X148156666Y-90312971D01*
X146156666Y-68289161D02*
X146061428Y-68384400D01*
X146061428Y-68384400D02*
X145775714Y-68479638D01*
X145775714Y-68479638D02*
X145585238Y-68479638D01*
X145585238Y-68479638D02*
X145299523Y-68384400D01*
X145299523Y-68384400D02*
X145109047Y-68193923D01*
X145109047Y-68193923D02*
X145013809Y-68003447D01*
X145013809Y-68003447D02*
X144918571Y-67622495D01*
X144918571Y-67622495D02*
X144918571Y-67336780D01*
X144918571Y-67336780D02*
X145013809Y-66955828D01*
X145013809Y-66955828D02*
X145109047Y-66765352D01*
X145109047Y-66765352D02*
X145299523Y-66574876D01*
X145299523Y-66574876D02*
X145585238Y-66479638D01*
X145585238Y-66479638D02*
X145775714Y-66479638D01*
X145775714Y-66479638D02*
X146061428Y-66574876D01*
X146061428Y-66574876D02*
X146156666Y-66670114D01*
X148061428Y-68479638D02*
X146918571Y-68479638D01*
X147489999Y-68479638D02*
X147489999Y-66479638D01*
X147489999Y-66479638D02*
X147299523Y-66765352D01*
X147299523Y-66765352D02*
X147109047Y-66955828D01*
X147109047Y-66955828D02*
X146918571Y-67051066D01*
X168847142Y-81479638D02*
X169228095Y-81479638D01*
X169228095Y-81479638D02*
X169418571Y-81574876D01*
X169418571Y-81574876D02*
X169609047Y-81765352D01*
X169609047Y-81765352D02*
X169704285Y-82146304D01*
X169704285Y-82146304D02*
X169704285Y-82812971D01*
X169704285Y-82812971D02*
X169609047Y-83193923D01*
X169609047Y-83193923D02*
X169418571Y-83384400D01*
X169418571Y-83384400D02*
X169228095Y-83479638D01*
X169228095Y-83479638D02*
X168847142Y-83479638D01*
X168847142Y-83479638D02*
X168656666Y-83384400D01*
X168656666Y-83384400D02*
X168466190Y-83193923D01*
X168466190Y-83193923D02*
X168370952Y-82812971D01*
X168370952Y-82812971D02*
X168370952Y-82146304D01*
X168370952Y-82146304D02*
X168466190Y-81765352D01*
X168466190Y-81765352D02*
X168656666Y-81574876D01*
X168656666Y-81574876D02*
X168847142Y-81479638D01*
X171418571Y-81479638D02*
X171037618Y-81479638D01*
X171037618Y-81479638D02*
X170847142Y-81574876D01*
X170847142Y-81574876D02*
X170751904Y-81670114D01*
X170751904Y-81670114D02*
X170561428Y-81955828D01*
X170561428Y-81955828D02*
X170466190Y-82336780D01*
X170466190Y-82336780D02*
X170466190Y-83098685D01*
X170466190Y-83098685D02*
X170561428Y-83289161D01*
X170561428Y-83289161D02*
X170656666Y-83384400D01*
X170656666Y-83384400D02*
X170847142Y-83479638D01*
X170847142Y-83479638D02*
X171228095Y-83479638D01*
X171228095Y-83479638D02*
X171418571Y-83384400D01*
X171418571Y-83384400D02*
X171513809Y-83289161D01*
X171513809Y-83289161D02*
X171609047Y-83098685D01*
X171609047Y-83098685D02*
X171609047Y-82622495D01*
X171609047Y-82622495D02*
X171513809Y-82432019D01*
X171513809Y-82432019D02*
X171418571Y-82336780D01*
X171418571Y-82336780D02*
X171228095Y-82241542D01*
X171228095Y-82241542D02*
X170847142Y-82241542D01*
X170847142Y-82241542D02*
X170656666Y-82336780D01*
X170656666Y-82336780D02*
X170561428Y-82432019D01*
X170561428Y-82432019D02*
X170466190Y-82622495D01*
X114537619Y-90979638D02*
X114537619Y-88979638D01*
X116347143Y-89646304D02*
X116347143Y-90979638D01*
X115870952Y-88884400D02*
X115394762Y-90312971D01*
X115394762Y-90312971D02*
X116632857Y-90312971D01*
X161347142Y-88979638D02*
X161728095Y-88979638D01*
X161728095Y-88979638D02*
X161918571Y-89074876D01*
X161918571Y-89074876D02*
X162109047Y-89265352D01*
X162109047Y-89265352D02*
X162204285Y-89646304D01*
X162204285Y-89646304D02*
X162204285Y-90312971D01*
X162204285Y-90312971D02*
X162109047Y-90693923D01*
X162109047Y-90693923D02*
X161918571Y-90884400D01*
X161918571Y-90884400D02*
X161728095Y-90979638D01*
X161728095Y-90979638D02*
X161347142Y-90979638D01*
X161347142Y-90979638D02*
X161156666Y-90884400D01*
X161156666Y-90884400D02*
X160966190Y-90693923D01*
X160966190Y-90693923D02*
X160870952Y-90312971D01*
X160870952Y-90312971D02*
X160870952Y-89646304D01*
X160870952Y-89646304D02*
X160966190Y-89265352D01*
X160966190Y-89265352D02*
X161156666Y-89074876D01*
X161156666Y-89074876D02*
X161347142Y-88979638D01*
X162870952Y-88979638D02*
X164204285Y-88979638D01*
X164204285Y-88979638D02*
X163347142Y-90979638D01*
X129537619Y-68479638D02*
X129537619Y-66479638D01*
X131442381Y-66479638D02*
X130490000Y-66479638D01*
X130490000Y-66479638D02*
X130394762Y-67432019D01*
X130394762Y-67432019D02*
X130490000Y-67336780D01*
X130490000Y-67336780D02*
X130680476Y-67241542D01*
X130680476Y-67241542D02*
X131156667Y-67241542D01*
X131156667Y-67241542D02*
X131347143Y-67336780D01*
X131347143Y-67336780D02*
X131442381Y-67432019D01*
X131442381Y-67432019D02*
X131537619Y-67622495D01*
X131537619Y-67622495D02*
X131537619Y-68098685D01*
X131537619Y-68098685D02*
X131442381Y-68289161D01*
X131442381Y-68289161D02*
X131347143Y-68384400D01*
X131347143Y-68384400D02*
X131156667Y-68479638D01*
X131156667Y-68479638D02*
X130680476Y-68479638D01*
X130680476Y-68479638D02*
X130490000Y-68384400D01*
X130490000Y-68384400D02*
X130394762Y-68289161D01*
X146156666Y-83289161D02*
X146061428Y-83384400D01*
X146061428Y-83384400D02*
X145775714Y-83479638D01*
X145775714Y-83479638D02*
X145585238Y-83479638D01*
X145585238Y-83479638D02*
X145299523Y-83384400D01*
X145299523Y-83384400D02*
X145109047Y-83193923D01*
X145109047Y-83193923D02*
X145013809Y-83003447D01*
X145013809Y-83003447D02*
X144918571Y-82622495D01*
X144918571Y-82622495D02*
X144918571Y-82336780D01*
X144918571Y-82336780D02*
X145013809Y-81955828D01*
X145013809Y-81955828D02*
X145109047Y-81765352D01*
X145109047Y-81765352D02*
X145299523Y-81574876D01*
X145299523Y-81574876D02*
X145585238Y-81479638D01*
X145585238Y-81479638D02*
X145775714Y-81479638D01*
X145775714Y-81479638D02*
X146061428Y-81574876D01*
X146061428Y-81574876D02*
X146156666Y-81670114D01*
X146823333Y-81479638D02*
X148061428Y-81479638D01*
X148061428Y-81479638D02*
X147394761Y-82241542D01*
X147394761Y-82241542D02*
X147680476Y-82241542D01*
X147680476Y-82241542D02*
X147870952Y-82336780D01*
X147870952Y-82336780D02*
X147966190Y-82432019D01*
X147966190Y-82432019D02*
X148061428Y-82622495D01*
X148061428Y-82622495D02*
X148061428Y-83098685D01*
X148061428Y-83098685D02*
X147966190Y-83289161D01*
X147966190Y-83289161D02*
X147870952Y-83384400D01*
X147870952Y-83384400D02*
X147680476Y-83479638D01*
X147680476Y-83479638D02*
X147109047Y-83479638D01*
X147109047Y-83479638D02*
X146918571Y-83384400D01*
X146918571Y-83384400D02*
X146823333Y-83289161D01*
X168847142Y-88979638D02*
X169228095Y-88979638D01*
X169228095Y-88979638D02*
X169418571Y-89074876D01*
X169418571Y-89074876D02*
X169609047Y-89265352D01*
X169609047Y-89265352D02*
X169704285Y-89646304D01*
X169704285Y-89646304D02*
X169704285Y-90312971D01*
X169704285Y-90312971D02*
X169609047Y-90693923D01*
X169609047Y-90693923D02*
X169418571Y-90884400D01*
X169418571Y-90884400D02*
X169228095Y-90979638D01*
X169228095Y-90979638D02*
X168847142Y-90979638D01*
X168847142Y-90979638D02*
X168656666Y-90884400D01*
X168656666Y-90884400D02*
X168466190Y-90693923D01*
X168466190Y-90693923D02*
X168370952Y-90312971D01*
X168370952Y-90312971D02*
X168370952Y-89646304D01*
X168370952Y-89646304D02*
X168466190Y-89265352D01*
X168466190Y-89265352D02*
X168656666Y-89074876D01*
X168656666Y-89074876D02*
X168847142Y-88979638D01*
X170847142Y-89836780D02*
X170656666Y-89741542D01*
X170656666Y-89741542D02*
X170561428Y-89646304D01*
X170561428Y-89646304D02*
X170466190Y-89455828D01*
X170466190Y-89455828D02*
X170466190Y-89360590D01*
X170466190Y-89360590D02*
X170561428Y-89170114D01*
X170561428Y-89170114D02*
X170656666Y-89074876D01*
X170656666Y-89074876D02*
X170847142Y-88979638D01*
X170847142Y-88979638D02*
X171228095Y-88979638D01*
X171228095Y-88979638D02*
X171418571Y-89074876D01*
X171418571Y-89074876D02*
X171513809Y-89170114D01*
X171513809Y-89170114D02*
X171609047Y-89360590D01*
X171609047Y-89360590D02*
X171609047Y-89455828D01*
X171609047Y-89455828D02*
X171513809Y-89646304D01*
X171513809Y-89646304D02*
X171418571Y-89741542D01*
X171418571Y-89741542D02*
X171228095Y-89836780D01*
X171228095Y-89836780D02*
X170847142Y-89836780D01*
X170847142Y-89836780D02*
X170656666Y-89932019D01*
X170656666Y-89932019D02*
X170561428Y-90027257D01*
X170561428Y-90027257D02*
X170466190Y-90217733D01*
X170466190Y-90217733D02*
X170466190Y-90598685D01*
X170466190Y-90598685D02*
X170561428Y-90789161D01*
X170561428Y-90789161D02*
X170656666Y-90884400D01*
X170656666Y-90884400D02*
X170847142Y-90979638D01*
X170847142Y-90979638D02*
X171228095Y-90979638D01*
X171228095Y-90979638D02*
X171418571Y-90884400D01*
X171418571Y-90884400D02*
X171513809Y-90789161D01*
X171513809Y-90789161D02*
X171609047Y-90598685D01*
X171609047Y-90598685D02*
X171609047Y-90217733D01*
X171609047Y-90217733D02*
X171513809Y-90027257D01*
X171513809Y-90027257D02*
X171418571Y-89932019D01*
X171418571Y-89932019D02*
X171228095Y-89836780D01*
X129537619Y-75979638D02*
X129537619Y-73979638D01*
X131347143Y-73979638D02*
X130966190Y-73979638D01*
X130966190Y-73979638D02*
X130775714Y-74074876D01*
X130775714Y-74074876D02*
X130680476Y-74170114D01*
X130680476Y-74170114D02*
X130490000Y-74455828D01*
X130490000Y-74455828D02*
X130394762Y-74836780D01*
X130394762Y-74836780D02*
X130394762Y-75598685D01*
X130394762Y-75598685D02*
X130490000Y-75789161D01*
X130490000Y-75789161D02*
X130585238Y-75884400D01*
X130585238Y-75884400D02*
X130775714Y-75979638D01*
X130775714Y-75979638D02*
X131156667Y-75979638D01*
X131156667Y-75979638D02*
X131347143Y-75884400D01*
X131347143Y-75884400D02*
X131442381Y-75789161D01*
X131442381Y-75789161D02*
X131537619Y-75598685D01*
X131537619Y-75598685D02*
X131537619Y-75122495D01*
X131537619Y-75122495D02*
X131442381Y-74932019D01*
X131442381Y-74932019D02*
X131347143Y-74836780D01*
X131347143Y-74836780D02*
X131156667Y-74741542D01*
X131156667Y-74741542D02*
X130775714Y-74741542D01*
X130775714Y-74741542D02*
X130585238Y-74836780D01*
X130585238Y-74836780D02*
X130490000Y-74932019D01*
X130490000Y-74932019D02*
X130394762Y-75122495D01*
X161347142Y-66479638D02*
X161728095Y-66479638D01*
X161728095Y-66479638D02*
X161918571Y-66574876D01*
X161918571Y-66574876D02*
X162109047Y-66765352D01*
X162109047Y-66765352D02*
X162204285Y-67146304D01*
X162204285Y-67146304D02*
X162204285Y-67812971D01*
X162204285Y-67812971D02*
X162109047Y-68193923D01*
X162109047Y-68193923D02*
X161918571Y-68384400D01*
X161918571Y-68384400D02*
X161728095Y-68479638D01*
X161728095Y-68479638D02*
X161347142Y-68479638D01*
X161347142Y-68479638D02*
X161156666Y-68384400D01*
X161156666Y-68384400D02*
X160966190Y-68193923D01*
X160966190Y-68193923D02*
X160870952Y-67812971D01*
X160870952Y-67812971D02*
X160870952Y-67146304D01*
X160870952Y-67146304D02*
X160966190Y-66765352D01*
X160966190Y-66765352D02*
X161156666Y-66574876D01*
X161156666Y-66574876D02*
X161347142Y-66479638D01*
X164109047Y-68479638D02*
X162966190Y-68479638D01*
X163537618Y-68479638D02*
X163537618Y-66479638D01*
X163537618Y-66479638D02*
X163347142Y-66765352D01*
X163347142Y-66765352D02*
X163156666Y-66955828D01*
X163156666Y-66955828D02*
X162966190Y-67051066D01*
X114537619Y-75979638D02*
X114537619Y-73979638D01*
X115394762Y-74170114D02*
X115490000Y-74074876D01*
X115490000Y-74074876D02*
X115680476Y-73979638D01*
X115680476Y-73979638D02*
X116156667Y-73979638D01*
X116156667Y-73979638D02*
X116347143Y-74074876D01*
X116347143Y-74074876D02*
X116442381Y-74170114D01*
X116442381Y-74170114D02*
X116537619Y-74360590D01*
X116537619Y-74360590D02*
X116537619Y-74551066D01*
X116537619Y-74551066D02*
X116442381Y-74836780D01*
X116442381Y-74836780D02*
X115299524Y-75979638D01*
X115299524Y-75979638D02*
X116537619Y-75979638D01*
X161347142Y-81479638D02*
X161728095Y-81479638D01*
X161728095Y-81479638D02*
X161918571Y-81574876D01*
X161918571Y-81574876D02*
X162109047Y-81765352D01*
X162109047Y-81765352D02*
X162204285Y-82146304D01*
X162204285Y-82146304D02*
X162204285Y-82812971D01*
X162204285Y-82812971D02*
X162109047Y-83193923D01*
X162109047Y-83193923D02*
X161918571Y-83384400D01*
X161918571Y-83384400D02*
X161728095Y-83479638D01*
X161728095Y-83479638D02*
X161347142Y-83479638D01*
X161347142Y-83479638D02*
X161156666Y-83384400D01*
X161156666Y-83384400D02*
X160966190Y-83193923D01*
X160966190Y-83193923D02*
X160870952Y-82812971D01*
X160870952Y-82812971D02*
X160870952Y-82146304D01*
X160870952Y-82146304D02*
X160966190Y-81765352D01*
X160966190Y-81765352D02*
X161156666Y-81574876D01*
X161156666Y-81574876D02*
X161347142Y-81479638D01*
X164013809Y-81479638D02*
X163061428Y-81479638D01*
X163061428Y-81479638D02*
X162966190Y-82432019D01*
X162966190Y-82432019D02*
X163061428Y-82336780D01*
X163061428Y-82336780D02*
X163251904Y-82241542D01*
X163251904Y-82241542D02*
X163728095Y-82241542D01*
X163728095Y-82241542D02*
X163918571Y-82336780D01*
X163918571Y-82336780D02*
X164013809Y-82432019D01*
X164013809Y-82432019D02*
X164109047Y-82622495D01*
X164109047Y-82622495D02*
X164109047Y-83098685D01*
X164109047Y-83098685D02*
X164013809Y-83289161D01*
X164013809Y-83289161D02*
X163918571Y-83384400D01*
X163918571Y-83384400D02*
X163728095Y-83479638D01*
X163728095Y-83479638D02*
X163251904Y-83479638D01*
X163251904Y-83479638D02*
X163061428Y-83384400D01*
X163061428Y-83384400D02*
X162966190Y-83289161D01*
X129537619Y-90979638D02*
X129537619Y-88979638D01*
X130775714Y-89836780D02*
X130585238Y-89741542D01*
X130585238Y-89741542D02*
X130490000Y-89646304D01*
X130490000Y-89646304D02*
X130394762Y-89455828D01*
X130394762Y-89455828D02*
X130394762Y-89360590D01*
X130394762Y-89360590D02*
X130490000Y-89170114D01*
X130490000Y-89170114D02*
X130585238Y-89074876D01*
X130585238Y-89074876D02*
X130775714Y-88979638D01*
X130775714Y-88979638D02*
X131156667Y-88979638D01*
X131156667Y-88979638D02*
X131347143Y-89074876D01*
X131347143Y-89074876D02*
X131442381Y-89170114D01*
X131442381Y-89170114D02*
X131537619Y-89360590D01*
X131537619Y-89360590D02*
X131537619Y-89455828D01*
X131537619Y-89455828D02*
X131442381Y-89646304D01*
X131442381Y-89646304D02*
X131347143Y-89741542D01*
X131347143Y-89741542D02*
X131156667Y-89836780D01*
X131156667Y-89836780D02*
X130775714Y-89836780D01*
X130775714Y-89836780D02*
X130585238Y-89932019D01*
X130585238Y-89932019D02*
X130490000Y-90027257D01*
X130490000Y-90027257D02*
X130394762Y-90217733D01*
X130394762Y-90217733D02*
X130394762Y-90598685D01*
X130394762Y-90598685D02*
X130490000Y-90789161D01*
X130490000Y-90789161D02*
X130585238Y-90884400D01*
X130585238Y-90884400D02*
X130775714Y-90979638D01*
X130775714Y-90979638D02*
X131156667Y-90979638D01*
X131156667Y-90979638D02*
X131347143Y-90884400D01*
X131347143Y-90884400D02*
X131442381Y-90789161D01*
X131442381Y-90789161D02*
X131537619Y-90598685D01*
X131537619Y-90598685D02*
X131537619Y-90217733D01*
X131537619Y-90217733D02*
X131442381Y-90027257D01*
X131442381Y-90027257D02*
X131347143Y-89932019D01*
X131347143Y-89932019D02*
X131156667Y-89836780D01*
X114537619Y-68479638D02*
X114537619Y-66479638D01*
X116537619Y-68479638D02*
X115394762Y-68479638D01*
X115966190Y-68479638D02*
X115966190Y-66479638D01*
X115966190Y-66479638D02*
X115775714Y-66765352D01*
X115775714Y-66765352D02*
X115585238Y-66955828D01*
X115585238Y-66955828D02*
X115394762Y-67051066D01*
X146156666Y-75789161D02*
X146061428Y-75884400D01*
X146061428Y-75884400D02*
X145775714Y-75979638D01*
X145775714Y-75979638D02*
X145585238Y-75979638D01*
X145585238Y-75979638D02*
X145299523Y-75884400D01*
X145299523Y-75884400D02*
X145109047Y-75693923D01*
X145109047Y-75693923D02*
X145013809Y-75503447D01*
X145013809Y-75503447D02*
X144918571Y-75122495D01*
X144918571Y-75122495D02*
X144918571Y-74836780D01*
X144918571Y-74836780D02*
X145013809Y-74455828D01*
X145013809Y-74455828D02*
X145109047Y-74265352D01*
X145109047Y-74265352D02*
X145299523Y-74074876D01*
X145299523Y-74074876D02*
X145585238Y-73979638D01*
X145585238Y-73979638D02*
X145775714Y-73979638D01*
X145775714Y-73979638D02*
X146061428Y-74074876D01*
X146061428Y-74074876D02*
X146156666Y-74170114D01*
X146918571Y-74170114D02*
X147013809Y-74074876D01*
X147013809Y-74074876D02*
X147204285Y-73979638D01*
X147204285Y-73979638D02*
X147680476Y-73979638D01*
X147680476Y-73979638D02*
X147870952Y-74074876D01*
X147870952Y-74074876D02*
X147966190Y-74170114D01*
X147966190Y-74170114D02*
X148061428Y-74360590D01*
X148061428Y-74360590D02*
X148061428Y-74551066D01*
X148061428Y-74551066D02*
X147966190Y-74836780D01*
X147966190Y-74836780D02*
X146823333Y-75979638D01*
X146823333Y-75979638D02*
X148061428Y-75979638D01*
X114537619Y-83479638D02*
X114537619Y-81479638D01*
X115299524Y-81479638D02*
X116537619Y-81479638D01*
X116537619Y-81479638D02*
X115870952Y-82241542D01*
X115870952Y-82241542D02*
X116156667Y-82241542D01*
X116156667Y-82241542D02*
X116347143Y-82336780D01*
X116347143Y-82336780D02*
X116442381Y-82432019D01*
X116442381Y-82432019D02*
X116537619Y-82622495D01*
X116537619Y-82622495D02*
X116537619Y-83098685D01*
X116537619Y-83098685D02*
X116442381Y-83289161D01*
X116442381Y-83289161D02*
X116347143Y-83384400D01*
X116347143Y-83384400D02*
X116156667Y-83479638D01*
X116156667Y-83479638D02*
X115585238Y-83479638D01*
X115585238Y-83479638D02*
X115394762Y-83384400D01*
X115394762Y-83384400D02*
X115299524Y-83289161D01*
X168847142Y-66479638D02*
X169228095Y-66479638D01*
X169228095Y-66479638D02*
X169418571Y-66574876D01*
X169418571Y-66574876D02*
X169609047Y-66765352D01*
X169609047Y-66765352D02*
X169704285Y-67146304D01*
X169704285Y-67146304D02*
X169704285Y-67812971D01*
X169704285Y-67812971D02*
X169609047Y-68193923D01*
X169609047Y-68193923D02*
X169418571Y-68384400D01*
X169418571Y-68384400D02*
X169228095Y-68479638D01*
X169228095Y-68479638D02*
X168847142Y-68479638D01*
X168847142Y-68479638D02*
X168656666Y-68384400D01*
X168656666Y-68384400D02*
X168466190Y-68193923D01*
X168466190Y-68193923D02*
X168370952Y-67812971D01*
X168370952Y-67812971D02*
X168370952Y-67146304D01*
X168370952Y-67146304D02*
X168466190Y-66765352D01*
X168466190Y-66765352D02*
X168656666Y-66574876D01*
X168656666Y-66574876D02*
X168847142Y-66479638D01*
X170466190Y-66670114D02*
X170561428Y-66574876D01*
X170561428Y-66574876D02*
X170751904Y-66479638D01*
X170751904Y-66479638D02*
X171228095Y-66479638D01*
X171228095Y-66479638D02*
X171418571Y-66574876D01*
X171418571Y-66574876D02*
X171513809Y-66670114D01*
X171513809Y-66670114D02*
X171609047Y-66860590D01*
X171609047Y-66860590D02*
X171609047Y-67051066D01*
X171609047Y-67051066D02*
X171513809Y-67336780D01*
X171513809Y-67336780D02*
X170370952Y-68479638D01*
X170370952Y-68479638D02*
X171609047Y-68479638D01*
D16*
X122552000Y-53504400D02*
X163452000Y-53504400D01*
X122552000Y-62624400D02*
X122552000Y-53504400D01*
X123852000Y-54814400D02*
X136652000Y-54814400D01*
X123852000Y-61314400D02*
X123852000Y-54814400D01*
X127262000Y-64014400D02*
X128262000Y-64014400D01*
X127762000Y-63014400D02*
X127262000Y-64014400D01*
X128262000Y-64014400D02*
X127762000Y-63014400D01*
X140952000Y-61314400D02*
X123852000Y-61314400D01*
X140952000Y-62624400D02*
X140952000Y-61314400D01*
X145052000Y-61314400D02*
X145052000Y-61314400D01*
X145052000Y-61314400D02*
X145052000Y-62624400D01*
X149352000Y-54814400D02*
X162152000Y-54814400D01*
X162152000Y-54814400D02*
X162152000Y-61314400D01*
X162152000Y-61314400D02*
X145052000Y-61314400D01*
X163452000Y-53504400D02*
X163452000Y-62624400D01*
X163452000Y-62624400D02*
X122552000Y-62624400D01*
%LPC*%
D17*
X122990000Y-71070000D03*
X130490000Y-86070000D03*
D18*
X112990000Y-100570000D03*
X172990000Y-100570000D03*
D17*
X146490000Y-100570000D03*
X162490000Y-100570000D03*
D18*
X112990000Y-55570000D03*
D17*
X169990000Y-78570000D03*
X153990000Y-93570000D03*
X162490000Y-78570000D03*
X153990000Y-78570000D03*
X146490000Y-93570000D03*
X146490000Y-71070000D03*
X137990000Y-93570000D03*
X153990000Y-100570000D03*
X137990000Y-86070000D03*
X169990000Y-86070000D03*
X115490000Y-93570000D03*
X162490000Y-93570000D03*
X130490000Y-71070000D03*
X146490000Y-86070000D03*
X169990000Y-93570000D03*
X137990000Y-100570000D03*
X130490000Y-78570000D03*
X162490000Y-71070000D03*
X122990000Y-78570000D03*
X122990000Y-100570000D03*
X115490000Y-78570000D03*
D18*
X172990000Y-55570000D03*
D17*
X162490000Y-86070000D03*
X130490000Y-93570000D03*
D19*
X127762000Y-59334400D03*
X127762000Y-56794400D03*
X130302000Y-59334400D03*
X130302000Y-56794400D03*
X132842000Y-59334400D03*
X132842000Y-56794400D03*
X135382000Y-59334400D03*
X135382000Y-56794400D03*
X137922000Y-59334400D03*
X137922000Y-56794400D03*
X140462000Y-59334400D03*
X140462000Y-56794400D03*
X143002000Y-59334400D03*
X143002000Y-56794400D03*
X145542000Y-59334400D03*
X145542000Y-56794400D03*
X148082000Y-59334400D03*
X148082000Y-56794400D03*
X150622000Y-59334400D03*
X150622000Y-56794400D03*
X153162000Y-59334400D03*
X153162000Y-56794400D03*
X155702000Y-59334400D03*
X155702000Y-56794400D03*
X158242000Y-59334400D03*
X158242000Y-56794400D03*
D17*
X153990000Y-86070000D03*
X137990000Y-78570000D03*
X137990000Y-71070000D03*
X153990000Y-71070000D03*
X130490000Y-100570000D03*
X122990000Y-93570000D03*
X115490000Y-71070000D03*
X146490000Y-78570000D03*
X122990000Y-86070000D03*
X115490000Y-86070000D03*
X169990000Y-71070000D03*
%LPD*%
M02*
