%TF.GenerationSoftware,KiCad,Pcbnew,9.0.2*%
%TF.CreationDate,2025-06-10T18:35:05+02:00*%
%TF.ProjectId,RPI-Electronics_IO-Card.pro,5250492d-456c-4656-9374-726f6e696373,rev?*%
%TF.SameCoordinates,Original*%
%TF.FileFunction,Drillmap*%
%TF.FilePolarity,Positive*%
%FSLAX45Y45*%
G04 Gerber Fmt 4.5, Leading zero omitted, Abs format (unit mm)*
G04 Created by KiCad (PCBNEW 9.0.2) date 2025-06-10 18:35:05*
%MOMM*%
%LPD*%
G01*
G04 APERTURE LIST*
%ADD10C,0.100000*%
%ADD11C,0.200000*%
%ADD12C,0.320000*%
G04 APERTURE END LIST*
D10*
X17649000Y-10107000D02*
X17649000Y-5507000D01*
X11249000Y-5207000D02*
X17349000Y-5207000D01*
X11249000Y-10407000D02*
G75*
G02*
X10949000Y-10107000I0J300000D01*
G01*
X17649000Y-10107000D02*
G75*
G02*
X17349000Y-10407000I-300000J0D01*
G01*
X10949000Y-10107000D02*
X10949000Y-5507000D01*
X11249000Y-10407000D02*
X17349000Y-10407000D01*
X10949000Y-5507000D02*
G75*
G02*
X11249000Y-5207000I300000J0D01*
G01*
X17349000Y-5207000D02*
G75*
G02*
X17649000Y-5507000I0J-300000D01*
G01*
D11*
D12*
X11139000Y-5397000D02*
X11459000Y-5717000D01*
X11459000Y-5397000D02*
X11139000Y-5717000D01*
X11139000Y-9897000D02*
X11459000Y-10217000D01*
X11459000Y-9897000D02*
X11139000Y-10217000D01*
X17139000Y-5397000D02*
X17459000Y-5717000D01*
X17459000Y-5397000D02*
X17139000Y-5717000D01*
X17139000Y-9897000D02*
X17459000Y-10217000D01*
X17459000Y-9897000D02*
X17139000Y-10217000D01*
D11*
X11204777Y-10723484D02*
X11204777Y-10523484D01*
X11204777Y-10523484D02*
X11252396Y-10523484D01*
X11252396Y-10523484D02*
X11280967Y-10533008D01*
X11280967Y-10533008D02*
X11300015Y-10552055D01*
X11300015Y-10552055D02*
X11309539Y-10571103D01*
X11309539Y-10571103D02*
X11319062Y-10609198D01*
X11319062Y-10609198D02*
X11319062Y-10637770D01*
X11319062Y-10637770D02*
X11309539Y-10675865D01*
X11309539Y-10675865D02*
X11300015Y-10694912D01*
X11300015Y-10694912D02*
X11280967Y-10713960D01*
X11280967Y-10713960D02*
X11252396Y-10723484D01*
X11252396Y-10723484D02*
X11204777Y-10723484D01*
X11404777Y-10723484D02*
X11404777Y-10590150D01*
X11404777Y-10628246D02*
X11414301Y-10609198D01*
X11414301Y-10609198D02*
X11423824Y-10599674D01*
X11423824Y-10599674D02*
X11442872Y-10590150D01*
X11442872Y-10590150D02*
X11461920Y-10590150D01*
X11528586Y-10723484D02*
X11528586Y-10590150D01*
X11528586Y-10523484D02*
X11519062Y-10533008D01*
X11519062Y-10533008D02*
X11528586Y-10542531D01*
X11528586Y-10542531D02*
X11538110Y-10533008D01*
X11538110Y-10533008D02*
X11528586Y-10523484D01*
X11528586Y-10523484D02*
X11528586Y-10542531D01*
X11652396Y-10723484D02*
X11633348Y-10713960D01*
X11633348Y-10713960D02*
X11623824Y-10694912D01*
X11623824Y-10694912D02*
X11623824Y-10523484D01*
X11757158Y-10723484D02*
X11738110Y-10713960D01*
X11738110Y-10713960D02*
X11728586Y-10694912D01*
X11728586Y-10694912D02*
X11728586Y-10523484D01*
X11985729Y-10723484D02*
X11985729Y-10523484D01*
X11985729Y-10523484D02*
X12052396Y-10666341D01*
X12052396Y-10666341D02*
X12119062Y-10523484D01*
X12119062Y-10523484D02*
X12119062Y-10723484D01*
X12300015Y-10723484D02*
X12300015Y-10618722D01*
X12300015Y-10618722D02*
X12290491Y-10599674D01*
X12290491Y-10599674D02*
X12271443Y-10590150D01*
X12271443Y-10590150D02*
X12233348Y-10590150D01*
X12233348Y-10590150D02*
X12214301Y-10599674D01*
X12300015Y-10713960D02*
X12280967Y-10723484D01*
X12280967Y-10723484D02*
X12233348Y-10723484D01*
X12233348Y-10723484D02*
X12214301Y-10713960D01*
X12214301Y-10713960D02*
X12204777Y-10694912D01*
X12204777Y-10694912D02*
X12204777Y-10675865D01*
X12204777Y-10675865D02*
X12214301Y-10656817D01*
X12214301Y-10656817D02*
X12233348Y-10647293D01*
X12233348Y-10647293D02*
X12280967Y-10647293D01*
X12280967Y-10647293D02*
X12300015Y-10637770D01*
X12395253Y-10590150D02*
X12395253Y-10790150D01*
X12395253Y-10599674D02*
X12414301Y-10590150D01*
X12414301Y-10590150D02*
X12452396Y-10590150D01*
X12452396Y-10590150D02*
X12471443Y-10599674D01*
X12471443Y-10599674D02*
X12480967Y-10609198D01*
X12480967Y-10609198D02*
X12490491Y-10628246D01*
X12490491Y-10628246D02*
X12490491Y-10685389D01*
X12490491Y-10685389D02*
X12480967Y-10704436D01*
X12480967Y-10704436D02*
X12471443Y-10713960D01*
X12471443Y-10713960D02*
X12452396Y-10723484D01*
X12452396Y-10723484D02*
X12414301Y-10723484D01*
X12414301Y-10723484D02*
X12395253Y-10713960D01*
X12576205Y-10704436D02*
X12585729Y-10713960D01*
X12585729Y-10713960D02*
X12576205Y-10723484D01*
X12576205Y-10723484D02*
X12566682Y-10713960D01*
X12566682Y-10713960D02*
X12576205Y-10704436D01*
X12576205Y-10704436D02*
X12576205Y-10723484D01*
X12576205Y-10599674D02*
X12585729Y-10609198D01*
X12585729Y-10609198D02*
X12576205Y-10618722D01*
X12576205Y-10618722D02*
X12566682Y-10609198D01*
X12566682Y-10609198D02*
X12576205Y-10599674D01*
X12576205Y-10599674D02*
X12576205Y-10618722D01*
X10744000Y-10952000D02*
X10944000Y-11152000D01*
X10944000Y-10952000D02*
X10744000Y-11152000D01*
X11185729Y-10943484D02*
X11309539Y-10943484D01*
X11309539Y-10943484D02*
X11242872Y-11019674D01*
X11242872Y-11019674D02*
X11271443Y-11019674D01*
X11271443Y-11019674D02*
X11290491Y-11029198D01*
X11290491Y-11029198D02*
X11300015Y-11038722D01*
X11300015Y-11038722D02*
X11309539Y-11057770D01*
X11309539Y-11057770D02*
X11309539Y-11105389D01*
X11309539Y-11105389D02*
X11300015Y-11124436D01*
X11300015Y-11124436D02*
X11290491Y-11133960D01*
X11290491Y-11133960D02*
X11271443Y-11143484D01*
X11271443Y-11143484D02*
X11214301Y-11143484D01*
X11214301Y-11143484D02*
X11195253Y-11133960D01*
X11195253Y-11133960D02*
X11185729Y-11124436D01*
X11395253Y-11124436D02*
X11404777Y-11133960D01*
X11404777Y-11133960D02*
X11395253Y-11143484D01*
X11395253Y-11143484D02*
X11385729Y-11133960D01*
X11385729Y-11133960D02*
X11395253Y-11124436D01*
X11395253Y-11124436D02*
X11395253Y-11143484D01*
X11480967Y-10962531D02*
X11490491Y-10953008D01*
X11490491Y-10953008D02*
X11509539Y-10943484D01*
X11509539Y-10943484D02*
X11557158Y-10943484D01*
X11557158Y-10943484D02*
X11576205Y-10953008D01*
X11576205Y-10953008D02*
X11585729Y-10962531D01*
X11585729Y-10962531D02*
X11595253Y-10981579D01*
X11595253Y-10981579D02*
X11595253Y-11000627D01*
X11595253Y-11000627D02*
X11585729Y-11029198D01*
X11585729Y-11029198D02*
X11471443Y-11143484D01*
X11471443Y-11143484D02*
X11595253Y-11143484D01*
X11719062Y-10943484D02*
X11738110Y-10943484D01*
X11738110Y-10943484D02*
X11757158Y-10953008D01*
X11757158Y-10953008D02*
X11766682Y-10962531D01*
X11766682Y-10962531D02*
X11776205Y-10981579D01*
X11776205Y-10981579D02*
X11785729Y-11019674D01*
X11785729Y-11019674D02*
X11785729Y-11067293D01*
X11785729Y-11067293D02*
X11776205Y-11105389D01*
X11776205Y-11105389D02*
X11766682Y-11124436D01*
X11766682Y-11124436D02*
X11757158Y-11133960D01*
X11757158Y-11133960D02*
X11738110Y-11143484D01*
X11738110Y-11143484D02*
X11719062Y-11143484D01*
X11719062Y-11143484D02*
X11700015Y-11133960D01*
X11700015Y-11133960D02*
X11690491Y-11124436D01*
X11690491Y-11124436D02*
X11680967Y-11105389D01*
X11680967Y-11105389D02*
X11671443Y-11067293D01*
X11671443Y-11067293D02*
X11671443Y-11019674D01*
X11671443Y-11019674D02*
X11680967Y-10981579D01*
X11680967Y-10981579D02*
X11690491Y-10962531D01*
X11690491Y-10962531D02*
X11700015Y-10953008D01*
X11700015Y-10953008D02*
X11719062Y-10943484D01*
X11909539Y-10943484D02*
X11928586Y-10943484D01*
X11928586Y-10943484D02*
X11947634Y-10953008D01*
X11947634Y-10953008D02*
X11957158Y-10962531D01*
X11957158Y-10962531D02*
X11966682Y-10981579D01*
X11966682Y-10981579D02*
X11976205Y-11019674D01*
X11976205Y-11019674D02*
X11976205Y-11067293D01*
X11976205Y-11067293D02*
X11966682Y-11105389D01*
X11966682Y-11105389D02*
X11957158Y-11124436D01*
X11957158Y-11124436D02*
X11947634Y-11133960D01*
X11947634Y-11133960D02*
X11928586Y-11143484D01*
X11928586Y-11143484D02*
X11909539Y-11143484D01*
X11909539Y-11143484D02*
X11890491Y-11133960D01*
X11890491Y-11133960D02*
X11880967Y-11124436D01*
X11880967Y-11124436D02*
X11871443Y-11105389D01*
X11871443Y-11105389D02*
X11861920Y-11067293D01*
X11861920Y-11067293D02*
X11861920Y-11019674D01*
X11861920Y-11019674D02*
X11871443Y-10981579D01*
X11871443Y-10981579D02*
X11880967Y-10962531D01*
X11880967Y-10962531D02*
X11890491Y-10953008D01*
X11890491Y-10953008D02*
X11909539Y-10943484D01*
X12061920Y-11143484D02*
X12061920Y-11010150D01*
X12061920Y-11029198D02*
X12071443Y-11019674D01*
X12071443Y-11019674D02*
X12090491Y-11010150D01*
X12090491Y-11010150D02*
X12119063Y-11010150D01*
X12119063Y-11010150D02*
X12138110Y-11019674D01*
X12138110Y-11019674D02*
X12147634Y-11038722D01*
X12147634Y-11038722D02*
X12147634Y-11143484D01*
X12147634Y-11038722D02*
X12157158Y-11019674D01*
X12157158Y-11019674D02*
X12176205Y-11010150D01*
X12176205Y-11010150D02*
X12204777Y-11010150D01*
X12204777Y-11010150D02*
X12223824Y-11019674D01*
X12223824Y-11019674D02*
X12233348Y-11038722D01*
X12233348Y-11038722D02*
X12233348Y-11143484D01*
X12328586Y-11143484D02*
X12328586Y-11010150D01*
X12328586Y-11029198D02*
X12338110Y-11019674D01*
X12338110Y-11019674D02*
X12357158Y-11010150D01*
X12357158Y-11010150D02*
X12385729Y-11010150D01*
X12385729Y-11010150D02*
X12404777Y-11019674D01*
X12404777Y-11019674D02*
X12414301Y-11038722D01*
X12414301Y-11038722D02*
X12414301Y-11143484D01*
X12414301Y-11038722D02*
X12423824Y-11019674D01*
X12423824Y-11019674D02*
X12442872Y-11010150D01*
X12442872Y-11010150D02*
X12471443Y-11010150D01*
X12471443Y-11010150D02*
X12490491Y-11019674D01*
X12490491Y-11019674D02*
X12500015Y-11038722D01*
X12500015Y-11038722D02*
X12500015Y-11143484D01*
X12890491Y-10933960D02*
X12719063Y-11191103D01*
X13147634Y-10943484D02*
X13166682Y-10943484D01*
X13166682Y-10943484D02*
X13185729Y-10953008D01*
X13185729Y-10953008D02*
X13195253Y-10962531D01*
X13195253Y-10962531D02*
X13204777Y-10981579D01*
X13204777Y-10981579D02*
X13214301Y-11019674D01*
X13214301Y-11019674D02*
X13214301Y-11067293D01*
X13214301Y-11067293D02*
X13204777Y-11105389D01*
X13204777Y-11105389D02*
X13195253Y-11124436D01*
X13195253Y-11124436D02*
X13185729Y-11133960D01*
X13185729Y-11133960D02*
X13166682Y-11143484D01*
X13166682Y-11143484D02*
X13147634Y-11143484D01*
X13147634Y-11143484D02*
X13128586Y-11133960D01*
X13128586Y-11133960D02*
X13119063Y-11124436D01*
X13119063Y-11124436D02*
X13109539Y-11105389D01*
X13109539Y-11105389D02*
X13100015Y-11067293D01*
X13100015Y-11067293D02*
X13100015Y-11019674D01*
X13100015Y-11019674D02*
X13109539Y-10981579D01*
X13109539Y-10981579D02*
X13119063Y-10962531D01*
X13119063Y-10962531D02*
X13128586Y-10953008D01*
X13128586Y-10953008D02*
X13147634Y-10943484D01*
X13300015Y-11124436D02*
X13309539Y-11133960D01*
X13309539Y-11133960D02*
X13300015Y-11143484D01*
X13300015Y-11143484D02*
X13290491Y-11133960D01*
X13290491Y-11133960D02*
X13300015Y-11124436D01*
X13300015Y-11124436D02*
X13300015Y-11143484D01*
X13500015Y-11143484D02*
X13385729Y-11143484D01*
X13442872Y-11143484D02*
X13442872Y-10943484D01*
X13442872Y-10943484D02*
X13423825Y-10972055D01*
X13423825Y-10972055D02*
X13404777Y-10991103D01*
X13404777Y-10991103D02*
X13385729Y-11000627D01*
X13576206Y-10962531D02*
X13585729Y-10953008D01*
X13585729Y-10953008D02*
X13604777Y-10943484D01*
X13604777Y-10943484D02*
X13652396Y-10943484D01*
X13652396Y-10943484D02*
X13671444Y-10953008D01*
X13671444Y-10953008D02*
X13680967Y-10962531D01*
X13680967Y-10962531D02*
X13690491Y-10981579D01*
X13690491Y-10981579D02*
X13690491Y-11000627D01*
X13690491Y-11000627D02*
X13680967Y-11029198D01*
X13680967Y-11029198D02*
X13566682Y-11143484D01*
X13566682Y-11143484D02*
X13690491Y-11143484D01*
X13861920Y-10943484D02*
X13823825Y-10943484D01*
X13823825Y-10943484D02*
X13804777Y-10953008D01*
X13804777Y-10953008D02*
X13795253Y-10962531D01*
X13795253Y-10962531D02*
X13776206Y-10991103D01*
X13776206Y-10991103D02*
X13766682Y-11029198D01*
X13766682Y-11029198D02*
X13766682Y-11105389D01*
X13766682Y-11105389D02*
X13776206Y-11124436D01*
X13776206Y-11124436D02*
X13785729Y-11133960D01*
X13785729Y-11133960D02*
X13804777Y-11143484D01*
X13804777Y-11143484D02*
X13842872Y-11143484D01*
X13842872Y-11143484D02*
X13861920Y-11133960D01*
X13861920Y-11133960D02*
X13871444Y-11124436D01*
X13871444Y-11124436D02*
X13880967Y-11105389D01*
X13880967Y-11105389D02*
X13880967Y-11057770D01*
X13880967Y-11057770D02*
X13871444Y-11038722D01*
X13871444Y-11038722D02*
X13861920Y-11029198D01*
X13861920Y-11029198D02*
X13842872Y-11019674D01*
X13842872Y-11019674D02*
X13804777Y-11019674D01*
X13804777Y-11019674D02*
X13785729Y-11029198D01*
X13785729Y-11029198D02*
X13776206Y-11038722D01*
X13776206Y-11038722D02*
X13766682Y-11057770D01*
X14004777Y-10943484D02*
X14023825Y-10943484D01*
X14023825Y-10943484D02*
X14042872Y-10953008D01*
X14042872Y-10953008D02*
X14052396Y-10962531D01*
X14052396Y-10962531D02*
X14061920Y-10981579D01*
X14061920Y-10981579D02*
X14071444Y-11019674D01*
X14071444Y-11019674D02*
X14071444Y-11067293D01*
X14071444Y-11067293D02*
X14061920Y-11105389D01*
X14061920Y-11105389D02*
X14052396Y-11124436D01*
X14052396Y-11124436D02*
X14042872Y-11133960D01*
X14042872Y-11133960D02*
X14023825Y-11143484D01*
X14023825Y-11143484D02*
X14004777Y-11143484D01*
X14004777Y-11143484D02*
X13985729Y-11133960D01*
X13985729Y-11133960D02*
X13976206Y-11124436D01*
X13976206Y-11124436D02*
X13966682Y-11105389D01*
X13966682Y-11105389D02*
X13957158Y-11067293D01*
X13957158Y-11067293D02*
X13957158Y-11019674D01*
X13957158Y-11019674D02*
X13966682Y-10981579D01*
X13966682Y-10981579D02*
X13976206Y-10962531D01*
X13976206Y-10962531D02*
X13985729Y-10953008D01*
X13985729Y-10953008D02*
X14004777Y-10943484D01*
X14147634Y-10943484D02*
X14147634Y-10981579D01*
X14223825Y-10943484D02*
X14223825Y-10981579D01*
X14519063Y-11219674D02*
X14509539Y-11210150D01*
X14509539Y-11210150D02*
X14490491Y-11181579D01*
X14490491Y-11181579D02*
X14480968Y-11162531D01*
X14480968Y-11162531D02*
X14471444Y-11133960D01*
X14471444Y-11133960D02*
X14461920Y-11086341D01*
X14461920Y-11086341D02*
X14461920Y-11048246D01*
X14461920Y-11048246D02*
X14471444Y-11000627D01*
X14471444Y-11000627D02*
X14480968Y-10972055D01*
X14480968Y-10972055D02*
X14490491Y-10953008D01*
X14490491Y-10953008D02*
X14509539Y-10924436D01*
X14509539Y-10924436D02*
X14519063Y-10914912D01*
X14680968Y-11010150D02*
X14680968Y-11143484D01*
X14633348Y-10933960D02*
X14585729Y-11076817D01*
X14585729Y-11076817D02*
X14709539Y-11076817D01*
X14938110Y-11143484D02*
X14938110Y-10943484D01*
X15023825Y-11143484D02*
X15023825Y-11038722D01*
X15023825Y-11038722D02*
X15014301Y-11019674D01*
X15014301Y-11019674D02*
X14995253Y-11010150D01*
X14995253Y-11010150D02*
X14966682Y-11010150D01*
X14966682Y-11010150D02*
X14947634Y-11019674D01*
X14947634Y-11019674D02*
X14938110Y-11029198D01*
X15147634Y-11143484D02*
X15128587Y-11133960D01*
X15128587Y-11133960D02*
X15119063Y-11124436D01*
X15119063Y-11124436D02*
X15109539Y-11105389D01*
X15109539Y-11105389D02*
X15109539Y-11048246D01*
X15109539Y-11048246D02*
X15119063Y-11029198D01*
X15119063Y-11029198D02*
X15128587Y-11019674D01*
X15128587Y-11019674D02*
X15147634Y-11010150D01*
X15147634Y-11010150D02*
X15176206Y-11010150D01*
X15176206Y-11010150D02*
X15195253Y-11019674D01*
X15195253Y-11019674D02*
X15204777Y-11029198D01*
X15204777Y-11029198D02*
X15214301Y-11048246D01*
X15214301Y-11048246D02*
X15214301Y-11105389D01*
X15214301Y-11105389D02*
X15204777Y-11124436D01*
X15204777Y-11124436D02*
X15195253Y-11133960D01*
X15195253Y-11133960D02*
X15176206Y-11143484D01*
X15176206Y-11143484D02*
X15147634Y-11143484D01*
X15328587Y-11143484D02*
X15309539Y-11133960D01*
X15309539Y-11133960D02*
X15300015Y-11114912D01*
X15300015Y-11114912D02*
X15300015Y-10943484D01*
X15480968Y-11133960D02*
X15461920Y-11143484D01*
X15461920Y-11143484D02*
X15423825Y-11143484D01*
X15423825Y-11143484D02*
X15404777Y-11133960D01*
X15404777Y-11133960D02*
X15395253Y-11114912D01*
X15395253Y-11114912D02*
X15395253Y-11038722D01*
X15395253Y-11038722D02*
X15404777Y-11019674D01*
X15404777Y-11019674D02*
X15423825Y-11010150D01*
X15423825Y-11010150D02*
X15461920Y-11010150D01*
X15461920Y-11010150D02*
X15480968Y-11019674D01*
X15480968Y-11019674D02*
X15490491Y-11038722D01*
X15490491Y-11038722D02*
X15490491Y-11057770D01*
X15490491Y-11057770D02*
X15395253Y-11076817D01*
X15566682Y-11133960D02*
X15585730Y-11143484D01*
X15585730Y-11143484D02*
X15623825Y-11143484D01*
X15623825Y-11143484D02*
X15642872Y-11133960D01*
X15642872Y-11133960D02*
X15652396Y-11114912D01*
X15652396Y-11114912D02*
X15652396Y-11105389D01*
X15652396Y-11105389D02*
X15642872Y-11086341D01*
X15642872Y-11086341D02*
X15623825Y-11076817D01*
X15623825Y-11076817D02*
X15595253Y-11076817D01*
X15595253Y-11076817D02*
X15576206Y-11067293D01*
X15576206Y-11067293D02*
X15566682Y-11048246D01*
X15566682Y-11048246D02*
X15566682Y-11038722D01*
X15566682Y-11038722D02*
X15576206Y-11019674D01*
X15576206Y-11019674D02*
X15595253Y-11010150D01*
X15595253Y-11010150D02*
X15623825Y-11010150D01*
X15623825Y-11010150D02*
X15642872Y-11019674D01*
X15719063Y-11219674D02*
X15728587Y-11210150D01*
X15728587Y-11210150D02*
X15747634Y-11181579D01*
X15747634Y-11181579D02*
X15757158Y-11162531D01*
X15757158Y-11162531D02*
X15766682Y-11133960D01*
X15766682Y-11133960D02*
X15776206Y-11086341D01*
X15776206Y-11086341D02*
X15776206Y-11048246D01*
X15776206Y-11048246D02*
X15766682Y-11000627D01*
X15766682Y-11000627D02*
X15757158Y-10972055D01*
X15757158Y-10972055D02*
X15747634Y-10953008D01*
X15747634Y-10953008D02*
X15728587Y-10924436D01*
X15728587Y-10924436D02*
X15719063Y-10914912D01*
X16080968Y-11219674D02*
X16071444Y-11210150D01*
X16071444Y-11210150D02*
X16052396Y-11181579D01*
X16052396Y-11181579D02*
X16042872Y-11162531D01*
X16042872Y-11162531D02*
X16033349Y-11133960D01*
X16033349Y-11133960D02*
X16023825Y-11086341D01*
X16023825Y-11086341D02*
X16023825Y-11048246D01*
X16023825Y-11048246D02*
X16033349Y-11000627D01*
X16033349Y-11000627D02*
X16042872Y-10972055D01*
X16042872Y-10972055D02*
X16052396Y-10953008D01*
X16052396Y-10953008D02*
X16071444Y-10924436D01*
X16071444Y-10924436D02*
X16080968Y-10914912D01*
X16157158Y-11010150D02*
X16157158Y-11143484D01*
X16157158Y-11029198D02*
X16166682Y-11019674D01*
X16166682Y-11019674D02*
X16185730Y-11010150D01*
X16185730Y-11010150D02*
X16214301Y-11010150D01*
X16214301Y-11010150D02*
X16233349Y-11019674D01*
X16233349Y-11019674D02*
X16242872Y-11038722D01*
X16242872Y-11038722D02*
X16242872Y-11143484D01*
X16366682Y-11143484D02*
X16347634Y-11133960D01*
X16347634Y-11133960D02*
X16338111Y-11124436D01*
X16338111Y-11124436D02*
X16328587Y-11105389D01*
X16328587Y-11105389D02*
X16328587Y-11048246D01*
X16328587Y-11048246D02*
X16338111Y-11029198D01*
X16338111Y-11029198D02*
X16347634Y-11019674D01*
X16347634Y-11019674D02*
X16366682Y-11010150D01*
X16366682Y-11010150D02*
X16395253Y-11010150D01*
X16395253Y-11010150D02*
X16414301Y-11019674D01*
X16414301Y-11019674D02*
X16423825Y-11029198D01*
X16423825Y-11029198D02*
X16433349Y-11048246D01*
X16433349Y-11048246D02*
X16433349Y-11105389D01*
X16433349Y-11105389D02*
X16423825Y-11124436D01*
X16423825Y-11124436D02*
X16414301Y-11133960D01*
X16414301Y-11133960D02*
X16395253Y-11143484D01*
X16395253Y-11143484D02*
X16366682Y-11143484D01*
X16490492Y-11010150D02*
X16566682Y-11010150D01*
X16519063Y-10943484D02*
X16519063Y-11114912D01*
X16519063Y-11114912D02*
X16528587Y-11133960D01*
X16528587Y-11133960D02*
X16547634Y-11143484D01*
X16547634Y-11143484D02*
X16566682Y-11143484D01*
X16785730Y-11010150D02*
X16785730Y-11210150D01*
X16785730Y-11019674D02*
X16804777Y-11010150D01*
X16804777Y-11010150D02*
X16842873Y-11010150D01*
X16842873Y-11010150D02*
X16861920Y-11019674D01*
X16861920Y-11019674D02*
X16871444Y-11029198D01*
X16871444Y-11029198D02*
X16880968Y-11048246D01*
X16880968Y-11048246D02*
X16880968Y-11105389D01*
X16880968Y-11105389D02*
X16871444Y-11124436D01*
X16871444Y-11124436D02*
X16861920Y-11133960D01*
X16861920Y-11133960D02*
X16842873Y-11143484D01*
X16842873Y-11143484D02*
X16804777Y-11143484D01*
X16804777Y-11143484D02*
X16785730Y-11133960D01*
X16995254Y-11143484D02*
X16976206Y-11133960D01*
X16976206Y-11133960D02*
X16966682Y-11114912D01*
X16966682Y-11114912D02*
X16966682Y-10943484D01*
X17157158Y-11143484D02*
X17157158Y-11038722D01*
X17157158Y-11038722D02*
X17147635Y-11019674D01*
X17147635Y-11019674D02*
X17128587Y-11010150D01*
X17128587Y-11010150D02*
X17090492Y-11010150D01*
X17090492Y-11010150D02*
X17071444Y-11019674D01*
X17157158Y-11133960D02*
X17138111Y-11143484D01*
X17138111Y-11143484D02*
X17090492Y-11143484D01*
X17090492Y-11143484D02*
X17071444Y-11133960D01*
X17071444Y-11133960D02*
X17061920Y-11114912D01*
X17061920Y-11114912D02*
X17061920Y-11095865D01*
X17061920Y-11095865D02*
X17071444Y-11076817D01*
X17071444Y-11076817D02*
X17090492Y-11067293D01*
X17090492Y-11067293D02*
X17138111Y-11067293D01*
X17138111Y-11067293D02*
X17157158Y-11057770D01*
X17223825Y-11010150D02*
X17300015Y-11010150D01*
X17252396Y-10943484D02*
X17252396Y-11114912D01*
X17252396Y-11114912D02*
X17261920Y-11133960D01*
X17261920Y-11133960D02*
X17280968Y-11143484D01*
X17280968Y-11143484D02*
X17300015Y-11143484D01*
X17442873Y-11133960D02*
X17423825Y-11143484D01*
X17423825Y-11143484D02*
X17385730Y-11143484D01*
X17385730Y-11143484D02*
X17366682Y-11133960D01*
X17366682Y-11133960D02*
X17357158Y-11114912D01*
X17357158Y-11114912D02*
X17357158Y-11038722D01*
X17357158Y-11038722D02*
X17366682Y-11019674D01*
X17366682Y-11019674D02*
X17385730Y-11010150D01*
X17385730Y-11010150D02*
X17423825Y-11010150D01*
X17423825Y-11010150D02*
X17442873Y-11019674D01*
X17442873Y-11019674D02*
X17452396Y-11038722D01*
X17452396Y-11038722D02*
X17452396Y-11057770D01*
X17452396Y-11057770D02*
X17357158Y-11076817D01*
X17623825Y-11143484D02*
X17623825Y-10943484D01*
X17623825Y-11133960D02*
X17604777Y-11143484D01*
X17604777Y-11143484D02*
X17566682Y-11143484D01*
X17566682Y-11143484D02*
X17547635Y-11133960D01*
X17547635Y-11133960D02*
X17538111Y-11124436D01*
X17538111Y-11124436D02*
X17528587Y-11105389D01*
X17528587Y-11105389D02*
X17528587Y-11048246D01*
X17528587Y-11048246D02*
X17538111Y-11029198D01*
X17538111Y-11029198D02*
X17547635Y-11019674D01*
X17547635Y-11019674D02*
X17566682Y-11010150D01*
X17566682Y-11010150D02*
X17604777Y-11010150D01*
X17604777Y-11010150D02*
X17623825Y-11019674D01*
X17700016Y-11219674D02*
X17709539Y-11210150D01*
X17709539Y-11210150D02*
X17728587Y-11181579D01*
X17728587Y-11181579D02*
X17738111Y-11162531D01*
X17738111Y-11162531D02*
X17747635Y-11133960D01*
X17747635Y-11133960D02*
X17757158Y-11086341D01*
X17757158Y-11086341D02*
X17757158Y-11048246D01*
X17757158Y-11048246D02*
X17747635Y-11000627D01*
X17747635Y-11000627D02*
X17738111Y-10972055D01*
X17738111Y-10972055D02*
X17728587Y-10953008D01*
X17728587Y-10953008D02*
X17709539Y-10924436D01*
X17709539Y-10924436D02*
X17700016Y-10914912D01*
M02*
