M48
; DRILL file {KiCad 9.0.2} date 2025-06-10T18:35:05+0200
; FORMAT={-:-/ absolute / metric / decimal}
; #@! TF.CreationDate,2025-06-10T18:35:05+02:00
; #@! TF.GenerationSoftware,Kicad,Pcbnew,9.0.2
; #@! TF.FileFunction,Plated,1,2,PTH
FMAT,2
METRIC
; #@! TA.AperFunction,Plated,PTH,ViaDrill
T1C0.400
; #@! TA.AperFunction,Plated,PTH,ComponentDrill
T2C1.000
; #@! TA.AperFunction,Plated,PTH,ComponentDrill
T3C3.000
%
G90
G05
T1
X155.651Y-63.881
X163.24Y-54.82
T2
X127.762Y-56.794
X127.762Y-59.334
X130.302Y-56.794
X130.302Y-59.334
X132.842Y-56.794
X132.842Y-59.334
X135.382Y-56.794
X135.382Y-59.334
X137.922Y-56.794
X137.922Y-59.334
X140.462Y-56.794
X140.462Y-59.334
X143.002Y-56.794
X143.002Y-59.334
X145.542Y-56.794
X145.542Y-59.334
X148.082Y-56.794
X148.082Y-59.334
X150.622Y-56.794
X150.622Y-59.334
X153.162Y-56.794
X153.162Y-59.334
X155.702Y-56.794
X155.702Y-59.334
X158.242Y-56.794
X158.242Y-59.334
T3
X115.49Y-71.07
X115.49Y-78.57
X115.49Y-86.07
X115.49Y-93.57
X122.99Y-71.07
X122.99Y-78.57
X122.99Y-86.07
X122.99Y-93.57
X122.99Y-100.57
X130.49Y-71.07
X130.49Y-78.57
X130.49Y-86.07
X130.49Y-93.57
X130.49Y-100.57
X137.99Y-71.07
X137.99Y-78.57
X137.99Y-86.07
X137.99Y-93.57
X137.99Y-100.57
X146.49Y-71.07
X146.49Y-78.57
X146.49Y-86.07
X146.49Y-93.57
X146.49Y-100.57
X153.99Y-71.07
X153.99Y-78.57
X153.99Y-86.07
X153.99Y-93.57
X153.99Y-100.57
X162.49Y-71.07
X162.49Y-78.57
X162.49Y-86.07
X162.49Y-93.57
X162.49Y-100.57
X169.99Y-71.07
X169.99Y-78.57
X169.99Y-86.07
X169.99Y-93.57
M30
